<svg xmlns="http://www.w3.org/2000/svg" width="40" height="40" viewBox="0 0 40 40"><defs><style>.a{fill:none;}.b{fill:#fff;}</style></defs><rect class="a" width="40" height="40"/><path class="b" d="M.9,0C.9.6,1.958,1,3.017,1H36.883C37.942,1,39,.6,39,0s-1.058-1-2.117-1H3.017C1.958-1,.9-.6.9,0ZM3.017,11H36.883C37.942,11,39,10.5,39,10s-1.058-1-2.117-1H3.017C1.958,9,.9,9.5.9,10S1.958,11,3.017,11Zm0,10H36.883C37.942,21,39,20.5,39,20s-1.058-1-2.117-1H3.017C1.958,19,.9,19.5.9,20S1.958,21,3.017,21Z" transform="translate(0 11)"/></svg>