<?xml version="1.0" encoding="UTF-8"?>
<svg width="30pt" height="30pt" inkscape:version="1.0 (4035a4fb49, 2020-05-01)" sodipodi:docname="AddButton.svg" version="1.1" viewBox="0 0 205.65 205.65" xmlns="http://www.w3.org/2000/svg" xmlns:cc="http://creativecommons.org/ns#" xmlns:dc="http://purl.org/dc/elements/1.1/" xmlns:inkscape="http://www.inkscape.org/namespaces/inkscape" xmlns:rdf="http://www.w3.org/1999/02/22-rdf-syntax-ns#" xmlns:sodipodi="http://sodipodi.sourceforge.net/DTD/sodipodi-0.dtd" xmlns:xlink="http://www.w3.org/1999/xlink">
 <defs>
  <linearGradient id="linearGradient1915" inkscape:collect="always">
   <stop stop-color="#02a201" offset="0"/>
   <stop stop-color="#02a201" stop-opacity="0" offset="1"/>
  </linearGradient>
  <linearGradient id="linearGradient3806" inkscape:collect="always">
   <stop stop-color="#02a200" offset="0"/>
   <stop stop-color="#02a200" stop-opacity="0" offset="1"/>
  </linearGradient>
  <linearGradient id="linearGradient2975" x1="45.475" x2="236.12" y1="251.79" y2="251.79" gradientTransform="matrix(1.0786 0 0 1.0786 -49.312 -266.73)" gradientUnits="userSpaceOnUse" inkscape:collect="always">
   <stop stop-color="#a82738" offset="0"/>
   <stop stop-color="#a82738" stop-opacity="0" offset="1"/>
  </linearGradient>
  <filter id="filter3317" x="-.012683" y="-.012564" width="1.0254" height="1.0251" color-interpolation-filters="sRGB" inkscape:collect="always">
   <feGaussianBlur inkscape:collect="always" stdDeviation="1.0394032"/>
  </filter>
  <filter id="filter3751-64" x="-.96537" y="-.049943" width="2.9307" height="1.0999" color-interpolation-filters="sRGB" inkscape:collect="always">
   <feGaussianBlur inkscape:collect="always" stdDeviation="2.3062615"/>
  </filter>
  <filter id="filter3755-8" x="-.94802" y="-.039041" width="2.896" height="1.0781" color-interpolation-filters="sRGB" inkscape:collect="always">
   <feGaussianBlur inkscape:collect="always" stdDeviation="2.3062615"/>
  </filter>
  <filter id="filter3759-33" x="-1.0298" y="-.049048" width="3.0595" height="1.0981" color-interpolation-filters="sRGB" inkscape:collect="always">
   <feGaussianBlur inkscape:collect="always" stdDeviation="2.3062615"/>
  </filter>
  <filter id="filter3763-9" x="-1.0699" y="-.061369" width="3.1397" height="1.1227" color-interpolation-filters="sRGB" inkscape:collect="always">
   <feGaussianBlur inkscape:collect="always" stdDeviation="2.3062615"/>
  </filter>
  <filter id="filter3767-4" x="-1.0511" y="-.062723" width="3.1022" height="1.1254" color-interpolation-filters="sRGB" inkscape:collect="always">
   <feGaussianBlur inkscape:collect="always" stdDeviation="2.3062615"/>
  </filter>
  <filter id="filter3751-6-0" x="-.96537" y="-.049943" width="2.9307" height="1.0999" color-interpolation-filters="sRGB" inkscape:collect="always">
   <feGaussianBlur inkscape:collect="always" stdDeviation="2.3062615"/>
  </filter>
  <filter id="filter3755-4-1" x="-.94802" y="-.039041" width="2.896" height="1.0781" color-interpolation-filters="sRGB" inkscape:collect="always">
   <feGaussianBlur inkscape:collect="always" stdDeviation="2.3062615"/>
  </filter>
  <filter id="filter3759-3-0" x="-1.0298" y="-.049048" width="3.0595" height="1.0981" color-interpolation-filters="sRGB" inkscape:collect="always">
   <feGaussianBlur inkscape:collect="always" stdDeviation="2.3062615"/>
  </filter>
  <filter id="filter3763-6-8" x="-1.0699" y="-.061369" width="3.1397" height="1.1227" color-interpolation-filters="sRGB" inkscape:collect="always">
   <feGaussianBlur inkscape:collect="always" stdDeviation="2.3062615"/>
  </filter>
  <filter id="filter3767-1-8" x="-1.0511" y="-.062723" width="3.1022" height="1.1254" color-interpolation-filters="sRGB" inkscape:collect="always">
   <feGaussianBlur inkscape:collect="always" stdDeviation="2.3062615"/>
  </filter>
  <linearGradient id="linearGradient4283" x1="111.61" x2="135.32" y1="472.05" y2="472.05" gradientTransform="matrix(.73873 0 0 .73873 -66.202 -448.09)" gradientUnits="userSpaceOnUse" inkscape:collect="always" xlink:href="#linearGradient3806"/>
  <linearGradient id="linearGradient4285" x1="111.61" x2="135.32" y1="472.05" y2="472.05" gradientTransform="matrix(0 -.73873 .73873 0 -322.92 -9.8794)" gradientUnits="userSpaceOnUse" inkscape:collect="always" xlink:href="#linearGradient3806"/>
  <linearGradient id="linearGradient1917" x1="16.696" x2="34.21" y1="-159.95" y2="-159.95" gradientTransform="translate(-.44871 -1.5798)" gradientUnits="userSpaceOnUse" inkscape:collect="always" xlink:href="#linearGradient1915"/>
  <linearGradient id="linearGradient1917-2" x1="16.696" x2="34.21" y1="-159.95" y2="-159.95" gradientTransform="translate(75.68 248.12)" gradientUnits="userSpaceOnUse" inkscape:collect="always" xlink:href="#linearGradient1915"/>
  <linearGradient id="linearGradient1917-2-2" x1="16.696" x2="34.21" y1="-159.95" y2="-159.95" gradientTransform="translate(75.633 124.04)" gradientUnits="userSpaceOnUse" inkscape:collect="always" xlink:href="#linearGradient1915"/>
  <linearGradient id="linearGradient1917-3" x1="16.696" x2="34.21" y1="-159.95" y2="-159.95" gradientTransform="translate(-.44877 123.79)" gradientUnits="userSpaceOnUse" inkscape:collect="always" xlink:href="#linearGradient1915"/>
  <filter id="filter5055" x="-.29806" y="-1.0622" width="1.5961" height="3.1243" color-interpolation-filters="sRGB" inkscape:collect="always">
   <feGaussianBlur inkscape:collect="always" stdDeviation="2.7149017"/>
  </filter>
  <filter id="filter5055-0" x="-.29806" y="-1.0622" width="1.5961" height="3.1243" color-interpolation-filters="sRGB" inkscape:collect="always">
   <feGaussianBlur inkscape:collect="always" stdDeviation="2.7149017"/>
  </filter>
  <filter id="filter5178" x="-1.739" y="-.075556" width="4.4781" height="1.1511" color-interpolation-filters="sRGB" inkscape:collect="always">
   <feGaussianBlur inkscape:collect="always" stdDeviation="0.39306888"/>
  </filter>
  <filter id="filter5178-5" x="-1.739" y="-.075556" width="4.4781" height="1.1511" color-interpolation-filters="sRGB" inkscape:collect="always">
   <feGaussianBlur inkscape:collect="always" stdDeviation="0.39306888"/>
  </filter>
  <filter id="filter5178-8" x="-1.739" y="-.075556" width="4.4781" height="1.1511" color-interpolation-filters="sRGB" inkscape:collect="always">
   <feGaussianBlur inkscape:collect="always" stdDeviation="0.39306888"/>
  </filter>
  <filter id="filter5178-4" x="-1.739" y="-.075556" width="4.4781" height="1.1511" color-interpolation-filters="sRGB" inkscape:collect="always">
   <feGaussianBlur inkscape:collect="always" stdDeviation="0.39306888"/>
  </filter>
  <filter id="filter5178-7" x="-1.739" y="-.075556" width="4.4781" height="1.1511" color-interpolation-filters="sRGB" inkscape:collect="always">
   <feGaussianBlur inkscape:collect="always" stdDeviation="0.39306888"/>
  </filter>
  <filter id="filter5178-1" x="-1.739" y="-.075556" width="4.4781" height="1.1511" color-interpolation-filters="sRGB" inkscape:collect="always">
   <feGaussianBlur inkscape:collect="always" stdDeviation="0.39306888"/>
  </filter>
  <filter id="filter5178-1-9" x="-1.739" y="-.075556" width="4.4781" height="1.1511" color-interpolation-filters="sRGB" inkscape:collect="always">
   <feGaussianBlur inkscape:collect="always" stdDeviation="0.39306888"/>
  </filter>
  <filter id="filter5178-1-9-88" x="-1.739" y="-.075556" width="4.4781" height="1.1511" color-interpolation-filters="sRGB" inkscape:collect="always">
   <feGaussianBlur inkscape:collect="always" stdDeviation="0.39306888"/>
  </filter>
  <filter id="filter5619" x="-.30721" y="-.22294" width="1.6144" height="1.4459" color-interpolation-filters="sRGB" inkscape:collect="always">
   <feGaussianBlur inkscape:collect="always" stdDeviation="0.68422507"/>
  </filter>
  <filter id="filter6349" x="-.89711" y="-.65102" width="2.7942" height="2.302" color-interpolation-filters="sRGB" inkscape:collect="always">
   <feGaussianBlur inkscape:collect="always" stdDeviation="1.9980471"/>
  </filter>
  <filter id="filter6353" x="-.89711" y="-.65102" width="2.7942" height="2.302" color-interpolation-filters="sRGB" inkscape:collect="always">
   <feGaussianBlur inkscape:collect="always" stdDeviation="1.9980471"/>
  </filter>
  <filter id="filter6361" x="-.89711" y="-.65102" width="2.7942" height="2.302" color-interpolation-filters="sRGB" inkscape:collect="always">
   <feGaussianBlur inkscape:collect="always" stdDeviation="1.9980471"/>
  </filter>
  <filter id="filter6369" x="-.89711" y="-.65102" width="2.7942" height="2.302" color-interpolation-filters="sRGB" inkscape:collect="always">
   <feGaussianBlur inkscape:collect="always" stdDeviation="1.9980471"/>
  </filter>
  <filter id="filter6373" x="-.89711" y="-.65102" width="2.7942" height="2.302" color-interpolation-filters="sRGB" inkscape:collect="always">
   <feGaussianBlur inkscape:collect="always" stdDeviation="1.9980471"/>
  </filter>
  <filter id="filter6377" x="-.89711" y="-.65102" width="2.7942" height="2.302" color-interpolation-filters="sRGB" inkscape:collect="always">
   <feGaussianBlur inkscape:collect="always" stdDeviation="1.9980471"/>
  </filter>
  <filter id="filter6381" x="-.89711" y="-.65102" width="2.7942" height="2.302" color-interpolation-filters="sRGB" inkscape:collect="always">
   <feGaussianBlur inkscape:collect="always" stdDeviation="1.9980471"/>
  </filter>
  <filter id="filter9269" x="-.98447" y="-.71442" width="2.9689" height="2.4288" color-interpolation-filters="sRGB" inkscape:collect="always">
   <feGaussianBlur inkscape:collect="always" stdDeviation="2.1926254"/>
  </filter>
  <filter id="filter9273" x="-.98447" y="-.71442" width="2.9689" height="2.4288" color-interpolation-filters="sRGB" inkscape:collect="always">
   <feGaussianBlur inkscape:collect="always" stdDeviation="2.1926254"/>
  </filter>
  <filter id="filter9277" x="-.98447" y="-.71442" width="2.9689" height="2.4288" color-interpolation-filters="sRGB" inkscape:collect="always">
   <feGaussianBlur inkscape:collect="always" stdDeviation="2.1926254"/>
  </filter>
  <filter id="filter9281" x="-.98447" y="-.71442" width="2.9689" height="2.4288" color-interpolation-filters="sRGB" inkscape:collect="always">
   <feGaussianBlur inkscape:collect="always" stdDeviation="2.1926254"/>
  </filter>
  <filter id="filter9285" x="-.98447" y="-.71442" width="2.9689" height="2.4288" color-interpolation-filters="sRGB" inkscape:collect="always">
   <feGaussianBlur inkscape:collect="always" stdDeviation="2.1926254"/>
  </filter>
  <filter id="filter9289" x="-.98447" y="-.71442" width="2.9689" height="2.4288" color-interpolation-filters="sRGB" inkscape:collect="always">
   <feGaussianBlur inkscape:collect="always" stdDeviation="2.1926254"/>
  </filter>
  <filter id="filter9293" x="-.98447" y="-.71442" width="2.9689" height="2.4288" color-interpolation-filters="sRGB" inkscape:collect="always">
   <feGaussianBlur inkscape:collect="always" stdDeviation="2.1926254"/>
  </filter>
  <filter id="filter9297" x="-.98447" y="-.71442" width="2.9689" height="2.4288" color-interpolation-filters="sRGB" inkscape:collect="always">
   <feGaussianBlur inkscape:collect="always" stdDeviation="2.1926254"/>
  </filter>
  <filter id="filter9301" x="-.98447" y="-.71442" width="2.9689" height="2.4288" color-interpolation-filters="sRGB" inkscape:collect="always">
   <feGaussianBlur inkscape:collect="always" stdDeviation="2.1926254"/>
  </filter>
  <filter id="filter9305" x="-.98447" y="-.71442" width="2.9689" height="2.4288" color-interpolation-filters="sRGB" inkscape:collect="always">
   <feGaussianBlur inkscape:collect="always" stdDeviation="2.1926254"/>
  </filter>
  <filter id="filter9309" x="-.98447" y="-.71442" width="2.9689" height="2.4288" color-interpolation-filters="sRGB" inkscape:collect="always">
   <feGaussianBlur inkscape:collect="always" stdDeviation="2.1926254"/>
  </filter>
  <filter id="filter9313" x="-.98447" y="-.71442" width="2.9689" height="2.4288" color-interpolation-filters="sRGB" inkscape:collect="always">
   <feGaussianBlur inkscape:collect="always" stdDeviation="2.1926254"/>
  </filter>
  <filter id="filter9317" x="-.98447" y="-.71442" width="2.9689" height="2.4288" color-interpolation-filters="sRGB" inkscape:collect="always">
   <feGaussianBlur inkscape:collect="always" stdDeviation="2.1926254"/>
  </filter>
  <filter id="filter9321" x="-.98447" y="-.71442" width="2.9689" height="2.4288" color-interpolation-filters="sRGB" inkscape:collect="always">
   <feGaussianBlur inkscape:collect="always" stdDeviation="2.1926254"/>
  </filter>
  <filter id="filter9325" x="-.98447" y="-.71442" width="2.9689" height="2.4288" color-interpolation-filters="sRGB" inkscape:collect="always">
   <feGaussianBlur inkscape:collect="always" stdDeviation="2.1926254"/>
  </filter>
  <filter id="filter9329" x="-.98447" y="-.71442" width="2.9689" height="2.4288" color-interpolation-filters="sRGB" inkscape:collect="always">
   <feGaussianBlur inkscape:collect="always" stdDeviation="2.1926254"/>
  </filter>
  <filter id="filter9333" x="-.98447" y="-.71442" width="2.9689" height="2.4288" color-interpolation-filters="sRGB" inkscape:collect="always">
   <feGaussianBlur inkscape:collect="always" stdDeviation="2.1926254"/>
  </filter>
  <filter id="filter9337" x="-.98447" y="-.71442" width="2.9689" height="2.4288" color-interpolation-filters="sRGB" inkscape:collect="always">
   <feGaussianBlur inkscape:collect="always" stdDeviation="2.1926254"/>
  </filter>
  <filter id="filter9341" x="-.98447" y="-.71442" width="2.9689" height="2.4288" color-interpolation-filters="sRGB" inkscape:collect="always">
   <feGaussianBlur inkscape:collect="always" stdDeviation="2.1926254"/>
  </filter>
  <filter id="filter9345" x="-.98447" y="-.71442" width="2.9689" height="2.4288" color-interpolation-filters="sRGB" inkscape:collect="always">
   <feGaussianBlur inkscape:collect="always" stdDeviation="2.1926254"/>
  </filter>
  <filter id="filter9349" x="-.98447" y="-.71442" width="2.9689" height="2.4288" color-interpolation-filters="sRGB" inkscape:collect="always">
   <feGaussianBlur inkscape:collect="always" stdDeviation="2.1926254"/>
  </filter>
  <filter id="filter9353" x="-.98447" y="-.71442" width="2.9689" height="2.4288" color-interpolation-filters="sRGB" inkscape:collect="always">
   <feGaussianBlur inkscape:collect="always" stdDeviation="2.1926254"/>
  </filter>
  <filter id="filter9357" x="-.98447" y="-.71442" width="2.9689" height="2.4288" color-interpolation-filters="sRGB" inkscape:collect="always">
   <feGaussianBlur inkscape:collect="always" stdDeviation="2.1926254"/>
  </filter>
  <filter id="filter9361" x="-.98447" y="-.71442" width="2.9689" height="2.4288" color-interpolation-filters="sRGB" inkscape:collect="always">
   <feGaussianBlur inkscape:collect="always" stdDeviation="2.1926254"/>
  </filter>
  <filter id="filter9365" x="-.98447" y="-.71442" width="2.9689" height="2.4288" color-interpolation-filters="sRGB" inkscape:collect="always">
   <feGaussianBlur inkscape:collect="always" stdDeviation="2.1926254"/>
  </filter>
  <filter id="filter9369" x="-.98447" y="-.71442" width="2.9689" height="2.4288" color-interpolation-filters="sRGB" inkscape:collect="always">
   <feGaussianBlur inkscape:collect="always" stdDeviation="2.1926254"/>
  </filter>
  <filter id="filter9373" x="-.98447" y="-.71442" width="2.9689" height="2.4288" color-interpolation-filters="sRGB" inkscape:collect="always">
   <feGaussianBlur inkscape:collect="always" stdDeviation="2.1926254"/>
  </filter>
  <filter id="filter9377" x="-.98447" y="-.71442" width="2.9689" height="2.4288" color-interpolation-filters="sRGB" inkscape:collect="always">
   <feGaussianBlur inkscape:collect="always" stdDeviation="2.1926254"/>
  </filter>
  <filter id="filter9381" x="-.98447" y="-.71442" width="2.9689" height="2.4288" color-interpolation-filters="sRGB" inkscape:collect="always">
   <feGaussianBlur inkscape:collect="always" stdDeviation="2.1926254"/>
  </filter>
  <filter id="filter9385" x="-.98447" y="-.71442" width="2.9689" height="2.4288" color-interpolation-filters="sRGB" inkscape:collect="always">
   <feGaussianBlur inkscape:collect="always" stdDeviation="2.1926254"/>
  </filter>
  <filter id="filter9389" x="-.98447" y="-.71442" width="2.9689" height="2.4288" color-interpolation-filters="sRGB" inkscape:collect="always">
   <feGaussianBlur inkscape:collect="always" stdDeviation="2.1926254"/>
  </filter>
  <filter id="filter9393" x="-.98447" y="-.71442" width="2.9689" height="2.4288" color-interpolation-filters="sRGB" inkscape:collect="always">
   <feGaussianBlur inkscape:collect="always" stdDeviation="2.1926254"/>
  </filter>
  <filter id="filter9397" x="-.75155" y="-.54539" width="2.5031" height="2.0908" color-interpolation-filters="sRGB" inkscape:collect="always">
   <feGaussianBlur inkscape:collect="always" stdDeviation="1.6738644"/>
  </filter>
  <filter id="filter9401" x="-.75155" y="-.54539" width="2.5031" height="2.0908" color-interpolation-filters="sRGB" inkscape:collect="always">
   <feGaussianBlur inkscape:collect="always" stdDeviation="1.6738644"/>
  </filter>
  <filter id="filter9405" x="-.98447" y="-.71442" width="2.9689" height="2.4288" color-interpolation-filters="sRGB" inkscape:collect="always">
   <feGaussianBlur inkscape:collect="always" stdDeviation="2.1926254"/>
  </filter>
  <filter id="filter9409" x="-.75155" y="-.54539" width="2.5031" height="2.0908" color-interpolation-filters="sRGB" inkscape:collect="always">
   <feGaussianBlur inkscape:collect="always" stdDeviation="1.6738644"/>
  </filter>
  <filter id="filter9477" x="-.080188" y="-.058191" width="1.1604" height="1.1164" color-interpolation-filters="sRGB" inkscape:collect="always">
   <feGaussianBlur inkscape:collect="always" stdDeviation="0.17859581"/>
  </filter>
 </defs>
 <sodipodi:namedview id="base" bordercolor="#666666" borderopacity="1.0" inkscape:bbox-nodes="true" inkscape:current-layer="layer1" inkscape:cx="549.60025" inkscape:cy="187.15687" inkscape:document-rotation="0" inkscape:document-units="mm" inkscape:object-paths="true" inkscape:pageopacity="0.0" inkscape:pageshadow="2" inkscape:snap-bbox="true" inkscape:snap-global="false" inkscape:snap-intersection-paths="false" inkscape:snap-midpoints="false" inkscape:snap-smooth-nodes="false" inkscape:window-height="1017" inkscape:window-maximized="1" inkscape:window-width="1920" inkscape:window-x="-8" inkscape:window-y="-8" inkscape:zoom="0.35" pagecolor="#ffffff" showgrid="false"/>
 <metadata>
  <rdf:RDF>
   <cc:Work rdf:about="">
    <dc:format>image/svg+xml</dc:format>
    <dc:type rdf:resource="http://purl.org/dc/dcmitype/StillImage"/>
    <dc:title/>
   </cc:Work>
  </rdf:RDF>
 </metadata>
 <g transform="translate(324.86 -82.535)" inkscape:groupmode="layer" inkscape:label="Layer 1">
  <g transform="translate(-70.258 362.6)">
   <g transform="translate(-177.57 -77.863)">
    <circle cx="25.794" cy="-99.373" r="94.726" fill="none" stroke="#dc2941" stroke-linecap="round" stroke-linejoin="round" stroke-width="16.179"/>
    <circle transform="rotate(-78.152)" cx="102.55" cy="4.8422" r="94.726" fill="none" stroke="url(#linearGradient2975)" stroke-linecap="round" stroke-linejoin="round" stroke-width="16.179"/>
    <path transform="matrix(1.0057 0 0 1.0036 -79.04 -269.04)" d="m101.45 265.63c3.3328-0.82551 5.9474-2.6399 9.4657-2.9724 2.6341-0.24896 5.2958 0.19382 7.9374 0.0431 6.8405-0.39024-0.5945-0.38121 2.6478-0.3636 0.12599 8e-4 0.50396 3e-3 0.37797 2e-3 -5.6996-0.031-10.901 0.89223-16.633 0.28762-1.772-0.18692-3.5564-0.36257-5.2875-0.78468-0.93221-0.22732-1.7649-0.75383-2.6396-1.1483-0.3632-0.16379-1.1297-0.78254-1.1319-0.38413-7.94e-4 0.12599 0.25198 1e-3 0.37797 2e-3 0.88193 5e-3 1.7639 0.01 2.6458 0.0144 1.1339 6e-3 2.2678 0.0123 3.4017 0.0185l14.363 0.078c0.88193 5e-3 1.7639 0.01 2.6458 0.0144 0.25198 1e-3 0.75457 0.25609 0.75594 4e-3 5.3e-4 -0.08-12.837 0.0347-13.985-0.076-1.0342-0.0997-2.0188-0.49356-3.0197-0.77237-0.38381-0.10691-0.74586-0.2854-1.1319-0.38413-0.12206-0.0312-0.50396-3e-3 -0.37797-2e-3 6.8035 0.037 13.607 0.0739 20.41 0.11089 1.7639 0.01 3.5277 0.0191 5.2916 0.0287 0.50396 3e-3 1.0079 5e-3 1.5119 8e-3 0.12599 8e-4 0.37729 0.12804 0.37797 2e-3 3e-3 -0.51758-10.485 2.0379-7.5676 1.4708 5.8918-1.1451 11.928-1.9874 17.783-3.3052 1.1661-0.26243 2.2531-0.8072 3.4079-1.1154 0.36519-0.0975 1.5119 8e-3 1.1339 6e-3 -5.4176-0.0294-10.835-0.0589-16.253-0.0883-1.0079-5e-3 -2.0158-0.0109-3.0238-0.0164-0.25198-1e-3 -0.90822 0.19666-0.75594-4e-3 1.982-2.613 1.7098-0.96257 5.306-2.617 2.6126-1.202 5.0028-2.8445 7.582-4.1166 3.6608-1.8056 8.2847-2.9476 11.746-5.2279 0.43379-0.2858-1.067 0.10491-1.5139 0.36976-1.2542 0.74329-8.2094 4.9806-8.7262 6.0003-0.25472 0.50259 0.98542-0.55805 1.516-0.74773 0.97832-0.34974 2.0531-0.38 3.0279-0.73951 4.983-1.8378 10.01-3.6181 14.774-5.9674 0.113-0.0557-0.26074-0.0482-0.37797-2e-3 -0.52428 0.20641-1.0278 0.46646-1.516 0.74772-12.347 7.6238 4.9199-2.824-5.686 2.993-0.71882 0.39425-1.3582 1.7195-0.7621 1.1298 0.20028-0.19812 0.14236-0.60587 0.38207-0.75389 0.81643-0.50411 1.8223-0.63753 2.652-1.1195 14.332-8.3262-6.8017 2.7894 7.962-4.4925 0.911-0.44933 1.7634-1.009 2.654-1.4975 0.24701-0.13548 0.75952-0.65558 0.75799-0.37386-2e-3 0.36995-1.8405 1.4498-1.8981 1.5016-1.0599 0.95311-1.9032 2.1476-3.0402 3.0073-1.0347 0.78236-2.3171 1.1759-3.412 1.8714-0.68097 0.43256-1.2755 0.98853-1.8981 1.5016-0.1375 0.11332-0.5067 0.50122-0.38003 0.37592 2.2212-2.1972 4.8779-3.3573 7.5861-4.8726 2.4139-1.3506 4.8573-2.6543 7.204-4.1187 0.10689-0.0667 0.0725-0.48242 2e-3 -0.37797-0.63018 0.93424-1.1041 1.9715-1.5283 3.0156-0.0474 0.11673-0.0916 0.46658-2e-3 0.37797 5.0578-5.0031 9.0918-11.61 13.323-17.315 0.10539-0.14208 7.2313-9.1306 7.2389-10.544 2e-3 -0.28172-0.55771 0.17574-0.758 0.37386-1.3992 1.384-2.5876 2.9682-3.8043 4.5151-0.38946 0.49515-0.51218 1.5091-1.1421 1.5057-0.12599-7.9e-4 -0.0805-0.28276 2e-3 -0.37797 0.70014-0.80791 1.6945-1.3611 2.2801-2.2555 1.3884-2.1204 7.2621-14.802 7.2718-16.592 2e-3 -0.39841-0.22034 0.76866-0.38413 1.1319-0.39446 0.8747-0.78709 1.7507-1.1483 2.6396-0.66058 1.6258-1.2044 3.2995-1.9165 4.9034-0.18434 0.41519-0.55674 0.7246-0.7621 1.1298-0.057 0.11238-3e-3 0.50396-2e-3 0.37797 0.0403-7.415 1.3369-13.38 3.5126-20.392 2.7917-8.997 0.41791 3.4041 0.73746 3.4058 0.12599 8e-4 -0.0428-0.26024 2e-3 -0.37797 0.34179-0.89659 0.75383-1.7649 1.1483-2.6396 1.8574-4.1187 3.7446-8.086 4.9814-12.446 0.2835-0.99953 0.88136-4.0529 0.77237-3.0197-0.47185 4.4729-0.38891 2.0117-0.40672 5.2895l-6e-3 1.1339c0.0182-3.3412 3.5857-16.928 3.8803-18.5 0.11605-0.61917 7e-3 -1.2599 0.0103-1.8898 8e-4 -0.12599 3e-3 -0.50396 2e-3 -0.37797-7e-3 1.2186 0.43466 6.7593-1.175 7.5532-0.45198 0.22293-0.021-1.0088 8e-3 -1.5119 0.10983-1.8909 0.3257-3.7752 0.40877-5.6675 0.16536-3.7663 0.0411-7.5674 0.0616-11.339 8e-4 -0.12599-1e-3 0.25198-2e-3 0.37797-0.0147 2.6987-0.4064 5.2301-0.42109 7.9353-3e-3 0.62995-7e-3 1.2599-0.0103 1.8898-1e-3 0.25198-0.25608 0.75457-4e-3 0.75594 0.55987 3e-3 -0.98542-11.378-1.0682-12.101-0.13301-1.1617-0.33916-10.207-1.0785-10.211-0.42197-2e-3 -1.4968 6.3779-1.5509 7.1732-0.0683 1.0056-0.0109 2.0158-0.0164 3.0238-7.9e-4 0.12599-3e-3 0.50396-2e-3 0.37797 0.0195-3.578 0.41407-7.4079 0.0596-10.961-0.11532-1.1558-0.40973-2.2914-0.73746-3.4058-0.0503-0.17094-0.29537-0.53896-0.37592-0.38002-0.25081 0.49488 0.14257 9.8283-0.0534 9.8272-1.0519-6e-3 -0.99187-1.2354-1.1236-1.896-0.87971-4.4102-1.6316-8.8461-2.5739-13.243-0.40987-1.9125-1.0005-3.7818-1.4811-5.6778-0.38291-1.5107-0.7671-3.0214-1.1093-4.5418-0.0277-0.12291 3e-3 -0.50396 2e-3 -0.37797-0.0233 4.2837-0.0465 8.5673-0.0698 12.851-3e-3 0.50396 0.26906 1.9327-8e-3 1.5119-2.6394-4.0061-3.8126-9.1923-5.5956-13.638-1.3241-3.3013-2.7679-6.5535-4.1043-9.8498-0.25492-0.62878-0.53462-1.2491-0.74567-1.894-0.0784-0.23948 0.25608-0.75457 4e-3 -0.75594-0.12599-7.9e-4 -1e-3 0.25198-2e-3 0.37797-0.0122 2.2508 1.8877 4.2094 1.1195 2.652-2.0194-4.0942-4.8235-6.8752-7.8819-10.248-0.76795-0.84695-10.523-11.019-11.28-11.023-0.45427-0.0025 0.37317 0.88398 0.74978 1.138 0.36799 0.24823 4.5158 2.2999 4.1433 2.6684-0.44786 0.44302-0.9673-0.81508-1.5057-1.1421-0.21537-0.13082-0.52249 0.09075-0.75594-0.0041-0.94764-0.38504-2.0264-1.6538-3.0135-1.9063-0.61031-0.15611-1.2795 0.14584-1.8898-0.01027-0.44011-0.11257-0.72461-0.55674-1.1298-0.7621-0.85588-0.43377-1.746-0.79898-2.6396-1.1483-4.1148-1.6083-8.1776-3.6754-12.446-4.9814-2.8144-0.86102-5.8337-0.88476-8.6851-1.5591-2.7734-0.6559-5.4858-1.4494-8.3051-1.935-2.8681-0.49405-5.1117-1.8692-7.923-2.6889-10.643-3.1036 3.9589 1.7223-6.7932-1.9268-1.7131-0.5814-3.3949-1.2688-3.3976-0.77442-5.3e-4 0.08045 12.177 1.9561 13.219 1.9617 1.0079 0.0055 2.0158 0.01095 3.0238 0.01643 0.37797 0.0021 1.5119 0.0082 1.1339 0.0062-3.2089-0.01743 0.50239 0.16113-6.0352-2.3007-1.7168-0.64647-3.4909-1.1502-5.2834-1.5406-4.736-1.0315-9.5303-1.8374-14.351-2.3459-1.3783-0.14539-2.7718-0.01506-4.1577-0.02259-0.50396-0.0027-1.0079-0.0055-1.5119-0.0082-0.12599-6.88e-4 -0.50396-0.0027-0.37797-0.0021 0.3752 2e-3 8.2816 2.9489 6.785 3.4387-4.565 1.4942-1.6193 0.08817-6.8096 1.097-1.1808 0.22949-7.5444 2.3199-8.3297 2.6006-1.2778 0.4568-2.5148 1.0218-3.7879 1.4913-0.74762 0.27573-1.5305 0.4517-2.2719 0.74362-6.7433 2.6549 8.0654 0.53846 9.0795-1.4626 0.02655-0.05239-1.9239 0.5201-4.5418 1.1093-5.8599 1.3188 0.80192-1.0448-5.6798 1.8591-0.3636 0.1629-0.74892 0.27728-1.136 0.37181-0.12239 0.02989-0.37728-0.12804-0.37797-0.0021-0.0037 0.67848 1.3274-0.37239 1.894-0.74568 0.10521-0.06932-0.25244-0.01278-0.37797-0.0021-1.2616 0.10778-2.5226 0.22445-3.7818 0.35744-6.0184 0.63563 0.06434-0.11008-6.4337 1.477-0.86546 0.21138-1.7931 0.11224-2.6478 0.3636-0.43582 0.12817-0.71533 0.58336-1.138 0.74978-0.23447 0.09231-0.51646-0.08249-0.75594-0.0041-1.1891 0.38922-3.3054 2.2493-4.1741 3.0012-0.67364 0.58301-1.1562 1.3894-1.9001 1.8796-3.867 2.5478-7.9351 5.5024-11.386 8.6317-3.9447 3.5767-6.0019 7.273-8.757 11.67-2.1135 3.373-4.654 6.9394-6.483 10.548-1.2208 2.4089-2.2091 3.7026-3.3476 6.1717-0.30763 0.66715-1.066 2.6092-1.3523 3.2858-0.72977 1.725-3.7538 3.7661-4.4589 5.5014-0.19555 0.48127-2.6534 3.4352-2.1339 3.4381-5.1414 4.0815 2.2851-2.4446 2.2858-2.5706 0.0082-1.5119 2.6411-3.0301 2.8977-4.52 0.27054-1.5706 1.1139-2.9908 1.5365-4.5274 0.47843-1.7393 0.79927-3.5185 1.1627-5.2854 0.49461-2.4051 0.38828-1.8952 0.40056-4.1556 6.88e-4 -0.12599 0.0027-0.50396 0.0021-0.37797-0.0014 0.25198 0.09641 0.52488-0.0041 0.75595-0.76717 1.7635-2.0985 3.2261-3.0505 4.8972-0.80381 1.411-1.7916 4.4038-3.0546 5.6531-0.08957 0.0886-0.02595-0.25513 0.0021-0.37797 0.23089-1.013 0.34526-2.0726 0.77237-3.0197 0.60403-1.3394 1.6843-2.428 2.2884-3.7674 1.9825-4.396 3.3786-9.0342 4.9875-13.58 0.17332-0.48971 0.15134-1.0465 0.38618-1.5098 0.11391-0.22477 0.06465 0.51351-0.0041 0.75594-0.57631 2.0319-1.1496 4.0718-1.9227 6.0373-0.76342 1.9408-1.8812 3.7273-2.6766 5.6552-0.8663 2.0997-1.4477 4.3089-2.3027 6.4132-0.67905 1.6712-1.6617 3.212-2.2945 4.9013-0.32176 0.85895 0.14691 2.6467-0.77032 2.6417-0.53258-3e-3 1.1475-5.5908 1.1647-5.6634 0.17638-0.7458 0.27779-1.5077 0.39029-2.2658 0.01849-0.12463 0.0027-0.50396 0.0021-0.37797-0.01914 3.5232-1.8409 6.6294-3.0772 9.8108-2.6475 6.813-5.0808 13.684-8.0483 20.367-2.4148 5.4388 0.97172-4.9089 1.1647-5.6634 0.09366-0.36618 0.38413-1.1318 0.0062-1.1339-0.12599-7.9e-4 0.01004 0.25256-0.0021 0.37797-0.12148 1.2604-0.16523 2.5331-0.3985 3.7777-0.28711 1.5318-0.59121 3.078-1.1586 4.5295-2.9514 7.551-2.3992 2.721-4.2111 9.8046-0.12488 0.48825-0.00547 1.0079-0.00821 1.5119-6.879e-4 0.12599-0.12804 0.37729-0.00206 0.37797 0.12599 8e-4 -0.033217-0.25701 0.00206-0.37797 0.47973-1.6452 0.94937-3.2962 1.5386-4.9054 0.97348-2.6587 1.918-5.3332 3.0669-7.921 0.41219-0.92839 1.0671-1.7315 1.5263-2.6376 0.05696-0.11238 0.0027-0.50396 0.0021-0.37797l-0.11088 20.41c-0.0055 1.0079-0.01095 2.0158-0.01643 3.0238-0.0034 0.62995-0.0068 1.2599-0.01027 1.8898-6.88e-4 0.12599-0.12804 0.37729-0.0021 0.37797 0.20629 1e-3 0.43724-4.8075 1.1627-5.2854 1.2261-0.8078 0.73864 3.1896 0.72514 5.6737-0.02439 4.49-0.17364 7.2785 0.31432 11.719 0.27845 2.534 0.73383 4.0746 0.72103 6.4296-6.88e-4 0.12599 0.0014-0.25198 0.0021-0.37797 0.01811-3.333 0.20188-2.8466-0.34717-5.6716-0.09911-0.50994-0.27065-1.004-0.36976-1.5139-0.02404-0.12368-0.0098-0.5034 0.0021-0.37797 0.3454 3.6544 0.24536 4.7214 1.0887 8.3215 0.41842 1.7861 1.0949 3.5069 1.4831 5.2998 0.84364 3.8962 0.84484 8.5457 2.9581 12.111 0.1927 0.32517 0.0041-0.75594 0.0062-1.1339 0.04453-8.1972 0.27688-0.34123-0.35128-4.9157-0.06856-0.49928-0.17014-1.9832 0.0082-1.5119 1.9031 5.0294 3.4046 10.578 6.3434 15.154 1.4424 2.2457 3.7625 4.1836 5.6367 6.0783 0.13989 0.14141-2.8273-3.7952-2.6253-3.7941 0.35635 2e-3 0.55578 0.46247 0.75184 0.76005 3.5125 5.3313 7.0626 10.334 11.257 15.18 0.64395 0.74407 1.1125 1.6592 1.8775 2.2781 0.64156 0.51899-1.4981-6.0369-2.2391-5.3039-0.12668 0.12531 0.25827 0.24621 0.37592 0.38003 0.88434 1.0058 1.5827 2.2025 2.6294 3.0381 1.5702 1.2535 13.272 6.8758 15.082 6.8856 0.28172 2e-3 -0.52553-0.21708-0.75389-0.38208-1.0212-0.73787-1.8184-1.8793-3.0114-2.2842-0.59654-0.20245 0.61973 1.1428 1.1257 1.518 1.4594 1.0825 2.9386 2.152 4.5192 3.0484 3.1452 1.7838 6.4756 2.8584 9.8046 4.2111 2.0087 0.81619 3.2199 1.3262 3.0156 1.5283-0.71832 0.71056-2.6895-1.5788-2.6376-1.5262 4.2761 4.3228 12.816 4.5273 18.112 5.7681 5.2711 1.235 2.2175 1.146 4.5295 1.1586 0.37797 2e-3 -0.76369 0.07-1.1339-6e-3 -1.4071-0.28937-2.7509-0.83725-4.1515-1.1565-0.12284-0.028-0.49035-0.059-0.37797-2e-3 0.85588 0.43377 1.7573 0.77113 2.6396 1.1483 3.8223 1.6339 6.0609 2.6734 10.185 3.8351 2.8544 0.80413 5.8361 1.1069 8.6831 1.9371 0.72573 0.21162-1.5119-8e-3 -2.2678-0.0123-1.1398-6e-3 1.0738 0.0496-2.2699 0.36565-3.1614 0.29881-6.2442-0.0339-9.4493-0.0513-0.62995-3e-3 -1.2599-7e-3 -1.8899-0.0103-0.12599-7.9e-4 -0.49035-0.059-0.37797-2e-3 0.35539 0.18012 0.75457 0.25609 1.1319 0.38413 3.9043 1.325 8.04 2.2589 12.079 3.0895 0.44496 0.0915-0.46793-0.78176-0.74978-1.138-1.0146-1.2825-1.1879-1.1706-2.6355-1.9042-3.8708-1.9618-7.819-3.1649-11.69-4.9773-1.9928-0.93292-3.965-1.9273-6.0332-2.6786-0.97652-0.35475-2.0431-0.41762-3.0197-0.77237-1.5378-0.77938-2.5456-1.3688-4.1474-1.9124-3.0656-1.0404 0.14492 0.44426-3.3956-1.1524-0.77046-0.34745-1.4503-0.90963-2.2617-1.1462-0.61675-0.17985-1.2852-0.16541-1.8878-0.38824-1.545-0.57136-2.9566-1.7608-4.5233-2.2925-3.6893-1.2521-7.3188-2.5848-10.939-4.2172-4.1311-1.863-9.0994-4.0402-12.054-7.6251-0.96205-1.1673-2.3331-2.8196-3.0012-4.1741-0.59154-1.1993-0.69003-2.5717-1.4913-3.7879-1.2496-1.8967-0.3184 0.62824-1.8796-1.9001-0.35647-0.5773-0.44554-1.2855-0.74568-1.894-0.39546-0.80178-1.4512-1.9689-1.8755-2.6561-1.4478-2.3447-2.6653-4.8503-4.1187-7.204-0.12911-0.20909-1.4135-2.3612-1.8796-1.9001-0.60193 0.59543 0.74983 5.4849-0.40056 4.1556-3.5626-4.1164-4.711-8.8566-5.9716-14.018-0.47042-1.9261-1.114-3.6785-1.1031-5.6757 2.91e-4 -0.0519-1.1479 6.4404-1.9207 5.6593-1.067-1.0787-1.0057-2.3669-1.4913-3.7879-1.8853-5.5166-4.4703-10.808-5.2012-16.659-0.24987-2.0003 0.0219-4.0317 0.03285-6.0475 0.0041-0.75594 0.0082-1.5119 0.01232-2.2678 0.0014-0.25198 0.0055-1.0079 0.0041-0.75595-0.0068 1.2568 0.54103 3.6002-0.40261 4.5336-0.54485 0.53896-0.27473-1.5089-0.36565-2.2699-0.85259-7.1354-0.89464-1.1596-0.70871-8.6974 0.12431-5.0397 0.13674-10.086 0.4601-15.117 0.056267-0.87538 2.3054-12.147 1.5345-4.1495-0.06164 0.63947-0.22904 1.2654-0.38824 1.8878-0.03122 0.12206 0.0014-0.25198 0.0021-0.37797 0.0041-0.75594-0.03617-1.5134 0.01232-2.2678 0.15126-2.3532 0.73435-7.3576 1.1852-9.4431 0.95763-4.4293 3.5144-15.161 5.7763-19.624 0.0127-0.0251 0.36786 2.2699-0.39029 2.2658-0.10211-5.3e-4 3.8098-6.7719 3.8167-6.7829 2.1548-3.4834 4.5955-7.0314 7.2369-10.166 1.1014-1.3072 1.6954-1.3011 2.6581-2.2534 1.4581-1.4424 2.6315-3.1709 4.1823-4.5131 2.2592-1.9552 8.7678-5.6247 11-7.1219 1.5696-1.0527 2.9508-2.3766 4.5541-3.3771 0.07241-0.04518 3.2701-1.1839 3.79-1.8693 0.15228-0.20076 0.0027-0.50396 0.0041-0.75594 1.012-0.75047 1.9595-1.5969 3.0361-2.2514 5.0502-3.0701 11.994-4.4539 17.793-5.1951 0.74985-0.09584 1.5119 0.0082 2.2678 0.01232 0.50396 0.0027-1.5091-0.51217-1.5119-0.0082-7.94e-4 0.12599 0.25198 0.0014 0.37797 0.0021 1.3859 0.0075 2.7718 0.01506 4.1577 0.02259l20.41 0.11088c2.7718 0.01506 5.5436 0.03012 8.3154 0.04517 1.1339 0.0062 2.2678 0.01232 3.4017 0.01848 0.37797 0.0021 0.86519 0.27197 1.1339 0.0062 0.47209-0.46699-3.9408-1.0236-3.0176-1.1503 2.8709-0.39422 5.7956 0.03148 8.6933 0.04723 4.7648 0.02589 9.3862-0.12931 13.979 1.2099 0.90281 0.26326-3.6488-1.8241-3.3915-1.9083 1.8673-0.61119 12.945 2.512 15.1 3.4839 1.7283 0.77942-0.70967 1.7268-0.39029 2.2658 0.53261 0.89871 3.0877 3.9 3.3792 4.1762 2.4708 2.3417 5.206 4.3909 7.9025 6.4686 1.2182 0.93868 2.6409 1.6171 3.7653 2.6663 0.0978 0.09125 1.5236 1.8548 1.1195 2.652-0.11391 0.22476-0.75457-0.25609-0.75594-0.0041-4e-3 0.80673 1.2544 1.0148 1.8816 1.5222 1.2544 1.0148 1.9244 2.5964 3.0032 3.7961 0.30374 0.33778 0.81033 0.43914 1.1298 0.7621 1.2391 1.2526 2.2908 2.8005 3.3792 4.1762 2.3567 2.9789 0.13564-3.5581 2.2802-2.2555 2.0508 1.2457 3.7735 3.1107 5.6449 4.5664 0.71712 0.55785 1.6207 0.87829 2.2596 1.5242 1.1324 1.1448 2.3526 3.8985 1.4954 3.032-0.4542-0.45916-0.61485-3.2405 0.38824-1.8878 1.6781 2.263 2.4103 5.0955 3.7386 7.5799 1.6506 3.0871 3.4778 6.0766 5.2423 9.1 0.7406 1.269 1.7222 2.4198 2.2473 3.792 0.51051 1.3341 0.27451 6.9866-0.77647 3.7756-0.62864-1.9206 0.55721-1.6422 1.1298 0.7621 0.98329 4.5411 1.9666 9.0822 2.9498 13.623 0.61831 2.1453 1.3252 4.2669 1.855 6.4358 0.20315 0.83178 0.67426 5.5351 0.72308 6.0516 0.0119 0.12543-3e-3 0.50396-2e-3 0.37797 6e-3 -1.1339 0.0123-2.2678 0.0185-3.4017 9e-3 -1.6379-0.18528-3.2895 0.0267-4.9136 0.24726-1.8944 0.75485 0.20439 0.75389 0.38208-0.0336 6.1836-1.2712 12.015-1.6104 18.134-0.0628 1.1322-0.0123 2.2678-0.0185 3.4017-0.0344 6.3371 0.41398-6.6258 0.39029-2.2658-5e-3 0.88193-0.01 1.7639-0.0144 2.6458l-0.078 14.363c-7e-3 1.2599-0.0137 2.5198-0.0205 3.7797-5e-3 0.88193-0.01 1.7639-0.0144 2.6458-7.9e-4 0.12599-3e-3 0.50396-2e-3 0.37797 4e-3 -0.75594 8e-3 -1.5119 0.0123-2.2678 2e-3 -0.37797 0.38413-1.1319 6e-3 -1.1339-0.37797-2e-3 0.0195 0.7568-6e-3 1.1339-0.11137 1.639-0.11039 3.2954-0.40466 4.9116-0.0223 0.12238-4.888 9.801-4.967 9.8005-0.62995-3e-3 0.31919-2.4389 0.0103-1.8898-1.6651 2.9592-2.6808 5.0235-5.3306 7.1527-0.35489 0.28516-8.597 6.5718-8.7303 6.7562-0.53208 0.73643-1.0161 1.5064-1.5242 2.2596-0.63611 1.1305-1.1545 2.3358-1.9083 3.3915-1.5566 2.1799-3.4911 4.0658-5.3244 6.0188-0.73956 1.7305-2.5931 2.1892-3.7982 3.3812-0.0896 0.0886 0.0875 0.28937-2e-3 0.37797-0.12667 0.12531-0.50259-0.25472-0.37592-0.38002 0.66652-0.65931 1.151 0.96161 1.1278 1.1401-0.1965 1.5055-1.1641 2.5016-2.2863 3.3894-1.3075 1.0344-6.1705 3.7974-6.826 4.1207-0.641 0.31616-3.024 0.51068-3.7859 1.1134-2.9308 2.3186-6.6299 4.1313-10.234 5.2362-7.377 2.2614-15.712 0.1142-22.317 2.9026-0.28956 0.12224 0.84994 0.663 0.37181 1.136-0.32295 0.31947-0.73972 0.53133-1.138 0.74978-5.0574 2.7738-14.558 2.6593-20.045 2.159-1.9193-0.17503-3.7691-0.80965-5.6634-1.1647-1.1214-0.21018-2.3765-0.90112-3.3997-0.39645-0.32676 0.16117 0.02268 0.89126-1.5139 0.36976-5.6333-1.9118 1.9496-0.69509-6.0373-1.9227-2.1316-0.32763-4.2747-0.58393-6.4214-0.79084-0.28269-0.0273-2.8505-0.18781-3.0238-0.0164-0.48542 0.48018 0.98204 1.8952 0.74568 1.894-1.9459-0.0106-5.5805-3.238-7.1589-4.1967-0.57989-0.35224-1.2805-0.45949-1.8857-0.76621-1.7481-0.88598-12.07-4.7362-12.064-5.7353" fill="#de2941" filter="url(#filter3317)" sodipodi:nodetypes="cscccssscccccccssscccccsssccccssssssssccssssssscsssssscscscssccscsssscsccsssccsccscsccccsscsccssscsssscccsssccssssssssssssssssccccssscscssssssssssscsssscssssssssccssssccsscsssscssssccscsssccssssccssscccscsssscsscssscscsscsssscscssssssssccsccsscscccsssssscsssssssssssssssssssssccsssssscsscccsssssscsscccsscccsssssscssscsssssssssssssccscccscsccccccccccsccsscscscsssssssscssssscccssc"/>
   </g>
   <g transform="matrix(1.6087 .0092719 -.006284 1.0903 -192.62 -69.7)">
    <path d="m24.991-153 0.02612 107.25" fill="#de2941" stroke="#00c846" stroke-linecap="square" stroke-linejoin="round" stroke-width="17.483"/>
    <g fill="#1ede00">
     <path transform="matrix(.73873 0 0 .73873 2.9071 -459.36)" d="m27.472 436.19c0.03188 0.28822 0.07493 0.57376 0.09562 0.86464 0.0304 0.42749 0.03391 0.85897 0.05744 1.2876 0.08652 1.5764 0.17134 3.1534 0.28334 4.7256 0.10534 1.4786 0.23587 2.9522 0.35049 4.4289 0.17967 2.3148 0.35492 4.6306 0.53238 6.9459 0.08264 2.8396 0.15243 5.6803 0.24793 8.5189 0.40335 11.989 0.48556 9.4706 0.54689 21.982 0.0361 7.3658-0.05701 15.502-0.25902 22.873-0.09163 3.3434-0.24331 6.6818-0.36496 10.023-0.32481 6.9901-0.75622 13.981-1.4537 20.903-0.13413 1.331-0.30866 2.6503-0.46298 3.9755l3.8702-3.1429c-0.2753-7.594-0.55242-15.189-0.66618-22.795-0.05366-3.1969-0.1255-6.393-0.16098-9.5906-0.0693-6.2461-0.10134-16.482-0.02819-22.636 0.14881-12.518 0.23314-10.829 0.71327-23.022 0.11794-2.995 0.21411-5.9921 0.32116-8.9882 0.20101-2.627 0.40202-5.254 0.60303-7.8811 0.137-1.6841 0.28036-3.3669 0.41101-5.0523 0.63306-8.1669-0.11544 0.95674 0.39992-5.268 0.03915-0.47289 0.06607-0.94888 0.11791-1.4185 0.0384-0.34791 0.10164-0.68739 0.15246-1.0311l-5.307 4.2994z" filter="url(#filter3751-64)"/>
     <path transform="matrix(.73873 0 0 .73873 2.9071 -459.36)" d="m26.993 420.92c1.2544 3.9788 1.8215 8.4457 2.2985 12.811 0.83836 7.6728 0.8447 9.3769 1.3706 17.6 0.62199 11.945 0.7609 23.936 0.70587 35.918-0.01788 3.8921-0.07982 7.7832-0.1254 11.675-0.15332 13.092-0.08209 8.5141-0.37423 21.068-0.25003 9.2961-0.66227 18.596-1.5479 27.796-0.30036 3.1203-0.42946 3.9562-0.80325 6.8413-0.3905 2.5996-0.18531 1.4181-0.59194 3.5549l4.9062-3.8954c-0.0026-1.8832 3e-3 -0.84298-0.02258-3.1204-0.14274-10.744-0.3707-21.484-0.67959-32.218-0.30874-14.499-0.13659-5.1007-0.34259-20.476-0.05108-3.8126-0.12287-7.6245-0.16148-11.438-0.12366-12.213-0.09164-24.43 0.15746-36.639 0.0733-3.5155 0.14316-7.0312 0.21989-10.546 0.14336-6.5676 0.24642-8.7162 0.25456-14.854 0.0084-6.2943-0.06165-2.2449-0.0813-7.1322-2e-3 -0.48472 0.01425-0.9692 0.02136-1.4538l-5.2042 4.5094z" filter="url(#filter3755-8)"/>
     <path transform="matrix(.73873 0 0 .73873 2.9071 -459.36)" d="m27.603 435c0.13874 0.90846 0.30877 1.8058 0.41621 2.7254 0.82524 7.0627 1.0781 14.298 1.2515 21.465 0.19939 8.2407 0.16037 12.214 0.17698 20.511-0.0096 9.5906-0.26714 19.172-0.47522 28.754-0.14999 6.9071-0.13662 8.8395-0.37513 15.579-0.07677 2.1691-0.1854 4.335-0.27811 6.5025-0.23038 3.7862-0.33752 6.215-0.6994 9.8804-0.10942 1.1082-0.26314 2.2037-0.39472 3.3055l4.1336-3.3472c-0.09544-4.0358-0.20756-8.0705-0.28096-12.108-0.0113-0.62386-0.23997-13.258-0.24074-13.307-0.0415-2.6518-0.06581-5.3043-0.10717-7.9562-0.14619-9.3738-0.34179-18.747-0.2848-28.126 0.03038-3.5117 0.03815-7.0242 0.09114-10.535 0.09873-6.5422 0.27264-13.456 0.59349-19.99 0.23527-4.7913 0.54494-9.332 1.0336-14.05 0.11926-1.1513 0.29121-2.2865 0.43682-3.4298l-4.9972 4.1264z" filter="url(#filter3759-33)"/>
     <path transform="matrix(.73873 0 0 .73873 2.9071 -459.36)" d="m27.326 446.48c0.35431 2.6077 0.59028 5.2848 0.72497 7.9447 0.08237 1.6266 0.09842 3.2602 0.15977 4.8892 0.7955 21.123-0.35035-11.205 0.51425 13.548 0.24704 7.1026 0.46782 11.919 0.48634 19.125 0.0085 3.3125-0.07485 6.624-0.12116 9.9357-0.04383 3.1349-0.07727 6.2705-0.14926 9.4041-0.1608 6.9989-0.2763 8.7632-0.58215 15.452-0.10718 1.874-0.21436 3.7479-0.32154 5.6218l3.1703-2.6179c-0.09519-1.7068-0.19039-3.4137-0.28558-5.1205-0.2694-6.3796-0.36758-7.8405-0.48163-14.574-0.05198-3.0689-0.064-6.1392-0.08695-9.209-0.0244-3.2633-0.08517-6.527-0.05513-9.7901 0.06745-7.3239 0.33297-12.782 0.61744-20.036 1.028-26.129-0.33085 8.0152 0.60806-14.474 0.07206-1.7262 0.10229-3.4571 0.19348-5.1809 0.16276-3.0764 0.4288-6.1552 0.78233-9.1894l-5.1736 4.2721z" filter="url(#filter3763-9)"/>
     <path transform="matrix(.73873 0 0 .73873 2.9071 -459.36)" d="m27.28 447.4c0.04615 0.41732 0.09882 0.83288 0.13845 1.252 0.09207 0.97365 0.5594 6.6194 0.56255 6.6634 0.1526 2.129 0.31828 4.2573 0.40887 6.3956 0.10899 2.5729 0.12019 5.1542 0.18956 7.7308 0.08229 3.0562 0.17695 6.1115 0.26542 9.1673 0.10766 5.6748 0.32965 16.177 0.3375 21.715 0.0074 5.2275-0.16566 16.502-0.34821 21.835-0.10586 3.0922-0.29364 6.1757-0.44045 9.2636l1.6276-1.3383c-0.06282-2.916-0.15164-5.8309-0.18846-8.7482-0.02857-2.2634-0.09235-19.58-0.07433-21.487 0.05733-6.0655 0.36429-16.273 0.5339-22.434 0.12353-3.2304 0.249-6.4605 0.37058-9.691 0.10202-2.7108 0.15354-5.4276 0.30022-8.133 0.12988-2.3956 0.33074-4.78 0.52907-7.1632 0.13638-1.6387 0.53711-5.733 0.80504-7.7453 0.06761-0.5078 0.16577-1.0036 0.24866-1.5054l-5.266 4.2231z" filter="url(#filter3767-4)"/>
    </g>
    <path d="m24.991-153 0.02612 107.25" fill="none" stroke="url(#linearGradient4283)" stroke-linecap="square" stroke-width="17.483"/>
    <g>
     <rect x="16.248" y="-166.91" width="17.513" height="10.758" rx="4.2154" ry="5.3792" fill="#00c744"/>
     <rect x="16.248" y="-166.91" width="17.513" height="10.758" rx="4.2154" ry="5.3792" fill="url(#linearGradient1917)"/>
     <rect x="16.248" y="-41.539" width="17.513" height="10.758" rx="4.2154" ry="5.3792" fill="#00c744"/>
     <rect x="16.248" y="-41.539" width="17.513" height="10.758" rx="4.2154" ry="5.3792" fill="url(#linearGradient1917-3)"/>
    </g>
   </g>
   <g transform="matrix(1.0801 .0062254 -.0097108 1.6849 -180.98 -7.0428)">
    <path d="m-27.833-101.07 107.25-0.0261" fill="#de2941" stroke="#00c846" stroke-linecap="square" stroke-linejoin="round" stroke-width="17.483"/>
    <g fill="#1ede00">
     <path transform="matrix(0 -.73873 .73873 0 -334.19 -78.989)" d="m27.472 436.19c0.03188 0.28822 0.07493 0.57376 0.09562 0.86464 0.0304 0.42749 0.03391 0.85897 0.05744 1.2876 0.08652 1.5764 0.17134 3.1534 0.28334 4.7256 0.10534 1.4786 0.23587 2.9522 0.35049 4.4289 0.17967 2.3148 0.35492 4.6306 0.53238 6.9459 0.08264 2.8396 0.15243 5.6803 0.24793 8.5189 0.40335 11.989 0.48556 9.4706 0.54689 21.982 0.0361 7.3658-0.05701 15.502-0.25902 22.873-0.09163 3.3434-0.24331 6.6818-0.36496 10.023-0.32481 6.9901-0.75622 13.981-1.4537 20.903-0.13413 1.331-0.30866 2.6503-0.46298 3.9755l3.8702-3.1429c-0.2753-7.594-0.55242-15.189-0.66618-22.795-0.05366-3.1969-0.1255-6.393-0.16098-9.5906-0.0693-6.2461-0.10134-16.482-0.02819-22.636 0.14881-12.518 0.23314-10.829 0.71327-23.022 0.11794-2.995 0.21411-5.9921 0.32116-8.9882 0.20101-2.627 0.40202-5.254 0.60303-7.8811 0.137-1.6841 0.28036-3.3669 0.41101-5.0523 0.63306-8.1669-0.11544 0.95674 0.39992-5.268 0.03915-0.47289 0.06607-0.94888 0.11791-1.4185 0.0384-0.34791 0.10164-0.68739 0.15246-1.0311l-5.307 4.2994z" filter="url(#filter3751-6-0)"/>
     <path transform="matrix(0 -.73873 .73873 0 -334.19 -78.989)" d="m26.993 420.92c1.2544 3.9788 1.8215 8.4457 2.2985 12.811 0.83836 7.6728 0.8447 9.3769 1.3706 17.6 0.62199 11.945 0.7609 23.936 0.70587 35.918-0.01788 3.8921-0.07982 7.7832-0.1254 11.675-0.15332 13.092-0.08209 8.5141-0.37423 21.068-0.25003 9.2961-0.66227 18.596-1.5479 27.796-0.30036 3.1203-0.42946 3.9562-0.80325 6.8413-0.3905 2.5996-0.18531 1.4181-0.59194 3.5549l4.9062-3.8954c-0.0026-1.8832 3e-3 -0.84298-0.02258-3.1204-0.14274-10.744-0.3707-21.484-0.67959-32.218-0.30874-14.499-0.13659-5.1007-0.34259-20.476-0.05108-3.8126-0.12287-7.6245-0.16148-11.438-0.12366-12.213-0.09164-24.43 0.15746-36.639 0.0733-3.5155 0.14316-7.0312 0.21989-10.546 0.14336-6.5676 0.24642-8.7162 0.25456-14.854 0.0084-6.2943-0.06165-2.2449-0.0813-7.1322-2e-3 -0.48472 0.01425-0.9692 0.02136-1.4538l-5.2042 4.5094z" filter="url(#filter3755-4-1)"/>
     <path transform="matrix(0 -.73873 .73873 0 -334.19 -78.989)" d="m27.603 435c0.13874 0.90846 0.30877 1.8058 0.41621 2.7254 0.82524 7.0627 1.0781 14.298 1.2515 21.465 0.19939 8.2407 0.16037 12.214 0.17698 20.511-0.0096 9.5906-0.26714 19.172-0.47522 28.754-0.14999 6.9071-0.13662 8.8395-0.37513 15.579-0.07677 2.1691-0.1854 4.335-0.27811 6.5025-0.23038 3.7862-0.33752 6.215-0.6994 9.8804-0.10942 1.1082-0.26314 2.2037-0.39472 3.3055l4.1336-3.3472c-0.09544-4.0358-0.20756-8.0705-0.28096-12.108-0.0113-0.62386-0.23997-13.258-0.24074-13.307-0.0415-2.6518-0.06581-5.3043-0.10717-7.9562-0.14619-9.3738-0.34179-18.747-0.2848-28.126 0.03038-3.5117 0.03815-7.0242 0.09114-10.535 0.09873-6.5422 0.27264-13.456 0.59349-19.99 0.23527-4.7913 0.54494-9.332 1.0336-14.05 0.11926-1.1513 0.29121-2.2865 0.43682-3.4298l-4.9972 4.1264z" filter="url(#filter3759-3-0)"/>
     <path transform="matrix(0 -.73873 .73873 0 -334.19 -78.989)" d="m27.326 446.48c0.35431 2.6077 0.59028 5.2848 0.72497 7.9447 0.08237 1.6266 0.09842 3.2602 0.15977 4.8892 0.7955 21.123-0.35035-11.205 0.51425 13.548 0.24704 7.1026 0.46782 11.919 0.48634 19.125 0.0085 3.3125-0.07485 6.624-0.12116 9.9357-0.04383 3.1349-0.07727 6.2705-0.14926 9.4041-0.1608 6.9989-0.2763 8.7632-0.58215 15.452-0.10718 1.874-0.21436 3.7479-0.32154 5.6218l3.1703-2.6179c-0.09519-1.7068-0.19039-3.4137-0.28558-5.1205-0.2694-6.3796-0.36758-7.8405-0.48163-14.574-0.05198-3.0689-0.064-6.1392-0.08695-9.209-0.0244-3.2633-0.08517-6.527-0.05513-9.7901 0.06745-7.3239 0.33297-12.782 0.61744-20.036 1.028-26.129-0.33085 8.0152 0.60806-14.474 0.07206-1.7262 0.10229-3.4571 0.19348-5.1809 0.16276-3.0764 0.4288-6.1552 0.78233-9.1894l-5.1736 4.2721z" filter="url(#filter3763-6-8)"/>
     <path transform="matrix(0 -.73873 .73873 0 -334.19 -78.989)" d="m27.28 447.4c0.04615 0.41732 0.09882 0.83288 0.13845 1.252 0.09207 0.97365 0.5594 6.6194 0.56255 6.6634 0.1526 2.129 0.31828 4.2573 0.40887 6.3956 0.10899 2.5729 0.12019 5.1542 0.18956 7.7308 0.08229 3.0562 0.17695 6.1115 0.26542 9.1673 0.10766 5.6748 0.32965 16.177 0.3375 21.715 0.0074 5.2275-0.16566 16.502-0.34821 21.835-0.10586 3.0922-0.29364 6.1757-0.44045 9.2636l1.6276-1.3383c-0.06282-2.916-0.15164-5.8309-0.18846-8.7482-0.02857-2.2634-0.09235-19.58-0.07433-21.487 0.05733-6.0655 0.36429-16.273 0.5339-22.434 0.12353-3.2304 0.249-6.4605 0.37058-9.691 0.10202-2.7108 0.15354-5.4276 0.30022-8.133 0.12988-2.3956 0.33074-4.78 0.52907-7.1632 0.13638-1.6387 0.53711-5.733 0.80504-7.7453 0.06761-0.5078 0.16577-1.0036 0.24866-1.5054l-5.266 4.2231z" filter="url(#filter3767-1-8)"/>
    </g>
    <path d="m-27.833-101.07 107.25-0.0261" fill="none" stroke="url(#linearGradient4285)" stroke-linecap="square" stroke-linejoin="round" stroke-width="17.483"/>
    <g>
     <rect transform="rotate(90)" x="-109.89" y="-93.55" width="17.513" height="10.758" rx="4.2154" ry="5.3792" fill="#00c643"/>
     <rect transform="rotate(-90)" x="92.377" y="82.792" width="17.513" height="10.758" rx="4.2154" ry="5.3792" fill="url(#linearGradient1917-2)"/>
     <rect transform="rotate(90)" x="-109.84" y="30.529" width="17.513" height="10.758" rx="4.2154" ry="5.3792" fill="#00c643"/>
     <rect transform="rotate(-90)" x="92.329" y="-41.287" width="17.513" height="10.758" rx="4.2154" ry="5.3792" fill="url(#linearGradient1917-2-2)"/>
    </g>
   </g>
   <path d="m-164.18-188.81c2.0104-0.57755 4.0332-0.60265 6.051-0.61559 1.7808 0.015 3.5605 0.21116 5.3404 0.35636 0.7972 0.0536 1.5927 0.22643 2.3872 0.42282 0.3827 0.0629 0.76143 0.22254 1.1444 0.27076 0.50303 0.0527 1.0064 0.0488 1.5095 0.0854 0.37382 0.038 0.74799 0.0347 1.122 0.024 0.23675 0.0344 0.47581-0.0434 0.71207 0.03 0.0312 9e-3 0.32464 0.16054 0.34634 0.17132 0.34356 0.11801 0.68154 0.32377 1.0181 0.5561 0 0 2.2292-4.6485 2.2292-4.6485-0.33977-0.18211-0.67321-0.45364-1.0158-0.5872-0.17865-0.0988-0.36383-0.26207-0.5444-0.31556-0.18014-0.0533-0.36524 0.0437-0.54572 6e-3 -0.38059-9e-3 -0.76129-6e-3 -1.1418 0.024-0.49777 0.021-0.99588 0.012-1.4931-0.0689-0.38871-0.0839-0.77641-0.24919-1.1662-0.2444-0.85967 0.018-1.7192-0.027-2.5788-0.0407-1.8891 0.14346-3.778 0.33665-5.668 0.35636-1.8285-0.012-3.6667 0.0269-5.4852-0.61562 0 0-2.2212 4.8336-2.2212 4.8336z" fill="#0ec005" filter="url(#filter5055)"/>
   <path id="path4769-2" transform="rotate(-78.654 -154.86 -158.48)" d="m-162.92-160.35c2.0104-0.57755 4.0332-0.60265 6.051-0.61559 1.7808 0.015 3.5605 0.21116 5.3404 0.35636 0.7972 0.0536 1.5927 0.22643 2.3872 0.42282 0.3827 0.0629 0.76143 0.22254 1.1444 0.27076 0.50303 0.0527 1.0064 0.0488 1.5095 0.0854 0.37382 0.038 0.74799 0.0347 1.122 0.024 0.23675 0.0344 0.47581-0.0434 0.71207 0.03 0.0312 9e-3 0.32464 0.16054 0.34634 0.17132 0.34356 0.11801 0.68154 0.32377 1.0181 0.5561 0 0 2.2292-4.6485 2.2292-4.6485-0.33977-0.18211-0.67321-0.45364-1.0158-0.5872-0.17865-0.0988-0.36383-0.26207-0.5444-0.31556-0.18014-0.0533-0.36524 0.0437-0.54572 6e-3 -0.38059-9e-3 -0.76129-6e-3 -1.1418 0.024-0.49777 0.021-0.99588 0.012-1.4931-0.0689-0.38871-0.0839-0.77641-0.24919-1.1662-0.2444-0.85967 0.018-1.7192-0.027-2.5788-0.0407-1.8891 0.14346-3.778 0.33665-5.668 0.35636-1.8285-0.012-3.6667 0.0269-5.4852-0.61562 0 0-2.2212 4.8336-2.2212 4.8336z" fill="#0ec005" filter="url(#filter5055-0)"/>
   <use transform="translate(6.944 .94393)" width="100%" height="100%" inkscape:spray-origin="#path4769-2" xlink:href="#path4769-2"/>
   <use transform="translate(15.901 -2.637)" width="100%" height="100%" inkscape:spray-origin="#path4769-2" xlink:href="#path4769-2"/>
   <use transform="translate(10.535 -12.918)" width="100%" height="100%" inkscape:spray-origin="#path4769-2" xlink:href="#path4769-2"/>
   <use transform="translate(-.33364 -27.593)" width="100%" height="100%" inkscape:spray-origin="#path4769-2" xlink:href="#path4769-2"/>
   <use transform="translate(13.316 -29.582)" width="100%" height="100%" inkscape:spray-origin="#path4769-2" xlink:href="#path4769-2"/>
   <use transform="translate(11.779 -29.668)" width="100%" height="100%" inkscape:spray-origin="#path4769-2" xlink:href="#path4769-2"/>
   <use transform="translate(6.3585 -21.226)" width="100%" height="100%" inkscape:spray-origin="#path4769-2" xlink:href="#path4769-2"/>
   <use transform="translate(5.854 -6.6275)" width="100%" height="100%" inkscape:spray-origin="#path4769-2" xlink:href="#path4769-2"/>
   <g fill="#0ec005" stroke-width=".26458px">
    <g stroke="#00c744">
     <path transform="matrix(6.8936 0 0 2.8415 695.64 247.41)" d="m-122.24-154.47v2.2679 7.276 1.3229c0 0.12599-0.12599 0.37797 0 0.37797 0.063 0 0-0.12599 0-0.18899v-0.94493c0-1.2074 0.13885-2.3875 0.18899-3.5908 0.051-1.2232 0-2.461 0-3.6853 0-0.75595 0.0883-1.5171 0-2.2678-0.0233-0.19785-0.22361-0.37079-0.18899-0.56697 0.0661-0.3748 0.33584-0.68421 0.47247-1.0394 0.0226-0.0588 0-0.25199 0-0.18899v8.599 1.9844 0.47247c0 0.0315-0.0315 0.0945 0 0.0945s0-0.063 0-0.0945v-0.37797-0.75596" filter="url(#filter5178)"/>
     <path transform="matrix(6.8936 0 0 2.8415 695.71 263.34)" d="m-122.24-154.47v2.2679 7.276 1.3229c0 0.12599-0.12599 0.37797 0 0.37797 0.063 0 0-0.12599 0-0.18899v-0.94493c0-1.2074 0.13885-2.3875 0.18899-3.5908 0.051-1.2232 0-2.461 0-3.6853 0-0.75595 0.0883-1.5171 0-2.2678-0.0233-0.19785-0.22361-0.37079-0.18899-0.56697 0.0661-0.3748 0.33584-0.68421 0.47247-1.0394 0.0226-0.0588 0-0.25199 0-0.18899v8.599 1.9844 0.47247c0 0.0315-0.0315 0.0945 0 0.0945s0-0.063 0-0.0945v-0.37797-0.75596" filter="url(#filter5178-5)"/>
     <path transform="matrix(6.8936 0 0 2.8415 693.16 264)" d="m-122.24-154.47v2.2679 7.276 1.3229c0 0.12599-0.12599 0.37797 0 0.37797 0.063 0 0-0.12599 0-0.18899v-0.94493c0-1.2074 0.13885-2.3875 0.18899-3.5908 0.051-1.2232 0-2.461 0-3.6853 0-0.75595 0.0883-1.5171 0-2.2678-0.0233-0.19785-0.22361-0.37079-0.18899-0.56697 0.0661-0.3748 0.33584-0.68421 0.47247-1.0394 0.0226-0.0588 0-0.25199 0-0.18899v8.599 1.9844 0.47247c0 0.0315-0.0315 0.0945 0 0.0945s0-0.063 0-0.0945v-0.37797-0.75596" filter="url(#filter5178-8)"/>
     <path transform="matrix(6.8936 0 0 2.8415 696.28 268.44)" d="m-122.24-154.47v2.2679 7.276 1.3229c0 0.12599-0.12599 0.37797 0 0.37797 0.063 0 0-0.12599 0-0.18899v-0.94493c0-1.2074 0.13885-2.3875 0.18899-3.5908 0.051-1.2232 0-2.461 0-3.6853 0-0.75595 0.0883-1.5171 0-2.2678-0.0233-0.19785-0.22361-0.37079-0.18899-0.56697 0.0661-0.3748 0.33584-0.68421 0.47247-1.0394 0.0226-0.0588 0-0.25199 0-0.18899v8.599 1.9844 0.47247c0 0.0315-0.0315 0.0945 0 0.0945s0-0.063 0-0.0945v-0.37797-0.75596" filter="url(#filter5178-4)"/>
     <path transform="matrix(6.8936 0 0 2.8415 695.62 257.67)" d="m-122.24-154.47v2.2679 7.276 1.3229c0 0.12599-0.12599 0.37797 0 0.37797 0.063 0 0-0.12599 0-0.18899v-0.94493c0-1.2074 0.13885-2.3875 0.18899-3.5908 0.051-1.2232 0-2.461 0-3.6853 0-0.75595 0.0883-1.5171 0-2.2678-0.0233-0.19785-0.22361-0.37079-0.18899-0.56697 0.0661-0.3748 0.33584-0.68421 0.47247-1.0394 0.0226-0.0588 0-0.25199 0-0.18899v8.599 1.9844 0.47247c0 0.0315-0.0315 0.0945 0 0.0945s0-0.063 0-0.0945v-0.37797-0.75596" filter="url(#filter5178-7)"/>
    </g>
    <g stroke="#02a401">
     <path transform="matrix(6.865 -.62699 .25844 2.8297 717.15 185.73)" d="m-122.24-154.47v2.2679 7.276 1.3229c0 0.12599-0.12599 0.37797 0 0.37797 0.063 0 0-0.12599 0-0.18899v-0.94493c0-1.2074 0.13885-2.3875 0.18899-3.5908 0.051-1.2232 0-2.461 0-3.6853 0-0.75595 0.0883-1.5171 0-2.2678-0.0233-0.19785-0.22361-0.37079-0.18899-0.56697 0.0661-0.3748 0.33584-0.68421 0.47247-1.0394 0.0226-0.0588 0-0.25199 0-0.18899v8.599 1.9844 0.47247c0 0.0315-0.0315 0.0945 0 0.0945s0-0.063 0-0.0945v-0.37797-0.75596" filter="url(#filter5178-1)"/>
     <path transform="matrix(-6.878 .46348 -.19104 -2.8351 -1025.2 -561.89)" d="m-122.24-154.47v2.2679 7.276 1.3229c0 0.12599-0.12599 0.37797 0 0.37797 0.063 0 0-0.12599 0-0.18899v-0.94493c0-1.2074 0.13885-2.3875 0.18899-3.5908 0.051-1.2232 0-2.461 0-3.6853 0-0.75595 0.0883-1.5171 0-2.2678-0.0233-0.19785-0.22361-0.37079-0.18899-0.56697 0.0661-0.3748 0.33584-0.68421 0.47247-1.0394 0.0226-0.0588 0-0.25199 0-0.18899v8.599 1.9844 0.47247c0 0.0315-0.0315 0.0945 0 0.0945s0-0.063 0-0.0945v-0.37797-0.75596" filter="url(#filter5178-1-9)"/>
     <path transform="matrix(-6.8922 -.13659 .056303 -2.841 -976.38 -598.36)" d="m-122.24-154.47v2.2679 7.276 1.3229c0 0.12599-0.12599 0.37797 0 0.37797 0.063 0 0-0.12599 0-0.18899v-0.94493c0-1.2074 0.13885-2.3875 0.18899-3.5908 0.051-1.2232 0-2.461 0-3.6853 0-0.75595 0.0883-1.5171 0-2.2678-0.0233-0.19785-0.22361-0.37079-0.18899-0.56697 0.0661-0.3748 0.33584-0.68421 0.47247-1.0394 0.0226-0.0588 0-0.25199 0-0.18899v8.599 1.9844 0.47247c0 0.0315-0.0315 0.0945 0 0.0945s0-0.063 0-0.0945v-0.37797-0.75596" filter="url(#filter5178-1-9-88)"/>
    </g>
   </g>
   <path id="path5305" d="m-162.85-189.73c0.13072 0.926 0.0668 1.8734 0.0668 2.8063v1.9377 0.40091c0 0.0223-7e-3 0.088 0 0.0668 0.17872-0.53616 0.21282-1.2002 0.33409-1.7373 0.30223-1.3384 0.61818-2.6922 1.0023-4.009 0.0651-0.22323 0.13927-0.44384 0.20045-0.66817 6e-3 -0.0215-0.0223-0.0668 0-0.0668 0.2904 0 0.0668 0.57823 0.0668 0.86863v3.4077c0 0.42318-0.10263 0.85899 0 1.2695 5e-3 0.0216 0.063 0.0219 0.0668 0 0.0663-0.37544 0.0742-0.75931 0.13363-1.1359 0.2171-1.375 0.26418-1.4822 0.73499-2.8063 0.19126-0.5379 0.39889-1.0698 0.60136-1.6036 0.0425-0.11214 0.0488-0.24927 0.13363-0.33409 0.0352-0.0352 0.061 0.0842 0.0668 0.13364 0.0391 0.33253 0.057 0.66757 0.0668 1.0023 0.0249 0.84599 0 1.6927 0 2.5391v0.66817c0 0.0891-0.0797 0.30712 0 0.26727 0.38007-0.19003 0.48503-2.1096 0.53454-2.3386 0.14092-0.65176 0.61196-2.2578 1.0691-2.8063 0.057-0.0684 0 0.17817 0 0.26726v1.2695c0 0.95772-0.0342 1.916 0 2.8732 7e-3 0.20817-0.0597 0.83166 0.26727 0.66818" fill="none" filter="url(#filter5619)" stroke="#02a301" stroke-width=".26458px"/>
   <use transform="translate(-1.8799 1.0218)" width="100%" height="100%" inkscape:spray-origin="#path5305" xlink:href="#path5305"/>
   <use transform="translate(.15272 .20177)" width="100%" height="100%" inkscape:spray-origin="#path5305" xlink:href="#path5305"/>
   <use transform="translate(1.3326 1.1883)" width="100%" height="100%" inkscape:spray-origin="#path5305" xlink:href="#path5305"/>
   <use transform="translate(.15458 1.1596)" width="100%" height="100%" inkscape:spray-origin="#path5305" xlink:href="#path5305"/>
   <use transform="translate(.14612 .80047)" width="100%" height="100%" inkscape:spray-origin="#path5305" xlink:href="#path5305"/>
   <use transform="translate(1.4598 -1.7257)" width="100%" height="100%" inkscape:spray-origin="#path5305" xlink:href="#path5305"/>
   <use transform="translate(-1.7368 1.0651)" width="100%" height="100%" inkscape:spray-origin="#path5305" xlink:href="#path5305"/>
   <use transform="translate(.34211 -5.9699)" width="100%" height="100%" inkscape:spray-origin="#path5305" xlink:href="#path5305"/>
   <use transform="translate(.012396 -5.0056)" width="100%" height="100%" inkscape:spray-origin="#path5305" xlink:href="#path5305"/>
   <use transform="translate(1.9674 -2.5017)" width="100%" height="100%" inkscape:spray-origin="#path5305" xlink:href="#path5305"/>
   <use transform="translate(-1.0663 -14.716)" width="100%" height="100%" inkscape:spray-origin="#path5305" xlink:href="#path5305"/>
   <use transform="translate(-1.2928 -8.7779)" width="100%" height="100%" inkscape:spray-origin="#path5305" xlink:href="#path5305"/>
   <use transform="translate(-.65104 -6.4635)" width="100%" height="100%" inkscape:spray-origin="#path5305" xlink:href="#path5305"/>
   <use transform="translate(.41558 1.4615)" width="100%" height="100%" inkscape:spray-origin="#path5305" xlink:href="#path5305"/>
   <use transform="translate(-.35759 4.0117)" width="100%" height="100%" inkscape:spray-origin="#path5305" xlink:href="#path5305"/>
   <use transform="translate(-2.2083 6.6153)" width="100%" height="100%" inkscape:spray-origin="#path5305" xlink:href="#path5305"/>
   <use transform="translate(-3.5754 6.5129)" width="100%" height="100%" inkscape:spray-origin="#path5305" xlink:href="#path5305"/>
   <use transform="translate(-2.4864 5.8039)" width="100%" height="100%" inkscape:spray-origin="#path5305" xlink:href="#path5305"/>
   <use transform="translate(.52914 -2.0652)" width="100%" height="100%" inkscape:spray-origin="#path5305" xlink:href="#path5305"/>
   <use transform="translate(.51395 2.1519)" width="100%" height="100%" inkscape:spray-origin="#path5305" xlink:href="#path5305"/>
   <use transform="translate(-3.5608 3.8251)" width="100%" height="100%" inkscape:spray-origin="#path5305" xlink:href="#path5305"/>
   <use transform="translate(-6.7544 3.2358)" width="100%" height="100%" filter="url(#filter9269)" inkscape:spray-origin="#path5305" xlink:href="#path5305"/>
   <use transform="translate(-7.5456 4.2244)" width="100%" height="100%" filter="url(#filter9273)" inkscape:spray-origin="#path5305" xlink:href="#path5305"/>
   <use transform="translate(-5.215 3.0986)" width="100%" height="100%" filter="url(#filter9277)" inkscape:spray-origin="#path5305" xlink:href="#path5305"/>
   <use transform="translate(-7.6537 4.2212)" width="100%" height="100%" filter="url(#filter9281)" inkscape:spray-origin="#path5305" xlink:href="#path5305"/>
   <use transform="translate(-.13475 -6.0622)" width="100%" height="100%" inkscape:spray-origin="#path5305" xlink:href="#path5305"/>
   <use transform="translate(-1.0696 -4.4737)" width="100%" height="100%" inkscape:spray-origin="#path5305" xlink:href="#path5305"/>
   <use transform="translate(-1.9326 -3.7235)" width="100%" height="100%" inkscape:spray-origin="#path5305" xlink:href="#path5305"/>
   <use transform="translate(-2.151 .36504)" width="100%" height="100%" inkscape:spray-origin="#path5305" xlink:href="#path5305"/>
   <use transform="translate(-2.4193 .48244)" width="100%" height="100%" inkscape:spray-origin="#path5305" xlink:href="#path5305"/>
   <use transform="translate(-2.7441 4.1023)" width="100%" height="100%" inkscape:spray-origin="#path5305" xlink:href="#path5305"/>
   <use transform="translate(-4.4982 3.2591)" width="100%" height="100%" inkscape:spray-origin="#path5305" xlink:href="#path5305"/>
   <use transform="translate(-3.9129 3.4449)" width="100%" height="100%" inkscape:spray-origin="#path5305" xlink:href="#path5305"/>
   <use transform="matrix(.63865 0 0 1.0873 -59.258 12.938)" width="100%" height="100%" filter="url(#filter9477)" inkscape:spray-origin="#path5305" xlink:href="#path5305"/>
   <use transform="translate(-2.2362 3.9474)" width="100%" height="100%" inkscape:spray-origin="#path5305" xlink:href="#path5305"/>
   <use transform="translate(-4.498 3.5217)" width="100%" height="100%" inkscape:spray-origin="#path5305" xlink:href="#path5305"/>
   <use transform="translate(-7.3213 4.1755)" width="100%" height="100%" filter="url(#filter9285)" inkscape:spray-origin="#path5305" xlink:href="#path5305"/>
   <use transform="translate(-7.557 5.543)" width="100%" height="100%" filter="url(#filter9289)" inkscape:spray-origin="#path5305" xlink:href="#path5305"/>
   <use transform="translate(-9.396 3.6502)" width="100%" height="100%" filter="url(#filter9293)" inkscape:spray-origin="#path5305" xlink:href="#path5305"/>
   <use transform="matrix(1.888 0 0 .90882 129.12 -12.041)" width="100%" height="100%" filter="url(#filter6349)" inkscape:spray-origin="#path5305" xlink:href="#path5305"/>
   <use transform="translate(-11.501 1.4667)" width="100%" height="100%" filter="url(#filter9297)" inkscape:spray-origin="#path5305" xlink:href="#path5305"/>
   <use transform="translate(-6.5464 3.8943)" width="100%" height="100%" filter="url(#filter9301)" inkscape:spray-origin="#path5305" xlink:href="#path5305"/>
   <use transform="translate(-6.4504 3.9982)" width="100%" height="100%" filter="url(#filter9305)" inkscape:spray-origin="#path5305" xlink:href="#path5305"/>
   <use transform="translate(-2.1518 3.507)" width="100%" height="100%" inkscape:spray-origin="#path5305" xlink:href="#path5305"/>
   <use transform="translate(-.42802 4.3945)" width="100%" height="100%" inkscape:spray-origin="#path5305" xlink:href="#path5305"/>
   <use transform="translate(1.0785 4.1724)" width="100%" height="100%" inkscape:spray-origin="#path5305" xlink:href="#path5305"/>
   <use transform="translate(.93874 3.9114)" width="100%" height="100%" inkscape:spray-origin="#path5305" xlink:href="#path5305"/>
   <use transform="translate(-14.279 8.1269)" width="100%" height="100%" inkscape:spray-origin="#path5305" xlink:href="#path5305"/>
   <use transform="translate(-1.4997 -8.8454)" width="100%" height="100%" inkscape:spray-origin="#path5305" xlink:href="#path5305"/>
   <use transform="translate(-3.297 7.7006)" width="100%" height="100%" inkscape:spray-origin="#path5305" xlink:href="#path5305"/>
   <use transform="translate(-4.8289 7.5218)" width="100%" height="100%" inkscape:spray-origin="#path5305" xlink:href="#path5305"/>
   <use transform="translate(-9.4657 10.598)" width="100%" height="100%" filter="url(#filter9309)" inkscape:spray-origin="#path5305" xlink:href="#path5305"/>
   <use transform="translate(-14.041 9.6992)" width="100%" height="100%" filter="url(#filter9313)" inkscape:spray-origin="#path5305" xlink:href="#path5305"/>
   <use transform="translate(-16.443 8.0051)" width="100%" height="100%" filter="url(#filter9317)" inkscape:spray-origin="#path5305" xlink:href="#path5305"/>
   <use transform="translate(-22.187 11.453)" width="100%" height="100%" filter="url(#filter9321)" inkscape:spray-origin="#path5305" xlink:href="#path5305"/>
   <use transform="translate(-19.82 11.221)" width="100%" height="100%" filter="url(#filter9325)" inkscape:spray-origin="#path5305" xlink:href="#path5305"/>
   <use transform="translate(-23.766 9.9113)" width="100%" height="100%" filter="url(#filter9329)" inkscape:spray-origin="#path5305" xlink:href="#path5305"/>
   <use transform="translate(-3.9428 7.7418)" width="100%" height="100%" inkscape:spray-origin="#path5305" xlink:href="#path5305"/>
   <use transform="translate(-2.3403 7.5353)" width="100%" height="100%" inkscape:spray-origin="#path5305" xlink:href="#path5305"/>
   <use transform="translate(-.070967 7.8569)" width="100%" height="100%" inkscape:spray-origin="#path5305" xlink:href="#path5305"/>
   <use transform="translate(-7.6197 .92943)" width="100%" height="100%" inkscape:spray-origin="#path5305" xlink:href="#path5305"/>
   <use transform="translate(-1.2507 -1.3579)" width="100%" height="100%" inkscape:spray-origin="#path5305" xlink:href="#path5305"/>
   <use transform="translate(-3.863 7.6532)" width="100%" height="100%" inkscape:spray-origin="#path5305" xlink:href="#path5305"/>
   <use transform="translate(-6.7198 9.3898)" width="100%" height="100%" filter="url(#filter9333)" inkscape:spray-origin="#path5305" xlink:href="#path5305"/>
   <use transform="translate(-9.2272 8.9295)" width="100%" height="100%" filter="url(#filter9337)" inkscape:spray-origin="#path5305" xlink:href="#path5305"/>
   <use transform="translate(-11.717 11.826)" width="100%" height="100%" filter="url(#filter9341)" inkscape:spray-origin="#path5305" xlink:href="#path5305"/>
   <use transform="translate(-16.738 13.376)" width="100%" height="100%" filter="url(#filter9345)" inkscape:spray-origin="#path5305" xlink:href="#path5305"/>
   <use transform="translate(-22.246 13.357)" width="100%" height="100%" filter="url(#filter9349)" inkscape:spray-origin="#path5305" xlink:href="#path5305"/>
   <use transform="translate(-24.92 14.225)" width="100%" height="100%" filter="url(#filter9353)" inkscape:spray-origin="#path5305" xlink:href="#path5305"/>
   <use transform="translate(-27.363 15.626)" width="100%" height="100%" filter="url(#filter9357)" inkscape:spray-origin="#path5305" xlink:href="#path5305"/>
   <use transform="translate(-19.981 13.277)" width="100%" height="100%" filter="url(#filter9361)" inkscape:spray-origin="#path5305" xlink:href="#path5305"/>
   <use transform="translate(-19.026 15.126)" width="100%" height="100%" filter="url(#filter9365)" inkscape:spray-origin="#path5305" xlink:href="#path5305"/>
   <use transform="translate(-13.267 12.839)" width="100%" height="100%" filter="url(#filter9369)" inkscape:spray-origin="#path5305" xlink:href="#path5305"/>
   <use transform="translate(-10.886 12.531)" width="100%" height="100%" filter="url(#filter9373)" inkscape:spray-origin="#path5305" xlink:href="#path5305"/>
   <use transform="translate(-9.7181 14.141)" width="100%" height="100%" filter="url(#filter9377)" inkscape:spray-origin="#path5305" xlink:href="#path5305"/>
   <use transform="translate(1.3163 9.0651)" width="100%" height="100%" inkscape:spray-origin="#path5305" xlink:href="#path5305"/>
   <use transform="translate(-2.1096 1.5425)" width="100%" height="100%" inkscape:spray-origin="#path5305" xlink:href="#path5305"/>
   <use transform="translate(-.033611 10.52)" width="100%" height="100%" inkscape:spray-origin="#path5305" xlink:href="#path5305"/>
   <use transform="translate(-4.4825 11.326)" width="100%" height="100%" inkscape:spray-origin="#path5305" xlink:href="#path5305"/>
   <use transform="translate(-6.5739 12.506)" width="100%" height="100%" filter="url(#filter9381)" inkscape:spray-origin="#path5305" xlink:href="#path5305"/>
   <use transform="translate(-11.359 15.476)" width="100%" height="100%" filter="url(#filter9385)" inkscape:spray-origin="#path5305" xlink:href="#path5305"/>
   <use transform="translate(-17.855 13.468)" width="100%" height="100%" filter="url(#filter9389)" inkscape:spray-origin="#path5305" xlink:href="#path5305"/>
   <use transform="translate(-22.863 16.298)" width="100%" height="100%" filter="url(#filter9393)" inkscape:spray-origin="#path5305" xlink:href="#path5305"/>
   <use transform="matrix(1.888 0 0 .90882 119.31 -10.753)" width="100%" height="100%" filter="url(#filter6353)" inkscape:spray-origin="#path5305" xlink:href="#path5305"/>
   <use transform="matrix(1.888 0 0 .90882 126.64 -10.849)" width="100%" height="100%" filter="url(#filter9397)" inkscape:spray-origin="#path5305" xlink:href="#path5305"/>
   <use transform="translate(-2.4956 4.346)" width="100%" height="100%" inkscape:spray-origin="#path5305" xlink:href="#path5305"/>
   <use transform="translate(-5.7593 1.1799)" width="100%" height="100%" inkscape:spray-origin="#path5305" xlink:href="#path5305"/>
   <use transform="matrix(1.888 0 0 .90882 114.91 -13.579)" width="100%" height="100%" filter="url(#filter6361)" inkscape:spray-origin="#path5305" xlink:href="#path5305"/>
   <use transform="matrix(1.888 0 0 .90882 123.99 -13.874)" width="100%" height="100%" filter="url(#filter9401)" inkscape:spray-origin="#path5305" xlink:href="#path5305"/>
   <use transform="translate(-4.1823 1.9259)" width="100%" height="100%" inkscape:spray-origin="#path5305" xlink:href="#path5305"/>
   <use transform="translate(-1.5893 3.3854)" width="100%" height="100%" inkscape:spray-origin="#path5305" xlink:href="#path5305"/>
   <use transform="translate(.43938 3.6037)" width="100%" height="100%" inkscape:spray-origin="#path5305" xlink:href="#path5305"/>
   <use transform="matrix(1.888 0 0 .90882 116.33 -13.764)" width="100%" height="100%" filter="url(#filter6369)" inkscape:spray-origin="#path5305" xlink:href="#path5305"/>
   <use transform="matrix(1.888 0 0 .90882 119.66 -12.085)" width="100%" height="100%" filter="url(#filter6373)" inkscape:spray-origin="#path5305" xlink:href="#path5305"/>
   <use transform="matrix(1.888 0 0 .90882 129.17 -14.204)" width="100%" height="100%" filter="url(#filter6377)" inkscape:spray-origin="#path5305" xlink:href="#path5305"/>
   <use transform="translate(-7.3463 3.1794)" width="100%" height="100%" filter="url(#filter9405)" inkscape:spray-origin="#path5305" xlink:href="#path5305"/>
   <use transform="translate(-2.5821 -2.1639)" width="100%" height="100%" inkscape:spray-origin="#path5305" xlink:href="#path5305"/>
   <use transform="translate(.40425 3.4396)" width="100%" height="100%" inkscape:spray-origin="#path5305" xlink:href="#path5305"/>
   <use transform="matrix(1.888 0 0 .90882 120.39 -13.091)" width="100%" height="100%" filter="url(#filter6381)" inkscape:spray-origin="#path5305" xlink:href="#path5305"/>
   <use transform="matrix(1.888 0 0 .90882 124.56 -11.978)" width="100%" height="100%" filter="url(#filter9409)" inkscape:spray-origin="#path5305" xlink:href="#path5305"/>
   <use transform="translate(-9.2581 .90329)" width="100%" height="100%" inkscape:spray-origin="#path5305" xlink:href="#path5305"/>
   <use transform="translate(-12.626 .95884)" width="100%" height="100%" inkscape:spray-origin="#path5305" xlink:href="#path5305"/>
   <use transform="translate(-1.561 -2.5637)" width="100%" height="100%" inkscape:spray-origin="#path5305" xlink:href="#path5305"/>
  </g>
 </g>
</svg>
