<?xml version="1.0" encoding="UTF-8"?>
<svg width="631.08" height="566.1" inkscape:version="1.0 (4035a4fb49, 2020-05-01)" sodipodi:docname="BookieInColour.svg" version="1.1" viewBox="0 0 631.08 566.1" xmlns="http://www.w3.org/2000/svg" xmlns:cc="http://creativecommons.org/ns#" xmlns:dc="http://purl.org/dc/elements/1.1/" xmlns:inkscape="http://www.inkscape.org/namespaces/inkscape" xmlns:rdf="http://www.w3.org/1999/02/22-rdf-syntax-ns#" xmlns:sodipodi="http://sodipodi.sourceforge.net/DTD/sodipodi-0.dtd">
 <metadata>
  <rdf:RDF>
   <cc:Work rdf:about="">
    <dc:format>image/svg+xml</dc:format>
    <dc:type rdf:resource="http://purl.org/dc/dcmitype/StillImage"/>
    <dc:title/>
   </cc:Work>
  </rdf:RDF>
 </metadata>
 <defs>
  <filter id="filter3616" x="-.24375" y="-.33156" width="1.4875" height="1.6631" color-interpolation-filters="sRGB" inkscape:collect="always">
   <feGaussianBlur inkscape:collect="always" stdDeviation="6.5982684"/>
  </filter>
  <filter id="filter3792" x="-.030958" y="-.10678" width="1.0619" height="1.2136" color-interpolation-filters="sRGB" inkscape:collect="always">
   <feGaussianBlur inkscape:collect="always" stdDeviation="2.6198127"/>
  </filter>
  <filter id="filter3796" x="-.0282" y="-.16115" width="1.0564" height="1.3223" color-interpolation-filters="sRGB" inkscape:collect="always">
   <feGaussianBlur inkscape:collect="always" stdDeviation="1.7601371"/>
  </filter>
  <filter id="filter3800" x="-.026938" y="-.22005" width="1.0539" height="1.4401" color-interpolation-filters="sRGB" inkscape:collect="always">
   <feGaussianBlur inkscape:collect="always" stdDeviation="1.8233634"/>
  </filter>
  <filter id="filter3804" x="-.026151" y="-.29178" width="1.0523" height="1.5836" color-interpolation-filters="sRGB" inkscape:collect="always">
   <feGaussianBlur inkscape:collect="always" stdDeviation="2.0778196"/>
  </filter>
  <filter id="filter3808" x="-.025604" y="-.38318" width="1.0512" height="1.7664" color-interpolation-filters="sRGB" inkscape:collect="always">
   <feGaussianBlur inkscape:collect="always" stdDeviation="2.0694954"/>
  </filter>
  <filter id="filter3812" x="-.025657" y="-.37166" width="1.0513" height="1.7433" color-interpolation-filters="sRGB" inkscape:collect="always">
   <feGaussianBlur inkscape:collect="always" stdDeviation="2.6198734"/>
  </filter>
  <filter id="filter3816" x="-.027621" y="-.18309" width="1.0552" height="1.3662" color-interpolation-filters="sRGB" inkscape:collect="always">
   <feGaussianBlur inkscape:collect="always" stdDeviation="2.9140963"/>
  </filter>
  <filter id="filter3820" x="-.030143" y="-.11777" width="1.0603" height="1.2355" color-interpolation-filters="sRGB" inkscape:collect="always">
   <feGaussianBlur inkscape:collect="always" stdDeviation="2.4514675"/>
  </filter>
  <filter id="filter3824" x="-.029022" y="-.1387" width="1.058" height="1.2774" color-interpolation-filters="sRGB" inkscape:collect="always">
   <feGaussianBlur inkscape:collect="always" stdDeviation="2.4431114"/>
  </filter>
  <filter id="filter3828" x="-.031355" y="-.10232" width="1.0627" height="1.2046" color-interpolation-filters="sRGB" inkscape:collect="always">
   <feGaussianBlur inkscape:collect="always" stdDeviation="2.287112"/>
  </filter>
  <filter id="filter3832" x="-.033719" y="-.083265" width="1.0674" height="1.1665" color-interpolation-filters="sRGB" inkscape:collect="always">
   <feGaussianBlur inkscape:collect="always" stdDeviation="2.6335945"/>
  </filter>
  <filter id="filter3836" x="-.036968" y="-.068416" width="1.0739" height="1.1368" color-interpolation-filters="sRGB" inkscape:collect="always">
   <feGaussianBlur inkscape:collect="always" stdDeviation="2.6182507"/>
  </filter>
  <filter id="filter3934" x="-.070827" y="-.19147" width="1.1417" height="1.3829" color-interpolation-filters="sRGB" inkscape:collect="always">
   <feGaussianBlur inkscape:collect="always" stdDeviation="7.7893945"/>
  </filter>
  <filter id="filter3934-1" x="-.070827" y="-.19147" width="1.1417" height="1.3829" color-interpolation-filters="sRGB" inkscape:collect="always">
   <feGaussianBlur inkscape:collect="always" stdDeviation="7.7893945"/>
  </filter>
 </defs>
 <sodipodi:namedview bordercolor="#666666" borderopacity="1" gridtolerance="10" guidetolerance="10" inkscape:current-layer="g18" inkscape:cx="330.84394" inkscape:cy="407.50523" inkscape:document-rotation="0" inkscape:guide-bbox="true" inkscape:pageopacity="0" inkscape:pageshadow="2" inkscape:snap-smooth-nodes="true" inkscape:window-height="1040" inkscape:window-maximized="0" inkscape:window-width="1271" inkscape:window-x="-8" inkscape:window-y="2" inkscape:zoom="0.90509668" objecttolerance="10" pagecolor="#ffffff" showgrid="false" showguides="true">
  <sodipodi:guide orientation="1,0" position="-41874.077,-7351.813"/>
  <sodipodi:guide orientation="0,-1" position="-4066.8617,10065.98"/>
  <sodipodi:guide orientation="1,0" position="-1794.5657,-187.68416"/>
  <sodipodi:guide orientation="0,-1" position="-1584.7714,-1055.5302"/>
  <sodipodi:guide orientation="0,-1" position="662.91261,-92.397182"/>
 </sodipodi:namedview>
 <g transform="translate(.17647 -62.501)" inkscape:groupmode="layer" inkscape:label="Image">
  <text fill="#000000" font-family="sans-serif" font-size="40px" style="line-height:1.25;shape-inside:url(#rect4117);white-space:pre" xml:space="preserve"/>
  <g transform="matrix(.96042 -.014528 .014528 .96042 958.97 -806.05)" fill="#f24256">
   <path transform="matrix(.80853 0 0 .80853 -952.97 671.87)" d="m310.88 961.61c-10.798-1.6286-17.802-4.857-18.708-8.6238-1.3242-5.5016 6.4499-23.62 13.012-30.326 6.9612-7.1138 17.79-9.944 26.577-6.9459 8.9943 3.0689 19.257 16.995 24.085 32.683 2.0214 6.5677 1.6932 7.4332-3.6928 9.7391-7.9679 3.4112-29.611 5.2326-41.273 3.4736z" filter="url(#filter3616)" opacity=".57419"/>
   <path transform="matrix(-1.0282 -.074166 -.075149 1.0418 -67.756 418.31)" d="m282.69 1001.1c29.715-15.014 66.401-35.54 93.013-61.225 30.009 1.2845 40.162-12.022 92.012 5.312 33.457 20.339 58.207 41.932 78.92 64.105l-13.568 24.541z" filter="url(#filter3934-1)" sodipodi:nodetypes="cccccc"/>
   <path d="m-959.98 1416.2c29.715-15.014 66.401-35.54 93.013-61.225 30.009 1.2846 40.162-12.022 92.012 5.3121 33.457 20.339 58.207 41.932 78.92 64.105l-13.568 24.541z" filter="url(#filter3934)" sodipodi:nodetypes="cccccc"/>
   <g stroke="#000">
    <path d="m-714.57 1438.3c-3.6446 14.654 52.18 12.71 47.851 1.4864-2.7645-10.689-10.06-27.278-23.825-27.408-11.422 0.3822-19.457 7.46-24.026 25.922z" stroke-linejoin="round" stroke-width="4" sodipodi:nodetypes="cccc"/>
    <g>
     <path d="m-690.9 1453.9c80.195 0.6825 172.44-7.2219 252.67-10.523 16.524-0.9508 10.742-11.869-12.87-10.601-70.841 2.9942-197.98 17.829-215.63 6.9938 4.5985 6.2729-12.988 11.312-23.251 12.577-11.368-1.5546-24.877-5.2982-24.599-14.063 3.2116 11.49-170.14-31.269-235.88-28.234-4.9787 0.019-19.3 6.9758-7.2031 8.9546 78.186 10.914 183.11 30.526 266.76 34.896z" stroke-width="4" sodipodi:nodetypes="ccccccccc"/>
     <g stroke-width="3">
      <path d="m-666.72 1439.8c13.573-5.5236 16.998-13.106 57.33-13.201 39.111 0.6565 60.815 1.9012 93.475 0.6468 38.283-2.1917 46.811 1.5957 67.088 5.0909" stroke-linecap="round" sodipodi:nodetypes="cccc"/>
      <path d="m-666.72 1439.8c25.604-40.632 71.72-17.675 114.49-18.906 52.384-1.5995 96.725 0.2815 82.438 7.3654" sodipodi:nodetypes="ccc"/>
      <path d="m-476.33 1421.2c1.757-6.1558 18.306-4.9623-5.2603-9.8038-32.915-6.5815-41.334 7.2511-99.958-12.154-35.655-7.013-58.221 20.318-88.14 32.474-9.956-18.989 52.341-44.015 75.649-47.423 57.78-7.6292 103.17 23.497 114.53 17.271 7.2557-4.5821 16.239-12.988 4.9582-11.609-53.071 8.3876-77.399-31.554-124.98-12.086-36.205 16.999-56.628 21.526-79.068 39.748 27.812-36.247 50.757-60.93 143.69-52.914 50.876 5.3393 36.339 18.289 60.004-7.61-102.7-1.4288-157.7-23.564-210.1 56.026" stroke-linecap="round" sodipodi:nodetypes="cccccccccccc"/>
     </g>
    </g>
    <g stroke-width="3">
     <path d="m-714.57 1438.3c-11.904-8.5465-25.283-31.565-64.474-41.095-37.508-6.9933-41.746 3.669-79.207-6.3998-36.707-11.089-58.454-14.037-65.401-1.533" sodipodi:nodetypes="cccc"/>
     <path d="m-714.57 1438.3c-48.005-85.556-212.78-80.503-188.76-57.303" sodipodi:nodetypes="cc"/>
     <path d="m-710.67 1426.2c-10.698-15.388-13.974-34.617-61.587-58.845-54.391-20.938-105.81-1.298-115.39-10.009-5.982-6.1528-12.748-16.428-2.1039-12.447 55.067 11.133 82.634-12.567 124.34 17.496 34.616 24.354 44.069 30.857 61.615 53.825-27.641-54.948-57.307-82.72-141.73-78.024-20.666 2.2263-27.04-3.3811-23.129-18.975 151.31 19.625 124.59 15.528 175.04 94.599" sodipodi:nodetypes="ccccccccc"/>
    </g>
    <path d="m-903.33 1381c19.737 0.6651 36.009-1.8101 59.652 2.395 26.097 4.4714 42.097 8.8677 64.635 13.812" stroke-linecap="round" stroke-width="3" sodipodi:nodetypes="ccc"/>
    <path d="m-717.16 1437.4c-29.679-9.1261-50.537-23.563-89.036-27.378-49.684-0.5657-110.83-32.44-121.17-17.931-3.8655 5.968-8.976 6.7424-13.713 9.0732-14.773 10.573 34.889-10.793 129.45 17.644 34.999 11.221 64.698 12.952 97.047 19.428-67.907-10.565-122.29-25.821-208.31-33.213-13.542-0.9711-28.425 2.6049-30.247 5.2302" stroke-linecap="round" stroke-width="3" sodipodi:nodetypes="cccccccc"/>
   </g>
   <path d="m-704.23 1411.3c-0.66546-1.205-2.0851-3.84-3.1548-5.8554-6.4684-12.187-15.999-25.998-23.673-34.303-18.646-20.181-40.425-30.268-73.818-34.187-7.2909-0.8558-34.806-1.1247-43.221-0.4224-14.168 1.1824-19.784-1.7601-19.682-10.312 0.0235-1.9659 0.25363-3.9004 0.51147-4.299 0.39544-0.6114 3.6311-0.3107 20.675 1.9212 76.951 10.077 94.859 14.516 109.28 27.089 6.7018 5.8414 11.378 12.49 24.937 35.457 5.0173 8.4984 10.352 17.405 11.854 19.793 1.5024 2.3876 2.7245 4.5087 2.7158 4.7134-9e-3 0.2048-1.1861 0.8729-2.6164 1.4848l-2.6005 1.1124z" filter="url(#filter3836)" opacity=".57419"/>
   <path transform="matrix(.99784 0 0 .99784 -1014.2 494.11)" d="m334.61 921.02-1.6804-1.059 3.2984-4.6725c7.8172-11.074 18.501-22.669 27.02-29.326 16.5-12.892 33.092-19.265 57.76-22.186 9.3478-1.1069 42.506-0.7779 65.905 0.65399 9.2025 0.56316 22.554 1.2094 29.671 1.4361s14.402 0.55307 16.191 0.72523l3.2514 0.31302-4.3412 4.652c-4.727 5.0656-7.7096 7.1263-10.278 7.1014-0.9102-9e-3 -4.8328-0.87064-8.7169-1.9151-15.288-4.1112-27.712-5.8984-48.652-6.999-27.702-1.4559-50.932 0.71597-68.713 6.4244-21.309 6.8409-36.63 18.264-54.079 40.321-2.3612 2.9846-4.4419 5.4632-4.6239 5.5078-0.182 0.0447-1.0871-0.39532-2.0113-0.97775z" filter="url(#filter3792)" opacity=".57419"/>
   <path d="m-673.33 1419.9c-1.3946-1.9822-1.591-2.5708-1.0652-3.1918 1.5496-1.8308 15.281-10.211 22.716-13.863 8.3195-4.0869 11.918-5.0499 4.7431-1.2695-11.656 6.1419-20.097 13.083-24.148 19.859-0.46648 0.7802-0.75614 0.5822-2.2454-1.5345z" opacity=".57419"/>
   <path d="m-492.23 1399c-3.1424-0.8633-8.7503-2.5755-12.462-3.8049-29.77-9.8605-48.116-13.504-69.026-13.706-4.9705-0.048-11.599 0.1307-14.731 0.3975-6.6398 0.5659-18.02 3.1354-26.645 6.016-3.3377 1.1148-6.1661 1.9274-6.2853 1.8058-0.11921-0.1215 0.74068-0.5933 1.9109-1.0484s7.0046-2.9765 12.965-5.6032c15.222-6.7076 20.578-8.2304 30.666-8.718 10.603-0.5126 19.335 1.3444 40.34 8.579 15.228 5.2447 24.358 7.7467 32.414 8.8823 9.2852 1.3089 20.271 1.2159 29.804-0.2524 1.2058-0.1858 1.6932-0.06 1.6883 0.4352-8e-3 0.7791-3.2813 3.9618-6.7779 6.5893-3.2028 2.4067-6.3106 2.5028-13.861 0.4283z" filter="url(#filter3796)" opacity=".57419"/>
   <path d="m-482.02 1419.9c-9.1512-0.9504-36.987-1.4594-57.276-1.0474-23.691 0.4811-26.762 0.321-49.97-2.606-17.046-2.1498-33.328-2.8299-41.119-1.7175-2.8646 0.409-5.2688 0.6819-5.3427 0.6066-0.264-0.2692 11.221-6.4595 16.614-8.9548 10.164-4.7027 18.321-6.3658 28.94-5.9005 6.1098 0.2677 7.4882 0.5192 13.797 2.5175 12.975 4.1097 25.717 6.9787 36.895 8.3072 3.7732 0.4484 11.823 0.6013 26.035 0.4944 21.5-0.1618 25.399 0.1109 35.39 2.4746 5.6792 1.3435 5.5285 1.2304 3.466 2.6028-1.0025 0.6671-2.2646 1.7503-2.8047 2.4071-0.91371 1.1113-1.2348 1.1679-4.6238 0.816z" filter="url(#filter3800)" opacity=".57419"/>
   <path d="m-660.53 1434.4c6e-3 -0.6637 6.9199-6.9562 9.6294-8.7645 3.8701-2.5829 10.594-5.4476 15.518-6.6109 10.441-2.4671 21.083-2.2598 47.102 0.9178 20.581 2.5135 27.981 2.9137 45.291 2.4493 16.879-0.4529 56.077 0.2691 62.497 1.1511 6.6364 0.9117 10.659 1.7988 10.653 2.3494-3e-3 0.3285-1.813 0.3363-5.0779 0.022-7.559-0.7278-32.569-0.8473-51.165-0.2446-12.148 0.3938-26.08 0.3453-53.639-0.1867-39.125-0.7552-45.842-0.6056-57.565 1.2815-7.2312 1.1641-13.132 2.9975-18.908 5.8741-2.3871 1.189-4.3384 1.9817-4.3362 1.7616z" filter="url(#filter3804)" opacity=".57419"/>
   <path d="m-653.45 1440.6c-2.5156-0.267-5.3238-0.6891-6.2404-0.9379-1.6355-0.4441-1.5564-0.5064 4.2435-3.3436 14.551-7.1182 22.465-8.0421 63.715-7.439 41.471 0.6064 60.893 0.5677 80.724-0.1607 9.9349-0.3649 20.255-0.4701 23.959-0.244 7.7834 0.475 19.873 1.9458 20.422 2.4845 0.21575 0.2116-3.8895 0.6303-9.1228 0.9304-5.2333 0.3001-29.098 1.9791-53.032 3.7311-65.578 4.8005-87.969 5.9674-108.38 5.6481-6.4438-0.1009-13.774-0.4018-16.29-0.6689z" filter="url(#filter3808)" opacity=".57419"/>
   <path d="m-673.62 1450.7c4.4361-1.7929 7.67-3.7908 8.6696-5.3559 0.49152-0.7696 0.93828-1.4694 0.9928-1.5552 0.0545-0.086 2.7584 0.2827 6.0085 0.8189 4.7462 0.783 9.1384 1.0013 22.313 1.1088 23.387 0.1908 41.541-0.7492 105.25-5.4501 35.895-2.6485 65.84-4.6276 78.95-5.2179 8.7016-0.3918 16.482 0.863 19.067 3.0751 1.0269 0.8786 1.0881 1.1045 0.41733 1.5396-1.4584 0.946-5.9542 1.4683-16.684 1.9383-13.822 0.6054-34.345 1.6987-82.848 4.4134-65.19 3.6486-96.66 5.0042-123.22 5.3079-7.4481 0.085-15.418 0.2488-17.71 0.3637l-4.1683 0.2089z" filter="url(#filter3812)" opacity=".57419"/>
   <path d="m-666.16 1433.7c-0.38516-1.0564-0.27002-1.3963 0.64589-1.9072 1.2703-0.7086 2.4276-0.8321 2.3943-0.2556-0.0124 0.2147-0.59603 1.0784-1.297 1.9193l-1.2745 1.5289z" opacity=".57419"/>
   <path d="m-733.53 1418.4c-10.718-9.6209-25.444-17.535-40.226-21.618-8.676-2.3963-47.401-11.084-59.436-13.334-20.822-3.8926-20.647-3.877-46.198-4.1291-25.181-0.2485-24.3-0.1416-24.292-2.9472 7e-3 -2.5878 6.7911-5.5137 16.517-7.1238 7.5269-1.2461 33.88-0.9895 44.472 0.433 22.039 2.9599 41.049 7.7619 58.705 14.829 14.421 5.7723 31.332 15.526 41.673 24.035 4.8112 3.9589 13.696 12.511 13.69 13.176-9e-3 0.8928-0.82875 0.3375-4.9062-3.3226z" filter="url(#filter3828)" opacity=".57419"/>
   <path d="m-715.6 1414.7c-8.0301-13.643-15.688-22.484-27.026-31.198-8.2921-6.3734-22.49-14.954-29.814-18.018-7.6138-3.1856-21.128-6.5808-33.417-8.3956-10.166-1.5013-36.381-1.636-52.822-0.2716-14.426 1.1972-23.234 1.2422-25.82 0.1318-0.98278-0.4219-2.5454-1.6338-3.4725-2.6931-1.9628-2.2428-5.5375-7.4892-5.5314-8.1181 2e-3 -0.2375 0.70111-0.2246 1.5529 0.029 9.7471 2.8981 34.354 4.372 52.578 3.1493 28.185-1.8909 38.441-1.2644 51.239 3.1302 7.1604 2.4588 14.046 6.2565 24.568 13.55 30.979 21.476 41.878 30.757 54.241 46.189l3.2707 4.0829-1.3109 1.3834c-0.72098 0.7609-1.7259 2.0239-2.2332 2.8066-0.50727 0.7828-1.1153 1.4214-1.3511 1.4191-0.23584 0-2.3284-3.2317-4.6502-7.1765z" filter="url(#filter3832)" opacity=".57419"/>
   <path d="m-733.39 1429.8c-25.003-9.9085-29.557-11.649-35.651-13.628-13.678-4.442-25.367-6.7655-38.875-7.7273-19.687-1.4017-31.273-3.5583-59.523-11.079-32.707-8.7074-41.43-10.636-48.944-10.825l-2.7689-0.069 6.8016-3.2342 8.8522 0.1175c8.1009 0.1075 9.6242 0.2861 17.947 2.1039 5.002 1.0926 13.418 3.2225 18.702 4.7331 23.046 6.5879 29.054 7.2905 56.441 6.5998 11.044-0.2786 14.209-0.1809 20.825 0.6432 18.302 2.2793 34.685 8.9591 49.142 20.037 5.9565 4.5642 17.593 15.728 16.39 15.723-0.42964-1e-3 -4.6332-1.5292-9.3412-3.395z" filter="url(#filter3820)" opacity=".57419"/>
   <path d="m-745.9 1431.1c-25.224-4.3416-50.592-9.6498-61.3-12.827-27.411-8.1324-47.102-12.282-71.49-15.067-9.6358-1.1003-39.908-1.7274-53.37-1.1056l-7.0338 0.3249 4.2688-2.0376c3.3493-1.5987 4.9418-2.7689 7.3934-5.4328 3.6924-4.0122 5.5597-4.8114 11.19-4.789 6.0218 0.024 14.534 1.7668 33.706 6.9018 39.177 10.493 57.757 14.274 70.767 14.4 11.511 0.1117 31.162 4.2378 47.002 9.8689 6.1229 2.1768 27.259 10.533 27.65 10.931 0.35805 0.3651-0.66342 0.2292-8.7808-1.168z" filter="url(#filter3824)" opacity=".57419"/>
   <path d="m-844.72 1413.1c-0.30993-0.3042-25.552-3.9713-40.781-5.9245-12.841-1.6469-12.916-1.6635-5.9762-1.3267 12.574 0.61 35.616 3.8331 47.587 6.6565 2.6841 0.633 2.858 0.7402 1.2511 0.7705-1.0266 0.019-1.9632-0.06-2.0814-0.1758z" opacity=".57419"/>
   <path d="m-795.6 1427c-70.922-12.394-104.86-17.18-134.96-19.035-7.1023-0.4377-7.3626-0.4901-4.418-0.8908 14.411-1.961 95.993 8.9663 141.99 19.019 7.3807 1.613 13.047 2.7398 29.368 5.8402 0.95733 0.1818 0.81955 0.2467-0.52318 0.2463-1.0025-3e-4 -15.158-2.331-31.457-5.1793z" opacity=".57419"/>
   <path d="m-723.43 1449.3c-39.412-3.5932-73.138-8.0666-150.31-19.938-22.881-3.5194-50.026-7.6454-60.322-9.1689-10.297-1.5234-20.341-3.0445-22.321-3.3802l-3.6-0.6102 2.0554-1.2177c4.7092-2.7897 5.9143-2.9205 22.343-2.4248 29.085 0.8777 56.459 4.5905 139.62 18.936 49.176 8.4837 71.236 11.624 77.287 11.001 1.9658-0.2023 2.3058-0.073 3.0087 1.14 1.1585 1.9999 2.872 3.4961 6.0677 5.2981l2.834 1.598-2.3428-0.072c-1.2886-0.039-7.7282-0.5626-14.31-1.1627z" filter="url(#filter3816)" opacity=".57419"/>
  </g>
  <path d="m359.17 478.22c165.43-188.07 288.06-43.382 162.8-9.5143-46.315 11.276-81.308-22.139-158.6 10.962-4.688 1.8564-7.1623 1.9432-4.2004-1.4478z" fill="#f76172" sodipodi:nodetypes="cccc"/>
  <path d="m384.75 343.06c12.477-206.3 248.64-83.866 35.978 53.553-195.45 111.41-43.307 44.953-35.978-53.553z" fill="#fed8dd" sodipodi:nodetypes="ccc"/>
  <path d="m381.63 274.88c-42.484-313.38 145.67-212.83 93.925-102.71-20.096 39.259-67.699 19.789-90.193 102.04-1.4814 4.811-2.9535 6.3042-3.7323 0.66597z" fill="#c5182c" sodipodi:nodetypes="cccc"/>
  <path d="m333.37 424.07c-19.94-23.699 9.9569-120.46-53.768-115.02-158.63 25.13-248.81-152.56-119.9-204.55 153.72-56.557 234.21 127.12 195.12 272.19-2.5178 8.7669-13.305 54.992-21.448 47.377z" fill="#f56f7c" sodipodi:nodetypes="ccccc"/>
  <path d="m318.42 503.14c-175.57-84.043-39.244-201.77-8.1062-116.96 10.344 31.603-21.174 63.663 9.4853 113.62 1.7174 3.0593 1.7865 4.8481-1.379 3.348z" fill="#e62f45" sodipodi:nodetypes="cccc"/>
  <path d="m227.6 458.46c-32.332-175.41-227.99-90.766-137.92-39.961 34.058 17.844 85.132-0.36141 133.34 40.21 3.0153 2.3463 5.1463 2.9101 4.5817-0.24838z" fill="#f37682" sodipodi:nodetypes="cccc"/>
  <path d="m177.81 461.92c-0.53293-1.0071-0.81144-1.9984-1.3492-3.0048-0.53517-1.0017-1.556-2.4854-2.1858-3.4378-0.88271-1.0645-4.3026-5.218-5.141-6.0958-1.2926-1.3535-2.7282-2.6819-4.1568-4.0084-1.564-1.4521-3.0725-2.9266-4.8181-4.3243-5.2567-4.2096-7.7848-5.5076-13.965-9.3133-6.237-3.5411-8.8232-5.2853-15.782-8.0994-4.9577-2.0047-14.512-5.056-19.554-6.3071-8.502-2.1095-12.416-2.4295-20.626-3.5764-7.7167-0.49251-10.694-0.92786-17.716-0.4351-2.5432 0.17845-5.1108 0.37368-7.2879 0.9384-4.1855 1.0855-8.1448 2.3942-11.707 3.9884-4.8517 2.1713-5.9929 4.7671-8.6086 8.199-0.7723 1.7821-1.8873 3.4365-2.3182 5.3458-0.44636 1.9772-0.46478 4.1023-0.30137 6.2592 0.46263 6.1047 2.9199 12.862 8.0593 19.492 1.4962 1.93 3.4823 3.8129 5.2234 5.7193 2.0821 1.6682 3.9601 3.4265 6.2463 5.0045 4.6319 3.1973 9.7792 5.8639 15.594 7.5092 6.3727 1.8031 13.486 2.4075 19.102 2.328 2.9246-0.0417 5.5461-0.48212 8.3192-0.72322 10.795-2.5573 21.03-5.5845 23.04-13.644 0.85262-3.4184 0.06-5.8636-0.6195-9.6393-0.64603-1.5236-1.1239-3.0326-1.938-4.5709-1.9078-3.6052-4.9166-7.2518-9.5083-10.475-2.8958-2.0325-4.4617-2.6568-7.725-4.2545-4.5346-1.9381-9.2446-3.4277-13.898-4.3555-1.2186-0.23783-2.3906-0.34824-3.5437-0.42324-1.267-0.0736-2.4472-8e-3 -3.5592 0.13364-4.0829 0.62222-7.5245 2.2296-10.781 3.346-0.45371 0.15547-0.59714 0.41964-0.85519 0.70041-1.6425 1.5525-2.4422 3.4794-3.1548 5.4454-0.66907 2.3487-0.44978 4.9697-0.40309 7.531l8.6042-2.1133c-0.24027-2.6015-0.29449-5.1629 0.68529-7.3914 0.80599-2.0054 1.8264-3.8922 3.8698-5.3023 2.5861-1.3691 7.5948-2.6532-6.8741 2.1058-0.16911 0.0556 0.32894-0.11907 0.50232-0.17101 0.25721-0.0769 0.81083-0.20675 1.0824-0.27226 0.39057-0.0622 0.75074-0.15686 1.1589-0.19956 0.6374-0.0662 1.3588-0.0376 2.0205-0.0744 1.2326 0.0736 2.4211 0.0679 3.68 0.18917 4.7177 0.51369 9.6224 1.6975 14.448 3.5753 3.3971 1.5134 4.6475 1.9268 7.7315 3.9146 4.5892 2.9582 7.9064 6.3953 10.021 9.8678 0.8981 1.4749 1.4348 2.93 2.1522 4.395 0.3334 1.5664 0.90176 3.1853 1.0002 4.6993 0.22827 3.5112-0.41766 6.0891-2.5234 8.7545-0.94686 1.1986-2.6027 2.0234-3.594 3.2001-0.17217 0.2043 0.47997 0.72805 0.17925 0.85269-2.0277 0.84059-4.5564 1.2709-6.8346 1.9064-6.7849 0.67922-9.3878 1.3916-17.359 0.38676-6.3456-0.80002-11.155-2.1471-17.282-5.0716-6.323-3.0183-8.4128-5.0635-13.453-8.8906-1.8014-1.849-3.8464-3.6665-5.4042-5.547-7.268-8.7733-9.6793-18.017-7.7947-25.363 0.4821-1.8793 1.5852-3.5231 2.3778-5.2846 4.8637-5.7542 2.3483-3.7992 9.2932-8.1212 0.31701-0.19735 0.59131-0.44017 1.0463-0.52735 2.368-0.45391 4.7932-0.86112 7.3704-1.0861 7.1373-0.62328 9.9935-0.21943 17.872 0.18672 8.7892 1.1779 11.212 1.2255 20.294 3.5452 5.9619 1.5228 13.156 3.9204 18.954 6.356 6.5093 2.7344 9.6816 4.6879 15.668 7.9821 2.4108 1.5654 4.9455 3.0625 7.2324 4.696 7.0552 5.0396 12.687 10.835 16.482 16.499 0.64315 0.95983 1.1431 1.9174 1.7147 2.8762 1.0175 2.2301 1.9613 4.4747 2.2707 6.5997l9.326-2.4245z" fill="#f9dd4a"/>
  <path d="m302.44 518.78c0.0328-1.8283 0.29403-3.6569 0.18114-5.4912-0.0707-1.1469-0.23248-2.2902-0.34873-3.4354-0.077-1.2987-0.15396-2.5976-0.23089-3.8965-0.44729-5.7921-1.9065-11.508-3.3947-17.166-0.60974-2.3178-1.1797-4.6462-1.9286-6.9332-1.6629-5.0787-4.1569-10.878-6.1954-15.835-3.2506-7.5161-6.7396-14.967-10.844-22.149-2.7012-4.7264-5.3105-8.9437-8.8797-13.201-1.9487-2.3242-4.1615-4.4539-6.2422-6.681-5.5552-5.0932-7.2526-7.006-13.443-11.318-5.8336-4.0637-14.368-8.4917-20.441-11.158-5.019-2.203-9.0033-2.5656-14.324-3.4808-5.7679-0.20594-7.9382-0.64667-13.573 0.60014-2.2197 0.49112-4.3642 1.2377-6.4493 2.0699-2.0051 0.80018-4.0367 1.6239-5.7881 2.814-4.5373 3.083-4.9961 4.9653-7.6343 9.3682-1.3277 4.6467-2.5296 6.9523-1.7075 11.965 0.40531 2.4711 1.3046 4.8807 2.2853 7.2283 1.9376 4.638 5.1609 9.7893 8.3285 13.835 1.5403 1.9672 3.3416 3.7538 5.0124 5.6306 7.9479 6.0401 6.7796 5.6214 18.535 11.258 3.1241 1.498 7.1714 2.4483 10.653 2.7418 3.6757 0.3098 4.5002-0.0662 7.9045-0.70008 2.6007-0.91893 3.0712-0.90143 5.2573-2.3337 0.63148-0.41367 1.2694-0.84124 1.7713-1.3836 0.7691-0.83094 1.877-2.8673 2.1487-3.9487 0.20469-0.81523 0.18014-1.6717 0.2702-2.5077 0.10426-3.9387-1.2016-7.6969-2.7245-11.374-0.37533-0.90626-0.74731-1.8155-1.1905-2.6973-0.45356-0.90348-0.99874-1.7679-1.4981-2.6519-2.1626-3.5415-4.917-6.7307-8.2058-9.449-0.28055-0.20324-0.56108-0.40672-0.8416-0.61012l-10.751-4.0661c0.34428 0.19514 0.68849 0.39027 1.0328 0.5855 3.7005 2.6054 6.879 5.7857 9.2899 9.4582 0.5071 0.85572 1.0537 1.6935 1.5213 2.5671 1.8091 3.3872 3.3672 7.2588 3.779 10.997 0.0917 0.83298 0.059 1.67 0.0885 2.5048-0.2479 1.9186-0.11988 2.3987-1.0458 4.0984-1.4795 2.716-4.3 4.3034-7.3024 5.3529-1.0828 0.233-2.142 0.56873-3.2486 0.69828-2.7879 0.32657-5.629 0.15089-8.3819-0.5298-1.7572-0.43461-3.3645-1.3651-5.1382-1.7301-0.50313-0.10387 1.6121 1.2092 1.1988 0.91885-2.0226-1.42-4.0181-2.8727-6.0272-4.3092-1.7702-1.8852-3.687-3.6636-5.3107-5.6557-4.7508-5.8286-8.9863-13.016-9.9324-20.279-0.64488-4.9513 0.39175-6.948 1.6649-11.568 2.5668-4.3271 2.9069-5.9957 7.3208-9.043 1.6884-1.1656 3.6196-2.0327 5.5667-2.803 22.856-5.2625 46.44 7.1941 60.78 22.742 3.3845 4.1036 6.3092 8.6313 8.9692 13.139 4.2406 7.1866 7.8558 14.658 11.178 22.214 1.0343 2.6197 2.1623 5.2122 3.1028 7.859 1.6722 4.7062 2.9903 9.5169 4.0581 14.351 1.1914 5.3941 1.9946 10.838 1.9535 16.317-0.0263 1.2421 8.2e-4 2.4877-0.0787 3.7264-0.0653 1.0156-0.23578 2.0202-0.35576 3.0299-0.19613 1.6502-0.41094 3.2974-0.91275 4.8892l10.52 5.4247z" fill="#faf0b9" sodipodi:nodetypes="ssccsscsscsscssscssscsscssscssccccscccscscsssscsscsccscsscssccs"/>
  <path d="m452.12 455.92c10.672-10.744 23.059-19.898 36.726-26.485 9.1869-3.3606 9.4957-5.1014 21.814-6.7227 5.4632-0.81564 11.272-1.1268 16.791-0.83887 2.8125 0.14681 5.602 0.58738 8.403 0.88099 11.979 2.1781 23.419 6.6703 33.092 14.169 5.3936 4.1811 6.0018 5.39 10.195 10.354 0.99142 1.6476 2.1422 3.2092 2.9743 4.9428 2.1708 4.523 2.9188 9.5941 1.8623 14.521-0.85898 4.006-1.998 5.6094-3.8615 9.1991-8.1356 8.6528-26.527 8.8579-25.032 9.5873-8.9415-0.60767-19.934-1.2822-27.058-7.5386-3.5938-3.1562-4.0377-5.1189-6.0548-9.2788-0.28849-1.7738-0.80251-3.5254-0.86546-5.3214-0.22294-6.3621 2.8138-12.589 7.9348-16.359 1.0909-0.80313 2.3612-1.3284 3.5417-1.9928-21.582 7.8238-12.83 3.8676-7.2398 3.4891 4.1362-0.28011 5.9699 0.25337 9.9661 0.9164l14.833-6.9462c-2.9047-0.53062-7.0182-1.4033-9.9892-1.4568-8.2381-0.14893-17.683 5.0372-24.113 7.3065-3.0619 2.1595-3.9606 2.4132-6.1971 5.5774-2.9905 4.2312-4.3462 9.2595-3.9459 14.43 0.1499 1.936 0.71741 3.8168 1.0761 5.7251 2.2269 4.4925 2.7039 6.5647 6.6443 9.9601 3.9322 3.3884 7.2724 4.4504 12.276 5.6518 6.4795 1.5559 9.7453 1.5592 16.442 2.1172 5.1812-0.0352 11.499 0.28052 16.613-1.1142 7.2328-1.973 14.343-4.3928 21.389-6.9533 4.1376-1.5037 9.0498-4.3068 12.243-7.4252 1.3209-1.2898 2.206-2.9608 3.309-4.4412 1.6009-3.4075 3.1069-6.0593 3.8036-9.8296 0.95917-5.1905-0.17512-10.781-2.7619-15.342-1.0074-1.7763-2.3818-3.3177-3.5727-4.9765-1.6649-1.6895-3.2333-3.4798-4.9947-5.0685-8.6961-7.8431-19.911-14.313-31.05-17.911-2.7753-0.89628-5.651-1.4452-8.4765-2.1679-2.8142-0.3439-5.6141-0.8392-8.4427-1.0317-4.9017-0.33343-11.967-0.1585-16.84 0.52727-2.7992 0.39388-5.5904 0.9236-8.3074 1.7038-19.545 4.2628-36.247 9.5643-48.483 19.003-32.69 34.939-87.325 45.054-122.03 77.033 46.332-31.046 76.092-23.803 107.39-57.895z" fill="#fbf4c7" sodipodi:nodetypes="cccscscssccscsscsccsccsscsscssscssccscsscccc"/>
  <path d="m186.45 361.2c-2.7818-1.2578-5.5119-2.6363-8.2287-4.0291-59.551-28.356-33.139-78.805 2.1861-44.758 3.1538 2.6329 4.0691 7.0723 2.7952 12.113-5.8141 20.997-31.29 2.7525-21.372-3.4929 0.52252-2.0669 2.1799-3.1549 2.7782-3.581-4.5882 0.3727-9.0108-0.0474-10.004 4.8865-0.4316 4.5661 0.88454 8.7498 4.2932 11.399 16.037 12.636 28.151 3.0234 31.09-10.439 1.1142-7.3362-2.7955-13.363-7.9334-16.968-3.1724-2.1996-6.6098-3.9993-10.087-5.6581-17.821-7.2809-29.587 2.3121-31.769 10.843-4.7376 23.412 13.869 37.155 31.456 47.651 1.2495 0.81875 2.4785 1.6691 3.7398 2.4696 1.0702 0.67923 2.191 1.2835 3.2566 1.9711l7.7982-2.4063z" fill="#fff098" sodipodi:nodetypes="sccccccccccccsccs"/>
  <path d="m320.07 527.39c-0.29338-1.6566-0.82606-3.2908-0.96773-4.9671-0.0885-1.0481-0.0811-2.102-0.12151-3.153-0.10334-1.1866-0.20678-2.3734-0.31028-3.56-0.35219-5.302 0.36616-10.635 1.1233-15.917 0.31019-2.1639 0.57725-4.3337 1.0375-6.4834 1.0221-4.7739 2.8123-10.284 4.2451-14.984 2.3395-7.1426 4.938-14.249 8.2192-21.173 2.1594-4.5561 4.2947-8.641 7.4296-12.856 1.7116-2.3014 3.7274-4.4523 5.591-6.6783 5.0965-5.1696 6.6033-7.0728 12.476-11.596 5.534-4.2622 13.845-9.1204 19.828-12.137 4.9444-2.493 9.066-3.2137 14.509-4.5673 6.0118-0.75356 8.2223-1.367 14.301-0.78873 2.3943 0.22777 4.7462 0.69476 7.0478 1.2453 2.2134 0.52956 4.4579 1.0777 6.4608 1.9858 5.1888 2.353 5.9361 4.0169 9.323 7.7546 2.0489 4.0877 3.6344 6.0627 3.4837 10.694-0.0743 2.2832-0.67486 4.559-1.3693 6.7864-1.3722 4.4008-4.0182 9.3941-6.7624 13.378-1.3344 1.9372-2.9679 3.7361-4.4518 5.604-7.4683 6.2642-6.304 5.7692-17.818 12.041-3.0597 1.6668-7.1639 2.9272-10.769 3.5358-3.8058 0.64226-4.7225 0.3821-8.3779 0.14092-2.854-0.57855-3.3442-0.51639-5.8368-1.6019-0.72002-0.31356-1.4487-0.63906-2.0512-1.0821-0.92324-0.67882-2.3722-2.4186-2.8099-3.3736-0.32989-0.71996-0.42552-1.4998-0.63827-2.2498-0.66726-3.5654 0.16795-7.1053 1.2418-10.594 0.26469-0.85956 0.52546-1.7215 0.8647-2.5656 0.34701-0.86464 0.79553-1.703 1.1933-2.5545 1.7632-3.4276 4.196-6.5934 7.2555-9.3843 0.26502-0.21215 0.53001-0.4243 0.79497-0.63662l10.684-4.7475c-0.33294 0.21101-0.66578 0.42201-0.99867 0.63302-3.5065 2.7288-6.3849 5.9282-8.3896 9.4989-0.40986 0.82685-0.86365 1.6409-1.2296 2.4799-1.4148 3.2528-2.4981 6.9206-2.3998 10.355 0.0219 0.76518 0.17479 1.5218 0.26221 2.2825 0.53149 1.7174 0.46543 2.1658 1.676 3.6178 1.9344 2.3202 5.1132 3.4842 8.4064 4.1419 1.1671 0.10493 2.324 0.30571 3.5013 0.31479 2.9661 0.0221 5.9168-0.41604 8.7036-1.3046 1.7788-0.5671 3.3304-1.5698 5.1362-2.0754 0.51222-0.14386-1.5171 1.2562-1.1253 0.95198 1.9171-1.4877 3.8013-3.0026 5.7019-4.5042 1.5869-1.8853 3.3425-3.688 4.7608-5.656 4.1498-5.7579 7.5675-12.699 7.5292-19.385-0.0261-4.558-1.3947-6.269-3.3827-10.338-3.3014-3.6759-3.894-5.1574-8.9486-7.49-1.9335-0.89219-4.079-1.4896-6.2274-1.9977-24.684-2.5316-47.619 11.094-60.434 26.617-2.9632 4.0578-5.3849 8.4554-7.5321 12.809-3.4231 6.9407-6.1507 14.079-8.5601 21.265-0.71214 2.4797-1.5262 4.9441-2.1362 7.4393-1.0846 4.4366-1.7834 8.9334-2.2169 13.426-0.48359 5.0138-0.55341 10.035 0.26588 15.004 0.20342 1.125 0.35144 2.2585 0.61037 3.3751 0.21226 0.91559 0.53315 1.8107 0.80191 2.7157 0.43919 1.4787 0.89755 2.9529 1.6486 4.3488l-10.249 5.9581z" fill="#fbd700" sodipodi:nodetypes="ssccsscsscsscssscssscsscssscssccccscccscscsssscsscsccscsscssccs"/>
  <path d="m464.1 415.62c3.1284-2.7589 6.2232-5.6919 9.3065-8.6435 67.214-61.297 48.135-132.69 5.3315-69.386-3.7523 5.0156-5.467 12.22-4.991 19.742 2.5153 31.188 32.311-4.5981 22.984-11.544-0.19544-3.0843-1.7465-4.3143-2.3007-4.8106 4.7431-0.72241 9.4477-2.6373 9.6479 4.7965-0.32543 7.0192-2.4166 13.938-6.4386 19.051-18.952 24.328-30.006 12.739-30.792-7.4822 0.082-11.158 5.2041-21.697 11.2-28.797 3.698-4.3431 7.6054-8.1361 11.531-11.72 19.909-16.459 30.601-4.8022 31.434 7.9198 0.97636 35.272-20.856 62.062-41.067 83.482-1.4484 1.6362-2.8807 3.3159-4.3384 4.9268-1.2368 1.3671-2.5139 2.6312-3.7472 4.0098l-7.7596-1.545z" fill="#ffec7b" sodipodi:nodetypes="sccccccccccccsccs"/>
 </g>
</svg>
