<?xml version="1.0" encoding="UTF-8"?>
<svg width="128px" height="180px" inkscape:version="1.0 (4035a4fb49, 2020-05-01)" sodipodi:docname="BookCoverMissing.svg" version="1.1" viewBox="0 0 1281.9 1000.8" xmlns="http://www.w3.org/2000/svg" xmlns:cc="http://creativecommons.org/ns#" xmlns:dc="http://purl.org/dc/elements/1.1/" xmlns:inkscape="http://www.inkscape.org/namespaces/inkscape" xmlns:rdf="http://www.w3.org/1999/02/22-rdf-syntax-ns#" xmlns:sodipodi="http://sodipodi.sourceforge.net/DTD/sodipodi-0.dtd">
 <defs>
  <filter id="filter951" x="-.068871" y="-.066544" width="1.1377" height="1.1331" color-interpolation-filters="sRGB" inkscape:collect="always">
   <feGaussianBlur inkscape:collect="always" stdDeviation="26.615238"/>
  </filter>
  <filter id="filter1262" x="-.17055" y="-.40281" width="1.3411" height="1.8056" color-interpolation-filters="sRGB" inkscape:collect="always">
   <feGaussianBlur inkscape:collect="always" stdDeviation="42.186699"/>
  </filter>
 </defs>
 <sodipodi:namedview id="base" bordercolor="#666666" borderopacity="1.0" inkscape:current-layer="g107" inkscape:cx="305.95944" inkscape:cy="295.87671" inkscape:document-rotation="0" inkscape:document-units="mm" inkscape:pageopacity="0.0" inkscape:pageshadow="2" inkscape:snap-global="false" inkscape:window-height="1017" inkscape:window-maximized="1" inkscape:window-width="1920" inkscape:window-x="-8" inkscape:window-y="-8" inkscape:zoom="0.90509668" pagecolor="#ffffff" showgrid="false"/>
 <metadata>
  <rdf:RDF>
   <cc:Work rdf:about="">
    <dc:format>image/svg+xml</dc:format>
    <dc:type rdf:resource="http://purl.org/dc/dcmitype/StillImage"/>
    <dc:title/>
   </cc:Work>
  </rdf:RDF>
 </metadata>
 <g transform="translate(-1148.5 -747.93)" inkscape:groupmode="layer" inkscape:label="Layer 1">
  <g transform="translate(1367.3 710.14)">
   <rect x="-201.2" y="-383.44" width="1246.8" height="1843.3" fill="#b02333" opacity=".9603" stroke="#7b2f38" stroke-linecap="round" stroke-linejoin="round" stroke-opacity=".96078" stroke-width="35.081"/>
   <path transform="matrix(.97125 0 0 1.0003 46.043 13.08)" d="m292.62-132.31c30.033 43.768 65.75 84.254 101.8 124.52 18.965 18.178 38.354 36.062 56.895 54.534 40.105 39.955 99.443 102.78 136.53 143.61 44.805 49.327 90.209 101.27 131.23 152.97 17.357 21.871 33.507 44.423 50.261 66.634 14.719 21.896 45.461 62.093 53.66 90.434 1.5703 5.4279-7.0835 21.911-1.9219 17.354 45.526-40.193 99.886-78.385 126.4-127.25 8.0795-14.891-29.724-16.56-43.144-26.19-20.496-14.707-38.956-31.131-58.434-46.697-29.548-23.838-61.021-46.2-88.643-71.515-31.15-28.547-59.723-58.968-87.431-89.85-68.579-76.435-127.83-159-180.32-244.22-10.168-16.506-19.321-33.485-28.982-50.227-40.296 61.486-2.6992-56.113-16.534-43.433-46.552 42.667-100.24 83.586-130.1 134.02-8.1529 13.766 21.934 20.56 32.175 31.331 15.125 15.907 29.19 32.498 43.897 48.676 20.231 22.254 40.611 44.414 60.917 66.62 102.99 119.84 190.32 248.74 265.91 382.84 13.041 14.337 14.519 37.306 28.915 51.116 8.2674 7.9312 22.19 12.855 33.004 18.321 71.556 32.558 80.33-34.991 166.19-120.06 2.6253-2.6011-3.0308-5.4295-4.7338-8.0548-1.8038-2.7806-3.8541-5.4352-5.7813-8.1526-26.774-31.921-57.58-61.357-87.085-91.543-43.459-43.546-82.385-89.946-122.54-135.59-25.327-28.467-49.576-57.457-71.947-87.638-68.578-28.963-23.923-14.795-162.4 123.79-6.9815 6.9869-2.4602 16.876-4.4048 25.298-2.8433 12.314-5.9639 24.634-9.9486 36.864-11.274 34.602-23.438 60.868-38.104 95.185 55.72-31.608-74.238 98.251-48.008 77.791 43.733-34.113 81.959-72.491 123.47-108.35 3.1657-2.7341 8.9736-3.939 10.493-7.3638 5.3868-12.146 6.1989-24.839 9.2983-37.258 9.3029-19.207 18.605-38.415 27.908-57.622 59.2-100.69 128.66-198.58 206.11-292.42 34.666-42.004 57.198-65.59 93.574-105.16 17.696-20.724 38.847-39.534 57.23-59.873 2.9402-3.2533 11.707-12.794 7.85-10.222-58.257 38.865-116.56 77.842-171.79 119.59-11.197 8.4648-17.495 20.195-26.383 30.221-14.874 16.778-29.934 33.459-44.901 50.188-135.78 147.92-256.39 303.21-370.49 460.96-33.404 44.865-62.884 91.196-94.59 136.69-4.6363 6.6517-22.04 24.432-14.468 19.74 160.48-99.438 137.44-60.516 170.15-132.35 10.666-16.207 20.48-32.727 31.998-48.621 32.298-44.568 86.888-111.1 121.69-152.74 50.935-60.932 89.56-105.43 143.64-164.45 21.672-23.654 44.06-46.915 66.09-70.373 46.484-47.926 93.329-95.747 143.62-141.3 19.543-17.703 42.295-34.04 59.564-53.182-57.348 40.077-117.23 77.851-172.04 120.23-12.332 9.5345-18.294 23.039-27.885 34.348-43.76 51.605-88.539 102.71-133.4 153.77-95.353 108.51-108.16 121.53-208.14 231.22-91.628 95.66-178.28 194.78-278.39 285.39-18.357 16.615-78.603 62.446-57.716 47.908 144.03-100.25 113.36-66.742 170.94-148.12 22.2-26.236 43.884-52.728 66.599-78.71 11.863-13.569 179.61-200.09 187.27-208.59 84.89-94.123 169.54-188.37 254.67-282.37 54.011-60.175 110.49-119.01 169.31-176.42 12.116-11.828 23.858-23.925 36.775-35.213 7.4071-6.4732 32.355-23.664 24.055-17.947-52.617 36.242-104.68 73.023-157.03 109.53-78.06 104.72-150.32 211.67-224.02 318.05-53.546 76.676-105.38 154.02-151.09 233.28l138.5-95.291c27.118-69.878 67.763-137.12 109.81-203.32 48.105-73.201 96.762-144.64 153.64-214.5 56.074-68.878 46.356-53.421 100.71-113.87 9.7683-10.864 18.983-22.011 28.475-33.016-50.642 32.298-102.04 63.791-151.93 96.892-2.3836 1.5816-2.3545 4.5282-4.0471 6.5947-7.2878 8.8976-15.102 17.544-22.833 26.223-45.442 51.017-91.819 101.58-134.23 154.12-72.739 87.074-144.61 174.6-220.78 259.99-79.386 89.004-123.6 135.36-207.99 222.05-32.709 33.598-66.013 66.844-99.02 100.27-24.9 25.881-112.32 76.26-74.7 77.643 55.689 2.0484 122.1-66.892 158.06-105.85 75.97-82.295 146.73-167.29 222.87-249.51 110.16-119.35 220.29-238.71 336.7-354.51 28.355-28.208 57.647-55.835 86.691-83.612 18.101-17.312 79.586-61.482 54.74-51.653-50.771 20.086-91.118 56.046-136.68 84.069 10.559-9.6811 5.3865-5.0656-7.9934 8.329-28.86 28.893-56.211 58.532-83.115 88.532-15.108 16.846-29.991 33.809-44.986 50.714-134.89 154.56-264.82 311.63-403.71 464.16-11.279 12.176-49.566 44.822-33.839 36.527 53.049-27.98 100.7-62.927 148.46-96.984 2.959-2.1097-1.0034-5.927 0.012-8.8866 3.0444-8.8739 7.6668-17.518 12.014-26.167 17.739-35.298 27.556-50.389 49.021-86.844 34.734-54.961 47.649-77.28 88.27-132.84 83.771-114.57 181.03-223.55 285.25-327.88 22.023-21.211 43.688-42.655 66.069-63.635 15.852-14.86 69.25-53.938 48.611-43.866-48.813 23.82-89.956 57.617-135.21 86.123-2.02 1.2727 6.1314-6.3089 5.4604-4.3863-3.1951 9.1517-30.937 41.821-31.74 42.829-101.32 126.56-192.07 257.47-282.17 388.52-9.167 14.372-68.137 102.8-74.612 126.02-3.457 12.399-9.835 43.874 3.7232 36.477 137.05-74.771 131.29-94.26 167.13-180.55 28.657-63.853 16.736-38.04 46.734-101.87 6.9273-14.74 13.292-29.607 20.841-44.209 5.5277-10.692 30.047-38.732 18.357-31.609-121.53 74.054-151.07 146.56-127.91 92.763 31.544 22.877 54.574 52.583 84.699 76.639 43.539 43.252 83.24 89.045 123.49 134.43 26.443 32.333 52.268 65.194 67.952 102.83 0.7086 2.4823 1.968 4.8494 2.0988 7.4541 0.09 1.7933-3.1457 6.8256-1.4495 5.447 47.437-38.556 91.64-79.644 139.63-117.76 1.9984-1.5874 2.1547 4.2029 0.8619 6.1757-2.3598 3.6011-13.539-0.88501-14.352 0.4123-13.45-4.2478-18.712-8.3949-30.093-14.624-17.63-9.6492-37.639-16.556-51.897-29.775-11.244-8.6977-22.906-17.058-33.731-26.093-112.15-93.606-200.11-205.33-272.18-323.16-20.822-42.554-50.629-98.886-66.057-145.15-4.9497-14.841 8.7181-52.019-10.481-45.758-56.143 18.307-95.24 63.751-142.76 95.727-13.517 9.0953 98.666-70.095 48.139 4.4417 16.142 11.342 33.239 21.871 48.426 34.025 43.019 34.43 99.909 89.667 135.49 126.9 55.479 58.062 112.52 122.58 156.84 187.19 21.39 31.188 38.387 64.528 57.581 96.792 12.49 21.281 26.1 42.067 37.469 63.843 7.5762 14.512-0.6736 51.272 19.302 44.895 58.513-18.679 102.07-63.355 149.28-98.713 5.1047-3.823-13.866 3.4637-19.615 1.5986-31.631-10.262-68.84-45.026-89.007-61.05-20.413-19.231-41.348-38.094-61.238-57.693-54.712-53.913-87.99-89.721-136.38-148.56-39.991-48.632-83.964-106.45-116.21-159.54-13.75-22.638-24.711-46.531-37.066-69.797-16.646-34.68-26.368-52.512-39.094-86.8-3.4141-9.199-5.9442-18.682-8.9129-28.024-3.8164-12.009-6.9724-19.392-8.3282-31.469-0.3488-3.105-0.048-6.3052-0.073-9.4579l-152.28 116.66z" filter="url(#filter951)" opacity=".20625"/>
   <g transform="translate(-2129.9,59.531)">
    <g stroke="#000" stroke-linecap="round" stroke-linejoin="round">
     <rect x="2044.5" y="-186.86" width="900.18" height="1263.1" fill="#fff094" stroke-width="47.001"/>
     <rect x="2205.8" y="2.7835" width="593.66" height="251.35" fill="#fff094" filter="url(#filter1262)" opacity=".24688" stroke-width="53.272"/>
     <rect x="2170.2" y="-63.362" width="593.66" height="251.35" fill="#efffff" stroke-width="53.272"/>
    </g>
    <g fill="#008000">
     <path d="m2218.1 87.639c-2.7044 8.318-8.653 15.901-13.81 23.069-3.9313 5.0098-2.0091 2.6401-5.7471 7.1229l23.872-9.6086c3.09-4.324 1.4834-2.0385 4.808-6.8639 5.5689-8.1582 11.552-16.143 16.099-24.849l-25.221 11.13z" opacity=".24688"/>
     <path d="m2227.9 94.728c5.5443 7.0561 11.432 13.863 17.179 20.777l20.739-11.483c-1.5246-1.8038-3.1467-3.54-4.5737-5.4115-3.9006-5.1159-7.0996-10.698-9.1738-16.67l-24.171 12.787z" opacity=".24688"/>
     <path d="m2220.2 115.94c-1.0154 3.4443-2.1335 6.8113-3.9788 9.9708-1.8274 3.1287-3.3601 4.9781-5.5617 7.8945-3.1146 3.9034-6.7561 7.3891-10.726 10.536l24.798-9.4627c3.3648-3.2825 6.4898-6.7634 9.2368-10.517 4.4849-6.2377 8.8245-12.678 11.299-19.875l-25.068 11.454z" opacity=".24688"/>
     <path d="m2228.8 130.75c3.6823 3.3523 6.2371 7.5504 9.2793 11.366 0.8509 1.0676 1.7989 2.0652 2.6987 3.0979l22.287-12.462c-0.9024-0.93488-1.8715-1.8178-2.7077-2.8046-3.1002-3.66-5.4765-7.859-7.4143-12.135l-24.143 12.938z" opacity=".24688"/>
     <path d="m2215.8 161.03c-3.4889 4.8877-7.2426 9.6203-10.908 14.399 0 0 23.976-9.6671 23.976-9.6671 3.9654-5.1924 8.1595-10.218 12.516-15.133l-25.585 10.401z" opacity=".24688"/>
     <path d="m2234.1 171.82c2.6121 4.324 5.11 8.706 7.6902 13.046l22.938-12.321c-2.7114-4.0669-5.4767-8.2978-6.1115-13.142l-24.516 12.417z" opacity=".24688"/>
     <path d="m2357.2 59.147c-2.6332 10.628-10.331 19.661-18.485 27.229-2.5569 2.3735-5.3526 4.5143-8.0288 6.7714-10.814 7.8967-5.4564 4.1405-16.049 11.296l21.474-7.9307c9.8162-7.0171 4.7871-3.3098 15.06-11.154 2.7109-2.3362 5.522-4.5755 8.1318-7.0086 9.4042-8.7666 17.406-18.757 22.773-30.124l-24.877 10.921z" opacity=".24688"/>
     <path d="m2355.8 53.626c6.8607 10.45 11.967 21.769 18.758 32.268 2.1226 3.2825 4.4394 6.4535 6.6593 9.6802 7.719 10.438 17.204 18.547 28.644 25.379 3.9301 2.3472 8.1185 4.2984 12.178 6.4476l17.158-10.368c-3.9891-2.1029-8.1278-3.9781-11.968-6.3088-10.959-6.6516-20.166-15.089-27.525-25.139-2.0918-3.2381-4.3413-6.3927-6.2756-9.7144-6.3593-10.922-10.632-22.779-13.584-34.857l-24.045 12.611z" opacity=".24688"/>
     <path d="m2351.5 88.649c-2.5045 9.4999-7.7793 18.362-13.761 26.343-1.9371 2.5843-4.0637 5.0414-6.0955 7.562-7.8418 9.1564-17.202 16.965-26.729 24.548l22.422-8.4986c8.7544-7.6968 17.39-15.549 24.941-24.305 2.1399-2.6148 4.3631-5.1726 6.4196-7.8444 6.9505-9.03 12.592-18.877 17.948-28.777l-25.144 10.972z" opacity=".24688"/>
     <path d="m2351.1 102.4c1.6179 5.074 3.3011 10.201 5.9755 14.905 3.6866 6.4844 8.4664 12.648 13.424 18.317 2.7853 3.1847 5.8255 6.1692 8.7384 9.2538 6.967 7.3852 14.915 13.834 22.927 20.196l19.758-11.607c-2.4843-1.5284-5.0437-2.956-7.4527-4.585-8.7046-5.8862-9.256-6.8781-17.324-14.032-2.7941-3.0702-5.8129-5.9756-8.3825-9.2105-7.3762-9.2856-12.905-20.006-13.249-31.707-0.032-1.0716 0.1669-2.1383 0.2504-3.2075l-24.664 11.677z" opacity=".24688"/>
     <path d="m2345.6 147.14c-3.3576 8.2428-10.147 14.759-16.606 20.997-6.3652 5.6754-3.1939 2.8702-9.5136 8.4168 0 0 22.885-8.7526 22.885-8.7526 6.145-5.5343 3.0211-2.7114 9.371-8.4697 3.7634-3.6626 5.3761-5.0785 8.7738-8.975 3.8186-4.3792 7.169-9.0875 10.546-13.76l-25.457 10.544z" opacity=".24688"/>
     <path d="m2355.5 162.56c4.9808 9.7754 10.044 19.568 16.085 28.822l21.804-11.887c-1.075-1.3317-2.2301-2.6108-3.2252-3.995-5.3947-7.5034-9.5982-16.067-10.393-25.136l-24.271 12.195z" opacity=".24688"/>
     <path d="m2283.2-8.4791c-3.3263 13.678-11.975 25.465-20.846 36.544-1.4915 1.6627-2.983 3.3254-4.4746 4.9882l22.596-9.0026c1.2408-1.5983 2.4812-3.1965 3.722-4.7948 4.8874-6.7289 9.6124-13.503 13.884-20.592 4.4929-7.4568 3.589-6.3257 7.463-13.423 0.8041-1.473 1.6524-2.9247 2.4788-4.3871l-24.822 10.667z" opacity=".24688"/>
     <path d="m2301.7-14.27c10.399 14.049 19.512 28.871 28.226 43.862l18.933-10.144c-9.4385-14.575-18.878-29.62-22.976-46.377l-24.182 12.659z" opacity=".24688"/>
     <path d="m2292.4 17.802c1.0989 6.6236 0.5392 13.939-1.5188 20.367-0.6209 1.9389-1.5235 3.7903-2.2851 5.6854-3.1094 6.2357-7.6823 11.543-12.354 16.792l22.434-8.9248c4.4764-5.5636 8.9422-11.156 12.152-17.474 0.8292-2.0417 1.7979-4.0392 2.4878-6.1252 2.361-7.1385 2.6263-14.72 3.8638-22.052l-24.78 11.731z" opacity=".24688"/>
     <path d="m2301.9 44.833c3.716 5.904 6.9725 12.032 10.084 18.225l22.275-11.757c-3.3511-6.1156-6.8514-12.289-8.3137-19.079l-24.045 12.611z" opacity=".24688"/>
     <path d="m2288 74.731c-0.1835 0.79276-0.3143 1.5978-0.5508 2.3783-0.3919 1.2921-0.9115 2.5481-1.3322 3.8324-0.7815 2.3853-1.4341 4.8073-2.2728 7.1757-3.2351 9.1337-7.1043 18.099-10.69 27.117-0.9898 2.4981-1.9792 4.9962-2.9689 7.4943l21.422-9.358c0.7323-2.3708 1.4643-4.7415 2.1965-7.1122 2.6878-7.5746 3.4846-10.228 6.8035-17.805 4.2278-9.6518 4.069-8.6114 8.8247-17.518 0.6405-1.1997 2.7789-5.4134 3.6148-7.0568l-25.046 10.853z" opacity=".24688"/>
     <path d="m2299.4 106.86c4.1354 8.5866 8.7233 17.094 14.673 24.742 1.8184 2.3366 3.859 4.5164 5.7884 6.7746 7.8559 8.2638 3.9338 4.309 11.741 11.886l20.194-11.518c-8.209-7.0856-4.1835-3.3093-12.03-11.371-1.7895-2.2489-3.7117-4.4116-5.3683-6.7468-5.4758-7.7188-9.8247-16.686-10.513-25.993l-24.485 12.226z" opacity=".24688"/>
     <path d="m2276.9 128.59c-5.2402 12.321-16.424 21.427-26.631 30.225-2.5097 1.986-5.0195 3.972-7.5292 5.958l21.195-8.0003c2.3465-1.9491 4.693-3.8982 7.0395-5.8472 10.552-9.1799 21.942-18.662 29.227-30.436 0.5935-0.95947 1.0563-1.9839 1.5846-2.9759l-24.885 11.076z" opacity=".24688"/>
     <path d="m2288 137.64c3.4719 6.5879 6.5526 13.546 11.35 19.441 1.7868 2.1956 3.8789 4.1615 5.8184 6.2423 10.062 8.735 4.648 4.5176 16.326 12.559l18.736-10.969c-10.783-8.1742-5.8404-3.8878-14.922-12.764-1.6427-2.1156-3.4438-4.1326-4.9286-6.3468-4.1023-6.1174-6.7647-13.281-7.8959-20.388l-24.485 12.226z" opacity=".24688"/>
    </g>
    <g fill="#b02333" fill-opacity=".96078">
     <path d="m2177.6 441.5c1.0537-1.142 2.035-2.3929 3.1611-3.426 8.1244-7.453 18.09-13.813 17.584-13.443-15.346 11.219-31.2 21.439-46.103 33.523-4.3258 3.5077 9.4297-5.3129 14.241-7.6878 4.4673-2.205 9.0535-4.0296 13.58-6.0444 10.987-3.6094 22.338-7.8073 33.824-4.9618 8.3159 2.0602 14.865 7.8714 21.515 13.864 5.4942 4.2264 8.7031 7.5438 15.533 8.8237 10.342 1.9381 19.299-0.87197 29.354-4.0698 11.452-3.6424 29.588-11.286 40.736-15.824 18.468-6.3054 36.473-18.237 56.077-18.467 6.4601-0.0757 9.4498 1.3425 15.507 3.2404 17.067 8.1214 32.613 5.5295 50.484 3.4202 13.255-1.5645 26.501-3.2391 39.754-4.837 23.42-3.5462 46.891-2.3758 70.351-0.60437 3.1433 0.24698 6.2865 0.49395 9.4297 0.74089l58.759-51.696c-3.205-0.18467-6.41-0.36937-9.6149-0.55406-10.332-0.68122-20.696-1.76-31.05-1.6438-12.401 0.13916-14.054 0.69102-27.011 2.4951-5.767 0.80297-11.529 1.6546-17.294 2.4819-22.258 3.2509-45.384 8.0321-67.829 4.3937-6.3808-1.0343-9.6723-2.6619-15.671-5.0107-6.1681-2.0584-11.868-4.411-18.383-4.548-21.764-0.45745-41.399 13.882-61.656 21.254-15.273 6.1795-22.467 9.4901-37.79 14.214-14.832 4.5724-24.483 8.4299-37.813-2.126-7.7616-6.3025-15.715-13.306-24.848-16.354-12.8-4.2718-25.145-0.21429-37.654 3.4998-43.168 18.243-48.136 26.055-101.91 63.414-9.0887 6.3139-18.375 13.1-25.571 22.537l70.315-36.603z" opacity=".4875"/>
     <path d="m2128.1 621.7c17.848-7.7115 36.415-12.424 55.071-16.029 10.733-2.4976 20.8 1.9947 31.182 4.4224 3.839 0.89765 7.7116 1.5646 11.567 2.347 6.6911 0.48443 13.377 1.0931 20.074 1.4533 11.012 0.59222 45.44 1.652 55.59 2.1023 23.571 1.046 47.099 2.7551 70.634 4.6183 14.164 1.4371 28.365 2.136 42.513 0.0682 13.542-1.9793 26.921-5.9105 40.269-9.2369 14.997-3.3058 30.129-7.2718 45.459-7.0514 3.6042 0.0518 7.192 0.60547 10.788 0.90819l58.206-50.748c-3.7778-0.58821-7.5319-1.4872-11.333-1.7646-15.927-1.1625-31.716 3.0426-47.232 6.7433-28.04 7.2103-56.07 15.137-84.975 13.54-47.15 0.59424-94.834 0.81453-141.25-10.655-3.2799-1.0739-6.577-2.0717-9.8397-3.2216-11.018-3.8834-21.5-9.5825-33.296-7.3647-17.818 4.0816-35.495 9.0129-53.322 13.016l-60.105 56.853z" opacity=".4875"/>
     <path d="m2214.3 790.06c-18.657 13.78-37.763 26.687-55.971 41.339-4.3188 3.475 9.3246-5.4977 14.168-7.7013 19.45-8.8484 40.149-14.433 60.808-16.609 6.4973-0.68436 13.034-0.56576 19.552-0.8487 23.013 0.5675 43.707 12.815 65.291 20.704 15.474 5.6553 16.893 5.2685 33.04 8.479 27.595 3.9198 55.313 0.80724 82.908-1.1364 10.469-0.60786 20.724 1.8186 30.937 4.2213l60.395-51.821c-11-2.1539-22.01-4.9057-33.192-4.9108-28.394 2.7899-56.727 10.322-85.324 5.6428-5.454-1.0018-10.958-1.6563-16.362-3.0054-28.374-7.0835-54.894-23.844-84.157-26.184-6.8348 0.29609-13.682 0.30452-20.504 0.88823-16.774 1.4351-25.099 3.1302-41.432 7.1809-2.076 0.51492-25.384 6.5895-29.252 9.1641-24.11 16.048-47.355 33.974-71.033 50.961l70.127-36.364z" opacity=".4875"/>
    </g>
   </g>
   <path d="m367.97-248.68c29.169 43.78 63.86 84.277 98.876 124.55 18.42 18.183 37.251 36.072 55.26 54.549 38.952 39.966 96.584 102.81 132.61 143.65 43.517 49.34 87.615 101.3 127.46 153.01 16.858 21.877 32.544 44.435 48.816 66.652 14.296 21.902 44.154 62.11 52.118 90.459 1.5252 5.4294-6.8798 21.917-1.8666 17.359 44.217-40.204 97.015-78.407 122.77-127.29 7.8472-14.895-28.869-16.565-41.904-26.198-19.906-14.711-37.836-31.14-56.754-46.71-28.698-23.845-59.267-46.213-86.095-71.534-30.254-28.555-58.006-58.984-84.917-89.875-66.608-76.456-124.16-159.05-175.14-244.28-9.8752-16.511-18.766-33.494-28.149-50.241-39.138 61.503-2.6216-56.129-16.059-43.445-45.214 42.679-97.354 83.609-126.36 134.05-7.9185 13.77 21.303 20.565 31.25 31.339 14.69 15.912 28.351 32.507 42.635 48.69 19.649 22.26 39.443 44.426 59.165 66.639 100.03 119.88 184.85 248.81 258.27 382.95 12.666 14.341 14.102 37.316 28.084 51.13 8.0297 7.9334 21.552 12.859 32.055 18.326 69.499 32.567 78.02-35 161.41-120.09 2.5499-2.6018-2.9436-5.431-4.5978-8.057-1.7519-2.7814-3.7433-5.4367-5.615-8.1549-26.005-31.93-55.924-61.374-84.581-91.569-42.209-43.558-80.016-89.971-119.02-135.63-24.599-28.475-48.151-57.473-69.878-87.662-66.607-28.971-23.235-14.799-157.73 123.82-6.7808 6.9888-2.3895 16.881-4.2782 25.305-2.7616 12.318-5.7924 24.641-9.6626 36.874-10.95 34.611-22.764 60.885-37.008 95.211 54.118-31.617-72.104 98.279-46.628 77.812 42.475-34.122 79.603-72.511 119.92-108.38 3.0747-2.7348 8.7156-3.9401 10.191-7.3658 5.2319-12.149 6.0207-24.845 9.031-37.269 9.0354-19.213 18.07-38.426 27.106-57.638 57.498-100.72 124.96-198.63 200.18-292.5 33.67-42.016 55.553-65.608 90.884-105.19 17.187-20.73 37.73-39.545 55.584-59.89 2.8557-3.2542 11.37-12.798 7.6244-10.225-56.582 38.876-113.21 77.863-166.85 119.62-10.875 8.4671-16.992 20.201-25.625 30.229-14.446 16.782-29.073 33.468-43.61 50.202-131.88 147.96-249.01 303.29-359.84 461.09-32.444 44.878-61.076 91.221-91.871 136.72-4.503 6.6536-21.406 24.438-14.052 19.745 155.87-99.465 133.49-60.533 165.26-132.39 10.359-16.211 19.891-32.736 31.078-48.634 31.369-44.58 84.39-111.13 118.19-152.78 49.471-60.948 86.986-105.46 139.51-164.5 21.049-23.66 42.793-46.928 64.19-70.392 45.148-47.939 90.646-95.773 139.49-141.34 18.981-17.708 41.079-34.049 57.852-53.196-55.699 40.088-113.86 77.873-167.1 120.26-11.977 9.5371-17.768 23.045-27.083 34.358-42.502 51.619-85.993 102.74-129.57 153.81-92.612 108.54-105.05 121.56-202.15 231.28-88.994 95.686-173.15 194.84-270.39 285.47-17.83 16.619-76.343 62.463-56.057 47.922 139.89-100.28 110.1-66.76 166.03-148.16 21.561-26.244 42.623-52.743 64.684-78.731 11.522-13.573 174.44-200.14 181.89-208.65 82.449-94.149 164.67-188.42 247.35-282.45 52.459-60.191 107.31-119.04 164.44-176.47 11.768-11.831 23.172-23.931 35.718-35.223 7.1941-6.475 31.425-23.67 23.363-17.952-51.104 36.252-101.67 73.043-152.51 109.57-75.816 104.75-146 211.73-217.58 318.13-52.006 76.697-102.35 154.06-146.75 233.35l134.52-95.317c26.339-69.898 65.815-137.16 106.65-203.38 46.722-73.221 93.98-144.68 149.22-214.56 54.462-68.897 45.023-53.436 97.813-113.9 9.4876-10.867 18.437-22.017 27.656-33.026-49.186 32.307-99.104 63.809-147.56 96.919-2.3151 1.582-2.2868 4.5294-3.9308 6.5965-7.0783 8.9001-14.668 17.549-22.176 26.231-44.135 51.031-89.179 101.6-130.37 154.16-70.648 87.099-140.45 174.64-214.43 260.06-77.103 89.028-120.04 135.4-202.01 222.11-31.768 33.607-64.115 66.862-96.173 100.29-24.184 25.888-109.09 76.281-72.552 77.665 54.088 2.049 118.59-66.91 153.52-105.87 73.786-82.318 142.51-167.34 216.46-249.58 106.99-119.38 213.95-238.78 327.01-354.61 27.54-28.216 55.99-55.85 84.198-83.635 17.581-17.317 77.298-61.5 53.166-51.667-49.311 20.091-88.499 56.061-132.75 84.092 10.255-9.6838 5.2316-5.067-7.7636 8.3313-28.03 28.901-54.595 58.548-80.725 88.556-14.673 16.851-29.129 33.819-43.693 50.728-131.01 154.61-257.2 311.72-392.1 464.29-10.955 12.179-48.141 44.834-32.866 36.537 51.524-27.988 97.806-62.944 144.19-97.011 2.874-2.1103-0.97457-5.9286 0.0115-8.8891 2.9568-8.8764 7.4464-17.523 11.668-26.174 17.229-35.308 26.764-50.403 47.612-86.868 33.736-54.976 46.279-77.301 85.733-132.87 81.363-114.6 175.83-223.61 277.05-327.97 21.39-21.217 42.432-42.667 64.169-63.653 15.397-14.864 67.259-53.953 47.214-43.879-47.41 23.827-87.37 57.633-131.32 86.147-1.9619 1.273 5.9551-6.3106 5.3034-4.3875-3.1032 9.1542-30.048 41.833-30.828 42.841-98.411 126.6-186.55 257.54-274.06 388.63-8.9034 14.376-66.178 102.83-72.467 126.06-3.3576 12.402-9.5522 43.887 3.6161 36.488 133.11-74.792 127.52-94.286 162.33-180.6 27.833-63.871 16.255-38.05 45.391-101.9 6.7281-14.744 12.91-29.615 20.242-44.221 5.3688-10.695 29.183-38.743 17.83-31.618-118.03 74.075-146.72 146.6-124.24 92.788 30.638 22.883 53.005 52.597 82.264 76.66 42.287 43.264 80.847 89.07 119.94 134.47 25.683 32.342 50.765 65.212 65.999 102.86 0.68823 2.483 1.9114 4.8508 2.0385 7.4562 0.0874 1.7938-3.0553 6.8275-1.4078 5.4485 46.073-38.567 89.006-79.666 135.61-117.79 1.9409-1.5878 2.0927 4.2041 0.8371 6.1774-2.2919 3.6021-13.149-0.88525-13.939 0.41241-13.063-4.249-18.174-8.3972-29.228-14.628-17.123-9.6519-36.557-16.561-50.405-29.783-10.92-8.7001-22.247-17.062-32.761-26.1-108.93-93.632-194.35-205.39-264.35-323.25-20.223-42.565-49.174-98.913-64.158-145.19-4.8074-14.845 8.4674-52.033-10.18-45.771-54.529 18.312-92.502 63.769-138.66 95.754-13.128 9.0978 95.829-70.115 46.755 4.4429 15.678 11.345 32.283 21.877 47.033 34.034 41.782 34.439 97.037 89.692 131.59 126.94 53.884 58.078 109.29 122.61 152.33 187.24 20.775 31.197 37.283 64.546 55.925 96.819 12.131 21.287 25.349 42.078 36.391 63.861 7.3584 14.516-0.65424 51.287 18.747 44.908 56.831-18.684 99.137-63.373 144.99-98.741 4.9579-3.8241-13.468 3.4647-19.051 1.599-30.721-10.265-66.86-45.038-86.448-61.067-19.826-19.236-40.16-38.104-59.477-57.709-53.139-53.928-85.46-89.746-132.45-148.6-38.842-48.645-81.55-106.48-112.87-159.58-13.354-22.644-24-46.544-36.001-69.816-16.167-34.689-25.61-52.527-37.97-86.824-3.316-9.2016-5.7733-18.687-8.6566-28.031-3.7067-12.013-6.772-19.397-8.0888-31.478-0.33877-3.1059-0.0466-6.307-0.0709-9.4605l-147.9 116.7z" fill="#ff0707" opacity=".9603"/>
   <g fill="#fff" stroke="#ff100d" stroke-width="12.492">
    <path d="m29.444 688.02q0 28.233-1.3669 84.948-1.2092 56.466-1.2092 84.948v163.21q0 6.6855-3.9377 6.6855-3.2623 0-9.918 0.4793-6.5192 0.4793-9.7787 0.4793-3.533 0-10.596-1.0064-7.0632-1.0065-10.596-1.0065-2.4446 0-5.8409-8.1712-9.7813-24.025-44.012-106.5-9.3739-23.033-28.526-67.858-0.55198-1.4857-2.0504-2.9714-1.0778 1.7253-1.0778 5.4443 0 28.731 0.8149 86.189 0.94632 57.458 0.94632 86.184 0 8.6698-3.667 8.6698h-47.001q-3.9404 0-3.9404-7.6777 0-26.747 1.367-80.74 1.4983-53.988 1.4983-80.984 0-28.482-1.3669-85.192-1.2092-56.715-1.2092-84.948 0-5.4492 5.2968-5.4492 7.8782 0 19.426-1.965 2.7154-0.47926 10.73-3.211 6.7926-2.2524 10.73-2.2524 1.6298 0 5.026 8.4204l50.67 126.56q6.7925 17.09 20.512 50.029 3.3963 7.6776 5.8409 7.6776 1.7612 0 1.7612-19.319 0-26.004-1.6298-78.262-1.4983-52.258-1.4983-78.507 0-9.1634 2.8521-9.1634 8.1515 0 24.589-1.2461 16.437-1.246 24.586-1.246 2.5761 0 2.5761 7.6776z" style="font-variant-caps:normal;font-variant-east-asian:normal;font-variant-ligatures:normal;font-variant-numeric:normal;white-space:pre"/>
    <path d="m184.44 905.96q0 56.466-19.018 91.634-18.882 35.168-49.719 35.168-29.883 0-49.172-34.669-19.289-34.674-19.289-89.161 0-57.458 18.474-93.119 18.474-35.911 49.987-35.911 30.7 0 49.719 35.168 19.018 34.919 19.018 90.891zm-44.556 0q0-19.563-6.6559-34.425-6.6558-15.106-17.252-15.106-10.733 0-17.659 15.355-6.5217 14.363-6.5217 34.176 0 20.062 6.5217 34.425 6.9266 15.355 17.659 15.355 10.596 0 17.523-15.355 6.3851-14.363 6.3851-34.425z" style="font-variant-caps:normal;font-variant-east-asian:normal;font-variant-ligatures:normal;font-variant-numeric:normal;white-space:pre"/>
    <path d="m324.35 730.12q0 43.095-26.623 43.095-11.411 0-18.882-10.898-8.1515-11.89-8.1515-32.196 0-19.319 8.4223-31.703 7.7441-11.392 18.611-11.392 10.594 0 18.338 11.641 8.2856 12.384 8.2856 31.453zm-3.5303 184.01q0 18.082 0.39434 53.993 0.39426 35.662 0.39426 53.495 0 5.1999-3.3962 6.1919-4.6186 1.4858-20.785 1.4858-16.3 0-20.919-1.4858-2.9888-1.0064-3.667-3.2109-0.26284-1.0065-0.26284-7.4285 0-17.09 0.39425-51.266 0.39434-34.425 0.39434-51.764 0-70.335-2.9888-111.94-0.26284-3.9778-0.26284-5.2047 0-4.9506 3.6696-4.9506 3.8037 0 11.545 1.4856 7.8781 1.4857 11.818 1.4857 3.9404 0 11.819-1.2461 7.8781-1.246 11.818-1.246 3.2596 0 3.2596 4.9555 0 1.0064-0.26293 4.6967-2.9888 48.294-2.9888 111.94z" style="font-variant-caps:normal;font-variant-east-asian:normal;font-variant-ligatures:normal;font-variant-numeric:normal;white-space:pre"/>
    <path d="m564.24 1018.7q0 8.6649-4.0744 9.657-4.0744 1.0064-20.104 1.0064-16.571 0-20.648-1.4857-4.0744-1.4857-4.0744-12.135 0-11.392 0.39429-33.931 0.39431-22.784 0.39431-34.176 0-43.344-0.55203-61.671-0.81488-29.469-15.349-29.469-6.385 0-12.77 9.9062-6.2484 9.657-6.9266 21.547-0.55203 10.4-0.55203 60.923 0 11.641 0.3943 35.417 0.3943 23.527 0.3943 35.412 0 8.176-3.9378 8.176h-41.16q-3.8037 0-3.8037-10.155 0-11.641 0.39433-34.919 0.39434-23.282 0.39434-35.168 0-9.1634-0.26291-27.739-0.26284-18.576-0.26284-27.984 0-35.417-14.807-35.417-5.975 0-12.904 8.4205-7.6074 9.1634-7.6074 19.319 0 22.535 0.26292 67.359 0.26283 44.83 0.26283 67.12 0 6.192-0.81489 7.6776-0.8149 1.4857-4.2111 1.965-6.1143 1.0064-19.289 1.0064-8.559 0-19.426-1.4857-3.2596-0.4792-3.9404-1.7253-0.55206-1.246-0.55206-7.4284 0-19.812 0.26284-59.193 0.26292-39.625 0.26292-59.437 0-40.617-3.2596-91.389-0.26284-2.9714-0.26284-4.457 0-4.2175 1.8926-5.6936 2.9888-2.2525 11.274-3.7382 10.189-1.7254 12.089-2.2046 1.367-0.47925 10.733-5.1999 6.6558-3.4507 10.73-3.4507 2.5761 0 2.718 17.335 0.26291 17.09 1.0778 17.09 1.3669-1.0065 3.1255-3.4507 12.223-17.335 19.289-23.776 10.46-9.1634 22.683-9.1634 12.499 0 22.278 10.155 11.004 11.392 14.263 31.947 7.1999-17.828 19.833-29.968 12.633-12.135 24.589-12.135 17.93 0 29.205 15.106 12.767 17.09 12.767 48.793 0 13.127-0.39431 39.625-0.3943 26.254-0.3943 39.376 0 15.605 0.3943 47.058 0.39431 31.204 0.39431 46.809z" style="font-variant-caps:normal;font-variant-east-asian:normal;font-variant-ligatures:normal;font-variant-numeric:normal;white-space:pre"/>
    <path d="m726.58 903.98q0 19.07 1.2092 56.715 1.2355 37.641 1.2355 56.466 0 9.9062-4.7553 10.649-16.845 2.2526-38.578 2.2526-2.5761 0-3.5303-14.119-0.8149-14.363-2.0504-14.612-1.0778 1.0064-2.8521 4.2175-15.215 27.984-32.601 27.984-26.489 0-43.878-38.139-16.434-35.661-16.434-85.192 0-57.214 16.979-92.132 17.659-36.16 48.36-36.16 21.326 0 33.689 27.246 0.55202 1.246 0.94632 1.246 1.2092 0 2.718-11.885 1.6298-12.14 3.8037-12.14 5.026 0 19.153 5.2047 13.448 4.9507 19.289 8.4205 2.0504 1.4857 2.0504 3.9778 0 1.0064-0.42059 5.2047-4.3452 44.825-4.3452 94.854zm-43.741 1.4857q0-21.054-7.3366-34.674-7.1973-13.87-18.882-13.87-11.682 0-18.882 13.62-7.1973 13.625-7.1973 34.923 0 20.057 7.6048 34.425 7.6074 14.363 18.474 14.363 11.548 0 18.882-13.62 7.3366-13.87 7.3366-35.168z" style="font-variant-caps:normal;font-variant-east-asian:normal;font-variant-ligatures:normal;font-variant-numeric:normal;white-space:pre"/>
    <path d="m888.9 963.42q0 70.585-16.3 101.3-16.845 31.449-55.967 31.449-11.411 0-31.108-6.6855-25.13-8.4205-25.13-19.812 0-4.6968 5.8409-48.539 0.94632-6.9349 2.9888-6.9349 0.68345 0.4793 1.4983 1.0064 20.922 18.825 38.715 18.825 9.7813 0 19.426-8.9189 11.682-10.649 11.682-26.747v-16.592q-13.856 23.776-35.59 23.776-25.538 0-41.975-33.433-15.893-32.196-15.893-79.254 0-47.302 15.215-78.507 15.893-32.446 41.565-32.446 20.514 0 31.381 26.747 2.1818 5.4492 2.9888 5.4492 1.2092 0 1.2092-8.9142 0-19.812 2.4447-19.812 2.1818 0 23.5 4.2174 21.326 3.9778 22.141 4.4571 2.3132 1.4857 2.3132 6.4411 0 17.09-0.68341 51.017-0.55205 33.931-0.55205 51.022 0 10.151 0.26284 30.461 0.26291 20.306 0.26291 30.461zm-47.001-68.6q0-18.082-6.6558-31.209-6.5218-13.371-16.437-13.371-9.918 0-16.574 13.62-6.5191 13.376-6.5191 31.453 0 18.078 6.6558 31.204 6.7925 13.127 16.437 13.127 9.9153 0 16.437-13.371 6.6558-13.376 6.6558-31.453z" style="font-variant-caps:normal;font-variant-east-asian:normal;font-variant-ligatures:normal;font-variant-numeric:normal;white-space:pre"/>
    <path d="m1036.7 893.33q0 25.012-8.8297 28.477-1.4984 0.47929-28.119 5.4491-16.03 3.211-47.816 7.6776 1.8926 16.098 11.545 24.519 7.8781 6.9347 17.93 6.9347 12.089 0 24.315-11.885 5.1628-5.9475 10.326-11.89 2.8522 2.4922 9.5079 25.262 6.7925 22.784 6.7925 28.976 0 1.7253-2.0503 5.6983-16.574 32.441-51.485 32.441-32.33 0-52.161-34.425-20.377-34.919-20.377-93.369 0-56.959 18.204-93.368 18.745-37.641 49.716-37.641 26.082 0 44.285 34.669 18.204 34.674 18.204 82.475zm-47.545-15.111q0-15.355-5.9776-26.992-5.9775-11.641-14.263-11.641-8.559 0-14.127 13.127-5.1627 12.135-5.1627 28.477 0 6.6905 3.8037 6.6905 10.052 0 31.244-5.6984 4.4818-1.246 4.4818-3.9778z" style="font-variant-caps:normal;font-variant-east-asian:normal;font-variant-ligatures:normal;font-variant-numeric:normal;white-space:pre"/>
    <path d="m172.1 1249.3q0 5.9427-3.5303 5.9427-14.671 0-23.093-1.4857 0.39434 18.571 0.8149 51.76 0.26284 14.119 1.2355 49.037 0.94632 31.453 0.94632 49.037 0 5.1999-3.8037 5.9427-4.6186 1.0064-23.093 1.0064-15.351 0-19.97-1.4855-4.6186-1.4858-4.6186-10.156v-136.46q0-7.1793-5.4335-7.1793-0.94632 0-3.1229 0.4793-2.0504 0.4792-2.9888 0.4792-3.8037 0-3.9404-3.9778-1.2092-21.542-1.2092-62.658 0-9.1633 5.1628-11.143 4.6186-0.7189 9.3739-1.2462-0.68348-19.812-0.68348-30.955 0-42.596 9.1031-61.915 18.067-38.388 58.409-38.388 2.7181 0 3.2622 2.9714 1.0777 11.147 3.1229 32.939 0.26284 1.9649 1.7611 13.87 1.2355 9.1634 1.2355 14.114 0 5.9475-9.6446 7.6778-11.138 2.2524-13.719 7.4332-4.4846 8.9141-4.4846 34.918 0 8.1712 0.68347 15.355 3.8037 0 11.819-0.4793 8.0148-0.4793 12.089-0.4793 4.0745 0 4.0745 5.4491 0 11.641 0.26293 35.168 0.26283 23.282 0.26283 34.923z" style="font-variant-caps:normal;font-variant-east-asian:normal;font-variant-ligatures:normal;font-variant-numeric:normal;white-space:pre"/>
    <path d="m317.59 1287.2q0 56.466-19.018 91.634-18.882 35.168-49.716 35.168-29.885 0-49.175-34.669-19.289-34.674-19.289-89.161 0-57.458 18.474-93.119 18.474-35.911 49.99-35.911 30.698 0 49.716 35.168 19.018 34.918 19.018 90.891zm-44.556 0q0-19.563-6.6559-34.425-6.6558-15.106-17.252-15.106-10.733 0-17.659 15.355-6.5191 14.363-6.5191 34.176 0 20.062 6.5191 34.425 6.9266 15.355 17.659 15.355 10.596 0 17.523-15.355 6.3851-14.363 6.3851-34.425z" style="font-variant-caps:normal;font-variant-east-asian:normal;font-variant-ligatures:normal;font-variant-numeric:normal;white-space:pre"/>
    <path d="m473.94 1183.9q0 18.327-0.94628 54.98-0.94633 36.653-0.94633 54.98 0 17.833 0.68342 53.494 0.68346 35.666 0.68346 53.25 0 6.6856-3.3936 8.4205-5.1627 2.4921-21.871 2.4921-14.807 0-20.648-1.4856-2.5761-0.719-3.2596-5.9429-0.39426-7.4285-0.81489-14.857-0.6834-11.392-1.8926-11.392 1.8926 0-13.719 16.841-15.622 16.841-28.392 16.841-35.997 0-42.653-59.193-2.9889-27.49-2.9889-79.748 0-56.466 5.0261-89.156 1.4984-10.156 5.5702-10.156 6.2483 0 19.018 0.4793 12.767 0.4793 19.016 0.4793 4.2111 0 4.2111 6.4412 0 1.7253-0.26285 5.1999-2.8522 33.682-2.8522 68.356 0 43.09 1.4984 58.944 2.4447 27.241 17.796 27.241 5.9776 0 12.904-9.6569 7.0632-9.6618 7.3366-20.062 0.26284-9.1634 0.26284-124.33 0-8.1713 0.68348-9.6569 0.8149-2.4922 4.892-2.4922 6.6558 0 19.967 0.4793 13.448 0.4792 20.104 0.4792 4.0744 0 4.7553 3.7382 0.26285 1.9649 0.26285 5.9427z" style="font-variant-caps:normal;font-variant-east-asian:normal;font-variant-ligatures:normal;font-variant-numeric:normal;white-space:pre"/>
    <path d="m631.65 1401.8q0 6.6857-3.8037 7.6776-3.8037 1.0064-19.831 1.0064-17.118 0-21.192-1.4855-4.0744-1.4858-4.0744-10.156 0-11.641 0.39429-35.168 0.39435-23.526 0.39435-35.417 0-9.1633-0.26292-27.241-0.26285-18.327-0.26285-27.49 0-33.931-16.164-33.931-5.2994 0-12.363 8.4205-7.6074 9.4125-7.6074 18.576v133.74q0 8.1713-4.2112 9.1634-4.7526 1.0064-19.423 1.0064-15.893 0-20.648-1.4856-4.2112-1.2462-4.2112-8.1762 0-19.314 0.26285-58.196 0.26292-38.887 0.26292-58.45 0-61.666-5.2968-96.833-0.26285-2.2524-0.26285-3.7382 0-3.9778 2.0504-5.4491 8.5564-1.7254 22.82-5.4444 21.6-7.6776 24.315-7.6776 1.4984 0 2.3133 16.841 0.81484 16.592 2.3132 16.592-1.4984 0 14.537-17.09 16.164-17.335 28.253-17.335 17.252 0 28.8 14.862 12.904 17.085 12.904 47.547v79.005q0 16.098 0.26286 48.294 0.26287 31.947 0.26287 48.045z" style="font-variant-caps:normal;font-variant-east-asian:normal;font-variant-ligatures:normal;font-variant-numeric:normal;white-space:pre"/>
    <path d="m798.19 1057.6q0-5.4492-1.0778 16.347-1.4983 27.49-2.3132 70.335-1.0778 48.539-1.0778 110.45 0 102.29 3.1255 145.63 0.26286 4.6968 0.26286 5.9428 0 2.7318-2.024 3.2109-4.892 1.2462-35.997 1.2462-7.3367 0-8.4223-5.2047-0.26286-9.4078-0.55199-18.82-0.2629-1.9649-1.0777-3.9777-0.81491 0.7188-2.0504 2.9713-14.671 26.254-36.675 26.254-28.663 0-45.915-36.654-16.437-34.923-16.437-88.168 0-53.988 16.166-88.911 17.115-37.147 46.186-37.147 20.512 0 31.923 23.776 1.8926 3.9779 2.7154 3.9779 1.2355 0 1.2355-6.4413 0-19.07-0.55204-56.964-0.55204-37.89-0.55204-56.71 0-7.184 2.1818-8.1761 8.693-0.7188 23.908-2.9713 27.167-6.192 24.045-6.192 2.9862 0 2.9862 6.192zm-51.212 227.6q0-19.568-7.4707-34.18-7.4707-14.857-18.067-14.857-11.138 0-17.793 14.857-6.5217 14.612-6.5217 35.168 0 20.062 6.6558 33.931 6.7925 14.862 17.659 14.862 10.867 0 18.204-14.862 7.334-14.862 7.334-34.919z" style="font-variant-caps:normal;font-variant-east-asian:normal;font-variant-ligatures:normal;font-variant-numeric:normal;white-space:pre"/>
   </g>
  </g>
 </g>
</svg>
