<?xml version="1.0" encoding="UTF-8"?>
<svg width="50px" height="50px" inkscape:version="1.0 (4035a4fb49, 2020-05-01)" sodipodi:docname="beepbeep.svg" version="1.1" viewBox="0 0 1058.5 902.06" xmlns="http://www.w3.org/2000/svg" xmlns:cc="http://creativecommons.org/ns#" xmlns:dc="http://purl.org/dc/elements/1.1/" xmlns:inkscape="http://www.inkscape.org/namespaces/inkscape" xmlns:rdf="http://www.w3.org/1999/02/22-rdf-syntax-ns#" xmlns:sodipodi="http://sodipodi.sourceforge.net/DTD/sodipodi-0.dtd">
 <sodipodi:namedview id="base" bordercolor="#666666" borderopacity="1.0" inkscape:current-layer="g123" inkscape:cx="2032.0079" inkscape:cy="2412.8794" inkscape:document-rotation="0" inkscape:document-units="mm" inkscape:pageopacity="0.0" inkscape:pageshadow="2" inkscape:snap-bbox="false" inkscape:snap-global="false" inkscape:snap-nodes="true" inkscape:window-height="1040" inkscape:window-maximized="0" inkscape:window-width="1274" inkscape:window-x="407" inkscape:window-y="13" inkscape:zoom="0.061871843" pagecolor="#ffffff" showgrid="false"/>
 <metadata>
  <rdf:RDF>
   <cc:Work rdf:about="">
    <dc:format>image/svg+xml</dc:format>
    <dc:type rdf:resource="http://purl.org/dc/dcmitype/StillImage"/>
    <dc:title/>
   </cc:Work>
  </rdf:RDF>
 </metadata>
 <g transform="translate(-131.44 620.8)" inkscape:groupmode="layer" inkscape:label="Layer 1">
  <g transform="matrix(1.9363 0 0 1.9363 -1489.3 -296.45)">
   <g transform="matrix(5.775 0 0 5.84 -975.81 -866.08)">
    <path d="m355.82 193.86c1.9738-4.1986 7.3383-5.2186 9.5314 0.0538-0.823 1.5131-6.6884 1.2358-9.5314-0.0538zm3.5524-57.275c5.3667 23.487-2.0121 52.184 1.8669 55.602-2.9418-9.5866 3.4984-35.854-1.8669-55.602zm0.54043 51.696c-0.0476-0.69123-0.0589-2.2701-0.0249-3.5085 0.0651-2.377 0.1313-3.3582 0.76283-11.311 0.80703-10.163 0.94213-13.254 0.87171-19.948-0.0291-2.7669-0.10498-5.6053-0.1686-6.3076-0.17385-1.9192-0.0881-2.1946 0.17305-0.55585 0.58982 3.7008 0.76649 6.7592 0.68968 11.939-0.076 5.1253-0.25345 7.597-1.2143 16.914-0.75198 7.2919-0.86287 8.6545-0.93744 11.521l-0.0654 2.5136zm0 0c-0.0476-0.69123-0.0589-2.2701-0.0249-3.5085 0.0651-2.377 0.1313-3.3582 0.76283-11.311 0.80703-10.163 0.94213-13.254 0.87171-19.948-0.0291-2.7669-0.10498-5.6053-0.1686-6.3076-0.17385-1.9192-0.0881-2.1946 0.17305-0.55585 0.58982 3.7008 0.76649 6.7592 0.68968 11.939-0.076 5.1253-0.25345 7.597-1.2143 16.914-0.75198 7.2919-0.86287 8.6545-0.93744 11.521l-0.0654 2.5136zm-0.7054-51.855c-7.1644-8.0216-24.789-4.7546-33.816-0.89409 11.312 6.2716 3.5502 35.997 3.3524 53.76 12.629-17.387 29.957 0.77034 32.65 2.9582 0.12899-13.451 20.459-4.0257 30.924-3.204 1.8606-21.657-8.632-43.587 1.7673-58.113-8.3692 2.5897-29.687 7.9113-34.877 5.4927zm-3.3919 57.279c2.4718-4.4671 7.7125-3.7659 9.7768 0 1.4185 1.7709-10.896 1.6519-9.7768 0zm41.51 1.7336c-6.1616-3.6237-19.748-10.6-32.466-3.9778m-41.851 3.5416c6.6676-3.4244 21.369-10.017 35.132-3.759m-2.5844-56.055c-10.048-5.3408-20.913-2.1884-30.602 2.1667 3.1344 18.524 0.23579 37.65 0.0332 54.989 11.205-5.2094 26.463-8.2141 33.204-1.2094 3.0826-0.77967 0.9174-0.47707 5.6246 0.53558 7.6821-7.5946 21.028-3.5448 31.04 0.65063 2.0361-21.124-7.7961-40.647 0.35886-55.144-7.0678-4.9521-18.15-6.4628-30.312-2.5574-9.7374 5.1388-3.9617 0.56863-9.3464 0.56863zm-0.25564 2.7566c-10.626-5.3629-22.117-2.1974-32.364 2.1757 3.3149 18.601 0.24936 37.806 0.0351 55.216 10.712-3.5484 23.343-7.6914 33.434-2.8839 3.2606-0.78656 3.7681-2.5381 8.5479 0.17486 8.2759-5.0393 21.359-0.88244 31.91 2.6858 2.1534-21.211-8.2451-40.815 0.37952-55.371-7.4749-4.9726-19.196-6.4894-32.058-2.568-4.9927 2.0715-3.7723 3.2129-9.8847 0.57097zm-0.42144 0.0647c-10.83-5.4013-22.939 0.39778-33.382 4.8022 3.4633 18.554-0.26325 35.024-0.26325 53.445 10.918-3.5738 24.887-8.6459 35.172-3.804 3.3232-0.7922 3.6764-2.5575 8.5479 0.17486 8.4347-5.0754 21.606-0.21402 32.36 3.3797 3.4323-18.318-4.7755-36.009 1.5335-54.422-7.6183-5.0082-20.784-8.1-33.894-4.1505-5.0885 2.0863-3.8447 3.2359-10.074 0.57506zm-0.27932 3.309c-13.518-0.99908-24.506 0.67032-34.571 2.8309v54.359c25.728-4.8765 51.467-6.6164 79.904 0.49542v-54.855c-10.104-2.4846-21.012-4.0957-34.571-2.8309z" fill="#ba3f4d" stroke="#000" stroke-linecap="round" stroke-linejoin="round" stroke-width=".76501" sodipodi:nodetypes="ccccccccsssssssccccsssssssccccccccccccccccscccccccssscccccccsscccccccccccccccc"/>
    <g fill="#fff094">
     <path transform="scale(.26458)" d="m1355.6 715.32c-32.267-27.558-62.832-36.175-87.366-24.629-6.3216 2.975-12.033 7.148-18.149 13.26l-5.7622 5.7587 0.345-7.0087c0.4568-9.2793 1.9002-25.142 4.6133-50.698 4.5541-42.896 5.5556-57.979 5.1647-77.782-0.2718-13.773-1.1077-22.414-2.9233-30.218-0.5383-2.3137-0.9787-4.3772-0.9787-4.5856 0-0.81219 22.229-3.1952 38.433-4.1202 9.9642-0.56878 17.929-0.52076 57.158 0.34464 13.784 0.30407 14.025 0.32752 14.263 1.3878 0.3721 1.659 1.6613 12.531 2.254 19.009 1.0533 11.512 1.5201 23.779 1.5184 39.901 0 20.666-0.4484 29.753-3.0906 62.943-1.8557 23.311-2.1307 28.718-2.1613 42.51-0.03 13.522 0.074 15.87 0.7226 16.281 0.6734 0.42645 0.6734 0.47813 0 0.4652-0.4167-8e-3 -2.235-1.2763-4.0406-2.8184z"/>
     <path transform="scale(.26458)" d="m1364.9 715.8c-0.2228-0.50231-0.4952-8.0728-0.6054-16.823-0.2-15.887-0.197-15.942 2.0882-38.638 1.2587-12.501 2.6497-27.16 3.091-32.577 1.1125-13.654 0.1535-42.967-0.5899-54.043-0.6196-12.782-7.7693-64.643-9.0578-54.362 36.192-0.33601 85.689-26.739 120.37-13.751 0.1258 0.12579-9.1434 36.214-9.4861 39.916-0.822 8.8758-0.3278 30.43 0.9881 43.097 1.1475 11.045 1.7781 16.25 4.8345 39.901 2.5668 19.863 4.0791 34.418 4.8015 46.214 0.5771 9.423 0.6736 27.433 0.1809 33.762l-0.3281 4.2153-2.8256-0.33975c-4.842-0.58221-15.295-2.7222-33.383-6.8345-28.269-6.427-37.984-7.8638-50.226-7.4288-10.973 0.38991-17.395 2.4517-22.495 7.2223-2.8769 2.691-4.2351 4.7027-5.8385 8.6478-0.8937 2.1989-1.1913 2.5564-1.5168 1.8222z" sodipodi:nodetypes="ssssccccsssscssssss"/>
     <path transform="scale(.26458)" d="m1464.4 534.06c-7.849-1.1413-19.3-2.1944-30.557-2.8102-11.325-0.61948-35.063-0.33373-44.952 0.54112-2.9168 0.25805-9.7678 0.47909-15.224 0.4912-8.5941 0.0191-9.9622-0.0848-10.228-0.7769-0.7052-1.8377-0.3075-2.658 1.5875-3.2745 1.0417-0.33894 4.7533-2.051 8.248-3.8046s8.2677-3.7421 10.607-4.4189c19.271-5.5761 43.988-7.0424 65.448-3.8825 11.996 1.7665 25.676 5.2018 25.239 6.3384-0.1277 0.33261-0.7357 2.967-1.3511 5.8542-0.6155 2.8872-1.1962 5.5335-1.2905 5.8808-0.2057 0.75734-1.5362 0.73292-7.5268-0.13818z"/>
     <path transform="scale(.26458)" d="m1249 534.74c-0.266-0.64628-0.9536-2.2898-1.5281-3.6522s-0.985-2.5239-0.9121-2.581c0.4974-0.39006 15.352-5.5401 20.088-6.9644 22.67-6.8179 41.429-8.1486 57.9-4.1072 5.053 1.2398 6.9147 1.9241 20.376 7.4895 3.7472 1.5492 8.4633 3.1839 10.48 3.6327 2.017 0.44873 3.6703 0.96353 3.6741 1.144 0 0.18046 0.1521 0.87058 0.3295 1.5336l0.3227 1.2055-15.861-0.31881c-8.7233-0.17535-21.202-0.46207-27.73-0.63715-18.597-0.49877-52.82 1.6801-65.274 4.1558-1.1102 0.22069-1.4773 0.0435-1.8658-0.90031z"/>
     <path transform="scale(.26458)" d="m1353.5 523.74c-2.3557-0.7916-7.5764-2.9116-11.602-4.7111-22.226-9.9362-41.905-12.211-68.18-7.8823-7.3324 1.208-19.074 4.1209-27.022 6.7033l-5.5559 1.8054-2.9328-2.9299 1.9715-0.83837c4.5551-1.9371 14.325-5.4349 20.304-7.2691 21.871-6.7096 41.477-8.2293 59.102-4.5813 6.8348 1.4146 13.993 3.9429 22.786 8.0479 4.2578 1.9878 9.2745 4.1116 11.148 4.7197l3.4066 1.1056 0.6212 3.4418c0.3416 1.893 0.5343 3.5286 0.4281 3.6348-0.1061 0.10616-2.1204-0.45466-4.4761-1.2463z"/>
     <path transform="scale(.26458)" d="m1230.2 718.56c0.2279-10.26 1.1419-30.555 2.4059-53.418 1.9269-34.856 2.2402-42.353 2.5855-61.872 0.3295-18.626-0.2536-38.844-1.5441-53.538-0.366-4.1669-3.6379-28.3-3.5545-28.386 0.7282-0.74329 1.1312-0.4259 4.5088-1.3731 6.7692-1.8984 12.486 19.331 13.408 23.698 2.312 10.948 3.1232 19.797 3.118 35.86-0.01 19.014-0.9163 31.476-5.3849 73.741-3.6953 34.952-5.0506 52.138-4.7196 59.852 0.1447 3.3732 0.2761 3.8043 1.1999 3.9365 0.7779 0.1113 1.8816-0.91703 4.4136-4.112 1.857-2.3432 5.5147-6.2739 8.1282-8.7347 21.944-20.662 49.679-20.224 81.962 1.2954 9.4129 6.2743 18.607 13.624 17.912 14.319-0.3338 0.33382-1.3772-0.26197-3.1035-1.7721-10.711-9.3695-29.622-14.012-51.003-12.519-19.52 1.3623-41.061 6.6529-62.124 15.258-4.028 1.6456-7.5509 3.0958-7.8287 3.2227-0.3244 0.14818-0.4599-1.804-0.3787-5.4577z" sodipodi:nodetypes="ssssssscssssssssssss"/>
     <path transform="scale(.26458)" d="m1222.6 728.58c0.3697-12.056 1.2687-30.42 2.6732-54.602 0.8067-13.89 1.7342-31.915 2.0612-40.057 0.7483-18.634 0.3342-57.992-0.737-70.05-0.8267-9.3055-3.4888-30.582-3.8587-32.301-0.1966-0.9139 0.7861 0.31931 2.3833 0.0362 1.0393-0.18419 2.1589-2.2403 2.6036-2.3699 0.6974-0.20334 2.5075 14.174 2.5405 20.609 0.077 14.915 1.5613 24.961 1.5681 42.31 0.01 20.441-0.4492 33.39-2.5231 71.468-2.8082 51.56-3.1514 64.3-1.7468 64.839 0.4254 0.16325 3.8915-1.0365 7.7024-2.6661 39.628-16.946 77.949-21.72 101.06-12.591 4.3197 1.7061 6.8069 2.9351 6.5201 3.2219-0.1107 0.11073-3.257-0.56699-6.9917-1.506s-9.6989-2.081-13.254-2.5377c-7.6613-0.98419-22.515-1.1233-30.155-0.28248-20.39 2.2442-41.184 8.5093-64.18 19.337l-5.8431 2.7512z" sodipodi:nodetypes="sssssssscssssssssscs"/>
     <path transform="scale(.26458)" d="m1215.7 737.49c0.018-10.823 1.2501-34.129 3.5314-66.796 2.6669-38.189 2.7687-40.597 2.7669-65.407 0-25.898-1.5675-40.006-4.6603-57.619-1.5714-8.9484-0.3669-8.6011 2.8015-7.9899 0.9501 0.18328 1.0807 4.8186 1.5989 8.8598 2.1269 16.584 3.2816 43.978 2.8265 65.082-0.3879 17.994-0.8617 28.6-2.8089 62.882-1.9818 34.89-2.5206 46.612-2.5222 54.878v6.8954l-1.5906 0.55448c-0.8748 0.30497-1.6703 0.55449-1.7678 0.55449-0.097 0-0.1757-0.85232-0.174-1.894z" sodipodi:nodetypes="cscsscssccsscc"/>
     <path transform="scale(.26458)" d="m1371.9 720.02c-1.7181-0.87534-3.1384-1.9324-3.1564-2.3491-0.07-1.6303 3.0691-7.1788 5.2746-9.3223 8.5374-8.2974 24.778-9.1992 54.291-3.0147 16.078 3.3693 18.676 4.3775 6.3134 2.4498-7.7354-1.2061-23.036-1.229-29.547-0.0442-10.134 1.844-20.028 6.111-26.715 11.522-1.6655 1.3476-3.0977 2.4277-3.1828 2.4002-0.085-0.0275-1.5602-0.76616-3.2782-1.6415z"/>
     <path transform="scale(.26458)" d="m1474.3 728.21c-8.3803-2.6015-22.432-6.1473-30.557-7.7109-19.948-3.8387-38.308-3.7471-51.945 0.25931-5.6207 1.6513-4.4287 0.67142 1.5191-1.2487 9.0051-2.9071 15.372-3.947 25.964-4.2409 10.257-0.28462 16.338 0.22122 25.725 2.1397 11.021 2.2526 23.196 6.2882 33.499 11.104 4.6988 2.1961 3.5851 2.116-4.2049-0.3022z"/>
     <path transform="scale(.26458)" d="m1242.9 728.71c1.25-0.55409 5.0218-2.0039 8.3816-3.2218 31.042-11.253 58.365-13.645 83.565-7.3161 5.1512 1.2936 13.952 4.2106 14.571 4.8292 0.1241 0.12402-0.2875 0.77159-0.9146 1.439l-1.14 1.2136-2.6107-1.1546c-16.81-7.434-40.54-8.869-66.772-4.0378-7.627 1.4047-22.34 5.0305-30.714 7.5692-6.5117 1.974-7.7067 2.1599-4.3662 0.67928z"/>
     <path transform="scale(.26458)" d="m1490.7 730.71c-33.078-17.13-62.456-22.66-89.398-16.828-3.0557 0.66147-7.3359 1.8035-9.5116 2.5379-2.1756 0.73439-4.055 1.236-4.1764 1.1146-0.4646-0.46457 8.1229-3.9937 12.567-5.1647 20.577-5.4215 47.858-1.1957 83.596 12.949 7.3932 2.9261 8.9745 3.3958 9.5373 2.8331 1.1907-1.1907 1.8195-13.614 1.5274-30.18-0.35-19.853-1.1686-28.667-5.9111-63.64-4.9476-36.485-5.7135-44.535-5.7428-60.357-0.022-11.933 0.5577-19.015 2.2537-27.527 0.5258-2.639 0.9582-4.9405 0.9608-5.1144 0-0.32669 5.9438 0.78361 6.3468 1.1866 0.1246 0.12462-0.196 1.4571-0.7124 2.9611-1.6696 4.8623-3.5614 13.69-4.32 20.16-2.3204 19.786-1.4387 33.711 5.0052 79.044 3.387 23.828 4.8501 35.871 5.8908 48.487 0.6814 8.2611 0.7347 37.438 0.073 39.923l-0.4094 1.5373z"/>
     <path transform="scale(.26458)" d="m1483.9 721.66c-8.289-3.3001-19.427-7.0794-27.274-9.2545-7.8123-2.1655-6.9603-2.2999 1.9062-0.30075 9.3247 2.1025 17.919 3.5338 22.068 3.6752l3.5189 0.11989 0.4444-2.5254c0.2444-1.389 0.4717-10.026 0.5052-19.193 0.079-21.516-0.6895-31.152-5.4553-68.438-5.1307-40.141-5.8788-48.561-5.8558-65.912 0.013-10.099 0.5772-20.152 1.1629-20.735 0.077-0.0769 1.9683 0.19722 4.2023 0.60911l4.0619 0.74889-0.8946 4.3854c-2.0121 9.8633-2.5582 17.754-2.2784 32.922 0.2882 15.618 0.7525 20.757 4.1991 46.467 5.5419 41.34 6.4659 49.974 7.246 67.71 0.3971 9.028 0.1614 24.999-0.4748 32.168-0.027 0.30359-1.1316-0.0782-7.0822-2.4473z"/>
     <path transform="scale(.26458)" d="m1361.4 521.97c-0.4505-1.7933-0.819-3.3843-0.819-3.5355s0.8572-0.27501 1.905-0.27501c1.3797 0 3.9914-1.0677 9.4702-3.8714 13.886-7.106 21.06-8.4828 55.853-10.719 14.546-0.93503 15.123-0.93603 21.213-0.0365 9.8896 1.4608 16.844 3.2572 24.783 6.4011l4.3802 1.7348-0.5156 1.4789c-0.2835 0.81337-0.7006 1.5932-0.9268 1.733-0.2261 0.1398-2.988-0.40839-6.1374-1.2182-43.152-10.067-64.881 8.707-100.37 8.0594-3.9963 1.9301-7.4348 3.5094-7.641 3.5094-0.2063 0-0.7436-1.4672-1.194-3.2605z" sodipodi:nodetypes="ssssssscssccss"/>
     <path transform="scale(.26458)" d="m1477.8 507.84c-2.0264-1.102-11.025-4.1099-15.272-5.1049-2.1492-0.50352-3.8409-0.98236-3.7591-1.0641 0.082-0.0817 3.4312-0.50249 7.4432-0.93501 4.0121-0.43253 9.841-1.2339 12.953-1.7809s5.7606-0.9945 5.8855-0.9945-0.7504 1.7154-1.9452 3.8119c-1.1948 2.0966-2.4503 4.483-2.79 5.3033-0.6987 1.6866-0.7762 1.7102-2.5155 0.76423z"/>
     <path d="m390.28 142.05c0.25272-2.0901 0.94667-4.0292 1.5712-6.1157l1.0912 0.5648c0.65118 0.33704 1.6796 0.8154 1.6637 0.89714-0.89612 1.8835-1.6692 3.7555-2.2169 5.7595-1.0283-0.36256-2.6676 1.6425-2.1092-1.1058z" sodipodi:nodetypes="ccsccc"/>
     <path transform="scale(.26458)" d="m1485.2 518.56c-4.7364-1.9847-4.9439-2.1361-4.6362-3.3831 0.1772-0.71801 0.48-1.4681 0.673-1.6669 0.2614-0.26924 9.1881 4.5003 10.066 5.3783 0.243 0.24303-0.4774 1.803-0.8199 1.7755-0.1786-0.0144-2.556-0.96108-5.2831-2.1038z"/>
     <path transform="scale(.26458)" d="m1492.3 544.55c-2.2051-0.50309-3.6098-2.0505-5.9185-2.5056-0.1856-1.9737 3.0093-10.547 4.4875-13.421 0.2491-0.24908 1.8534 0.28821 3.7046 1.2406l3.2652 1.68c-1.3496 2.4454-4.8049 10.461-5.5388 13.006z" sodipodi:nodetypes="cccscc"/>
     <path transform="scale(.26458)" d="m1498.3 547.9c-0.1587-0.92618-1.9887-4.1733-1.9887-4.2963 0-0.30601 4.2155-9.9397 4.4598-10.184 0.1078-0.10779 1.2132 0.40015 2.4564 1.1287l2.2605 1.3247-0.802 2.5079c-3.992 12.483-4.4699 20.699-6.386 9.519z" sodipodi:nodetypes="sssscss"/>
     <path transform="scale(.26458)" d="m1502.4 705.54c-0.4645-17.288-1.5966-28.062-6.6734-63.506-4.9349-34.453-6.1714-48.24-5.652-63.016 0.4855-13.814 2.2806-24.555 5.6652-33.897l0.7524-2.0768 2.8131 0.65393c1.5472 0.35967 2.9254 0.76619 3.0626 0.90339s-0.3354 2.823-1.0502 5.9685c-3.122 13.738-4.2891 23.695-4.6957 40.064-0.3513 14.142 0.2703 27.056 2.4068 50.003 3.4683 37.251 3.5704 38.758 3.8487 56.821 0.152 9.8616 0.1785 18.385 0.059 18.94-0.1196 0.55558-0.3609-4.331-0.5364-10.859z"/>
     <path transform="scale(.26458)" d="m1244.1 524.03c-0.3219-0.70651-0.4234-1.3801-0.2255-1.497 0.9709-0.57323 12.194-3.9694 17.752-5.372 7.398-1.8668 19.933-4.062 22.927-4.0151 1.5556 0.0244 0.6534 0.33655-3.4494 1.1936-8.2094 1.7149-14.387 3.4938-24.914 7.1746-12.059 4.2163-11.38 4.0752-12.091 2.5159z"/>
     <path transform="scale(.26458)" d="m1232.4 538.59c0-0.1105-0.1174-1.125-0.2552-2.2545s-0.2462-2.0565-0.2408-2.06c0.062-0.041 9.2-3.7907 10.532-4.3216 0.7931-0.31621 0.9828-0.36351 1.0471-0.26118 0.3597 0.57198 2.5056 5.9231 2.6347 6.5698l0.05 0.25162-1.6807 0.25615c-2.1245 0.32379-9.2339 1.5056-10.822 1.7989-0.6603 0.12196-1.214 0.22174-1.2306 0.22174-0.016 0-0.032-0.0904-0.035-0.20089z"/>
     <path transform="scale(.26458)" d="m1223.6 539.15c-0.091-0.68725-0.1478-1.2649-0.127-1.2837 0.053-0.0483 5.368-2.297 5.4753-2.3167 0.089-0.0163 0.557 3.6618 0.4764 3.7424-0.03 0.0303-5.5197 1.1075-5.6439 1.1075-0.01 0-0.09-0.5623-0.1808-1.2496z"/>
     <path transform="scale(.26458)" d="m1216.9 541.23c-0.05-0.28701-0.082-0.5309-0.072-0.54199 0.01-0.0111 0.86-0.37655 1.8884-0.81214l1.8697-0.79198 0.106 0.67821c0.058 0.37302 0.1247 0.79964 0.1474 0.94804l0.041 0.26983-1.7544 0.34933c-0.965 0.19214-1.8403 0.36581-1.9451 0.38593-0.1695 0.0325-0.2006-0.0211-0.2812-0.48523z"/>
     <path transform="scale(.26458)" d="m1222.9 534.75c-7e-4 -0.0123-0.1599-0.96462-0.3539-2.1163s-0.3441-2.1022-0.3336-2.1122c0.023-0.0223 3.5188-1.4841 4.7573-1.9895 0.4944-0.20175 0.9389-0.36681 0.9878-0.36681 0.075 0 0.7015 4.1875 0.6356 4.246-0.06 0.0531-5.5487 2.3611-5.6152 2.3611-0.042 0-0.077-0.01-0.078-0.0223z"/>
     <path transform="scale(.26458)" d="m1231.4 530.91c-0.027-0.15812-0.1497-1.0308-0.2725-1.9393-0.1229-0.90848-0.2421-1.7357-0.265-1.8383-0.033-0.14712 0.019-0.20649 0.2467-0.28117 0.1585-0.0521 1.2927-0.48362 2.5204-0.95901 2.9168-1.1295 6.0349-2.2787 6.1827-2.2787 0.12 0 0.8874 1.1363 1.6985 2.5152l0.4553 0.7741-1.6236 0.64876c-0.893 0.35681-3.0701 1.2465-4.8379 1.9771-1.7679 0.7306-3.4036 1.4049-3.6349 1.4986l-0.4205 0.1702z"/>
     <path transform="scale(.26458)" d="m1230.4 523.82c0-0.0645-0.3589-2.3312-0.5653-3.5695-0.035-0.21335-0.1537-0.15409 3.3698-1.6896l1.6884-0.73579 0.4703 0.40604c0.4487 0.38736 2.4225 2.5035 2.5536 2.7377 0.044 0.0785-0.1814 0.1996-0.7584 0.40782-0.4515 0.16291-2.0865 0.77853-3.6334 1.368-3.1336 1.1942-3.125 1.1913-3.125 1.0753z"/>
     <path transform="scale(.26458)" d="m1234.3 513.41-1.1845-0.89325 1.8557-0.73168c6.5213-2.5712 15.247-5.3236 23.179-7.3108 12.854-3.2206 24.842-5.0913 37.312-5.8221 3.257-0.19088 12.35-0.19091 15.278-5e-5 17.767 1.1577 31.066 5.4991 40.746 13.301 1.1256 0.90719 1.4781 1.2383 1.3183 1.2383-0.1007 0-3.7994-1.5559-5.6989-2.3972-0.9722-0.43066-3.1314-1.4533-4.7982-2.2726-1.6667-0.81927-3.9117-1.8619-4.9888-2.317-17.166-7.253-35.694-9.1199-56.63-5.7061-12.505 2.039-25.797 5.9486-40.785 11.997-1.9445 0.78464-3.7344 1.5124-3.9775 1.6173l-0.4419 0.19064z"/>
     <path d="m352.29 165.33c0.0288-0.0649 0.064-1.0434 0.0782-2.1743 0.0258-2.0533 0.0254-2.0604-0.26988-4.9937-0.16268-1.6156 8.4106-0.83758 8.3536-1.5377 1.5918 0.78849-1.6597-21.612-1.359-19.59-6.4356-9.2921-28.282-3.6508-32.695-1.6101 4.0217 3.9797 7.6038 14.241 6.8545 19.627-0.33174 2.5671 4.0832 3.446 3.9898 4.9706-0.0746 1.2179-0.0871 3.5455-0.0234 4.3635l0.0424 0.54479 0.36518-0.0439c0.62579-0.0752 1.9767-0.35183 4.3145-0.8833 3.6536-0.83064 4.9091-1.0163 6.4914-0.96012 1.4181 0.0504 2.2481 0.31687 2.9073 0.93343 0.37182 0.34779 0.54736 0.60779 0.75458 1.1177 0.11551 0.28419 0.15397 0.33039 0.19603 0.23551z" sodipodi:nodetypes="sssccccsscsssssss"/>
    </g>
    <path d="m327.19 194.68c0.0379-0.0411 2.8934-0.97051 4.1474-1.3498 4.7586-1.4392 8.4012-2.2282 12.161-2.6343 1.5967-0.17245 5.2339-0.18882 6.6029-0.0298 1.8564 0.19662 3.3227 0.55234 4.143 0.81785l0.1554 0.0503-0.56515 0.40246c-0.31574 0.22485-26.405 2.7749-26.562 2.7666-0.0572-3e-3 -0.0944-0.0102-0.0825-0.0235z" fill="#ba3f4d" sodipodi:nodetypes="csscscsscc"/>
   </g>
   <g transform="matrix(1.6698 0 0 1.6698 -697.8 -127.44)">
    <path d="m1033.6 136.54c-10.036-3.4814-20.57-9.4796-28.091-15.996-2.0653-1.7894-5.6344-6.222-8.7274-10.839-5.7362-8.5621-8.0683-14.938-7.8343-21.418 0.24164-6.687 4.9804-16.483 9.7554-20.167 4.8681-3.7552 17.603-7.621 27.336-8.2983 19.71-1.3713 37.722 6.2482 41.772 20.872 64.291 40.754-20.74 15.501 29.876-21.465 1.6275-2.784 2.1852-3.1978 5.3716-3.9848 5.0974-1.2587 11.501-1.0145 19.117 0.72915 15.018 3.4379 25.166 11.331 29.807 23.183 2.7213 6.9508 3.0438 12.382 1.2132 20.436-3.0912 13.608-8.0141 19.733-27.844 34.659-4.1492 3.1233-9.8328 7.6424-12.63 10.042-2.7972 2.4-5.5639 4.6907-6.1479 5.0905-0.8266 0.5656-2.9822 0.31902-9.7137-1.1109-7.9325-1.6847-21.229-3.6582-34.084-5.058-5.9681-0.64994-23.119-4.5737-29.177-6.6752z" fill="#ff6d6d"/>
    <g transform="matrix(4.8079 -.73578 1.0793 4.352 -1229.2 -227.84)" fill="#f74013">
     <path d="m446.12 177.78c0.0538-0.0426 0.52774-0.48401 0.57102-0.52417 0.61995-0.57595 1.1007-1.2733 1.6158-1.9392 0.55655-0.72744 1.0056-1.5282 1.4399-2.3321 0.0454-0.0985 0.32443-0.70032 0.3643-0.80287 0.0553-0.14215 0.096-0.28955 0.14544-0.43383 0.0857-0.25009 0.2291-0.63358 0.29594-0.88969 0.0409-0.15684 0.0666-0.31729 0.0999-0.47593 0.2246-0.87391 0.37293-1.7684 0.43158-2.6688 0.0109-0.40737 0.0193-0.82599-0.0528-1.2294-0.0262-0.14679-0.0725-0.2893-0.10856-0.434-0.17145-0.68819-0.0436-0.18137-0.21452-0.85457-0.1374-0.67235-0.40881-1.2971-0.73383-1.897-0.21158-0.32111-0.45206-0.62455-0.70903-0.91065-0.0623-0.0694-0.12033-0.14341-0.19044-0.20489-0.0839-0.0736-0.17976-0.13238-0.26964-0.19857-0.31895-0.2023-0.64767-0.40276-1.0028-0.5367-0.16635-0.0627-0.3402-0.10371-0.50803-0.16236-0.17989-0.0629-0.85736-0.32844-1.0327-0.39671-0.82878-0.32584-1.6751-0.60394-2.5174-0.89227-0.28533-0.0977-0.56632-0.20868-0.85527-0.29507-0.41219-0.12322-0.83121-0.22224-1.2468-0.33336-0.85338-0.29452-1.9713-0.66399-2.793-1.0181-0.47704-0.20555-2.1518-1.0536-2.6029-1.3101-1.0285-0.58488-1.3201-0.83098-2.2697-1.5122-1.2192-0.98693-2.346-2.103-3.1726-3.4463-0.51523-0.83737-0.59172-1.1128-0.97163-2.0117-0.1066-0.35087-0.55251-1.7856-0.61183-2.1195-0.1202-0.67617-0.13864-1.6271-0.0276-2.3084 0.16314-1.0012 0.34327-1.1895 0.79275-2.0823 0.21791-0.30124 0.41875-0.61559 0.65373-0.90369 0.43315-0.53107 1.0098-1.0959 1.5442-1.5261 0.27234-0.21921 1.1582-0.77961 0.8505-0.61366-0.54245 0.29258-1.2464 0.46373-1.5582 0.99536-0.22275 0.3798 0.82701-0.30252 1.2405-0.45378 0.48966-0.1225 0.97277-0.27529 1.469-0.36751 1.3717-0.25491 2.7914-0.27326 4.1684-0.0537 1.0679 0.1703 1.2776 0.28473 2.2721 0.61932 0.32546 0.15626 0.66355 0.2886 0.97645 0.46877 1.0851 0.62484 1.9876 1.592 2.4416 2.7708 0.11401 0.296 0.16629 0.6122 0.24945 0.91829 0.0286 0.30591 0.0789 0.61056 0.0857 0.91773 0.0676 2.238-0.88482 3.5092 0.60566 1.6855-0.71285-0.17933-1.3663-0.5181-1.9846-0.90708-0.6526-0.43746-3.9024-2.4356-4.2604-3.1306 0.25563 3.9213 0.68647 3.7054-0.93746 3.5739 0.96366 0.91045 1.2991 1.2583 1.4343 1.3912 0.65494 0.63095 1.5268 1.1976 2.257 1.4606 0.55333 0.21088 1.0153 0.37731 1.544 0.39273 5e-3 -3e-3 3.5504-1.1548 4.0678-2.6416 0.0308-0.0885 0.0508-0.18042 0.0762-0.27063 0.14952-0.74102 0.23101-1.4815 0.22376-2.2392-0.17115-4.1879-2.983-6.1396-6.7659-6.6378-1.8778-0.23456-3.7758-0.0976-5.6281 0.26443-0.39838 0.12422-0.82034 0.18916-1.1952 0.37266-1.3463 0.65914-3.314 1.5804-4.6178 2.7095-0.81865 0.70888-1.4907 1.5703-2.0467 2.495-1.2879 3.0352-0.67739 6.1196 0.99012 8.8016 3.6024 4.2658 8.708 6.4 13.247 8.6856 0.53401 0.26368 1.0869 0.48756 1.6344 0.72078 0.39563 0.16357 0.58401 0.22955 0.95916 0.43081 0.13137 0.0705 0.25374 0.15672 0.38421 0.2288 0.29255 0.16161 0.60155 0.29543 0.8628 0.51 0.40317 0.36584 0.78986 0.74271 1.0555 1.2255 0.13454 0.17477 0.19767 0.24405 0.30745 0.44133 0.21949 0.39443 0.38729 0.82138 0.54636 1.2423 0.0871 0.29401 0.16087 0.51177 0.21323 0.81581 0.0906 0.52627 0.10514 1.0683 0.0673 1.5997-0.052 0.85677-0.11242 1.7134-0.35137 2.5436-0.0483 0.15617-0.22518 0.73422-0.28416 0.90205-0.19889 0.56577-0.45678 1.1094-0.72922 1.6428-0.4223 0.7759-0.86868 1.539-1.4044 2.2435-2.8753 3.8526-6.5601 6.4034 1.4699 0.89626z" sodipodi:nodetypes="ccccsssccssccsscsscsscsscscsscsssscsscssccccccccccsccccssccccssccscsccsccc"/>
     <path d="m456.23 176.58c-0.42852 9e-3 -0.8555-0.0928-1.2733-0.18053-0.29306-0.0571-0.55775-0.19144-0.83048-0.30424-0.11065-0.0457-0.22532-0.0814-0.33528-0.12882-0.12755-0.055-0.59706-0.28937-0.71006-0.34526-1.8987-0.68243-2.3671-1.2922-4.0316-2.7917-0.29104-0.32178-0.6368-0.59289-0.91848-0.92348-0.12028-0.14118-0.22912-0.29204-0.33403-0.445-2.5072 0.4046-2.5271-3.6988-0.52401-7.0436 2.036 0.3195 3.8615-2.2652 1.7698-0.66055 3.5511-1.8812 7.7864-3.7637 10.288-6.2338 0.27331-0.28137 0.58134-0.52712 0.86111-0.80207 0.47874-0.4705 1.323-1.3617 1.7406-1.8851 0.26575-0.33305 0.49808-0.69143 0.7471-1.0371 0.34682-0.60302 0.91718-1.5331 1.1603-2.1959 0.1391-0.37917 0.22207-0.77741 0.30377-1.1729 0.16227-0.78567 0.25112-1.554 0.22392-2.3572-0.0124-0.36738-0.0768-0.73115-0.11517-1.0967-0.18196-0.74097-0.26596-1.2657-0.60688-1.9525-0.14809-0.2984-0.34308-0.57139-0.52734-0.84893-0.47371-0.71357-1.0203-1.3507-1.5886-1.9883-0.40682-0.41887-0.84651-0.81096-1.3605-1.0948-0.46853-0.25871-0.98047-0.45443-1.4772-0.6504-0.20844-0.0573-0.87077-0.24588-1.0917-0.28158-0.61603-0.0995-1.3045-0.10547-1.9251-0.0507-0.20789 0.0183-0.41381 0.0544-0.62072 0.0816-0.54911 0.1292-1.1265 0.25655-1.6245 0.53676-2.8754 1.618-3.0911 1.4121-4.5945 2.9648-0.78777 0.83521-1.4055 1.8053-1.975 2.7966-0.28048 0.55405-0.60547 1.0964-0.75848 1.7044-0.0831 0.33001-0.0791 0.45538-0.1071 0.79473-0.0331 0.69108-0.0275 1.3956 0.14316 2.0707 0.0274 0.10838 0.0656 0.21372 0.0984 0.32058 0.11424 0.23429 0.20907 0.50947 0.40362 0.69521 0.19534 0.18648 0.4645 0.29185 0.70548 0.40228 0.39886 0.15629 0.84027 0.23454 1.2652 0.13991 0.1143-0.0254 0.2244-0.067 0.33658-0.10055 3.4532-2.2496 3.8869-0.96802 5.6497-4.2883-3.1271 2.3622-0.88034-2.0722-4.1395 2.255-5.8157 4.2903 0.79385 0.45643 1.5692-0.44643-0.83535 0.25449-1.7161-0.0954-2.1044-0.70924-0.0408-0.0843-0.0881-0.16571-0.12256-0.25277-0.24114-0.60906-0.23759-1.2586-0.13343-1.8966 0.14759-0.79985 0.36531-1.5824 0.78037-2.2902 0.19052-0.34605 0.30273-0.56549 0.52162-0.89801 0.41749-0.63424 0.8971-1.2305 1.4351-1.7662 0.14494-0.12898 0.28324-0.26584 0.43482-0.38695 0.84166-0.6725 3.7613-2.2507-2.4502 1.3173-0.16383 0.0941 0.3311-0.18252 0.50162-0.26385 0.53184-0.25366 0.56417-0.24157 1.1298-0.4187 0.20277-0.0392 0.40375-0.0891 0.6083-0.11744 0.94287-0.13074 1.9006-0.0108 2.8013 0.28397 0.20227 0.0719 0.78481 0.275 0.98015 0.36054 0.16227 0.0711 0.31623 0.15988 0.47585 0.23677 0.53573 0.25804 1.0834 0.49486 1.5629 0.85484 0.20034 0.15548 0.4101 0.29955 0.60108 0.46644 0.40206 0.35137 0.88413 0.85863 1.194 1.2903 0.56552 0.78777 0.9579 1.677 1.178 2.6194 0.14221 0.89068 0.24146 1.1915 0.17508 2.1101-0.0838 1.16-0.46107 2.3004-0.991 3.3304-0.18735 0.36412-0.41484 0.70613-0.62228 1.0592-0.24685 0.33476-0.47865 0.68115-0.74054 1.0043-2.6302 2.6671-6.1419 3.6494-8.7726 5.565-1.2891 0.7021-2.5826 1.3963-3.8674 2.1063-5.53 2.6635-3.0172 9.8843 0.83252 12.819 1.849-0.26502 2.9878 1.7276 4.4545 2.5242 0.22032 0.0639 0.45746 0.0891 0.66146 0.20011-2.0218-2.5809 0.94221-2.5329 3.6798-2.6042z" sodipodi:nodetypes="scssccsccccsscssscsscscsscsccscscscscccccsccscssscccsscsscssccccccccs"/>
    </g>
   </g>
   <path d="m1109.2-49.798c6.1035-2.3888 11.433-6.1855 16.408-10.379 7.0261-6.007 12.033-13.743 16.193-21.897 2.3531-5.2994 4.7287-10.671 6.1827-16.306 0.9676-3.7503 0.9701-4.7852 1.4491-8.6309 0.477-7.5395-0.3627-15.3-2.8153-22.474-0.4644-1.3584-1.0472-2.6734-1.5707-4.0101-1.3755-2.7864-2.4009-5.1992-4.3106-7.6929-4.2515-5.5516-9.9716-9.9538-15.588-14.008-5.9411-4.2917-12.296-7.8974-19.083-10.643-8.4972-3.0547-13.623-1.5107-22.83 1.379-1.1431 0.35877-2.0771 1.1949-3.1156 1.7924-6.3839 4.0148-9.9873 9.8042-12.964 16.53-2.1642 6.4411-2.9438 13.478-1.2901 20.152 0.3135 1.2648 0.8314 2.4699 1.2471 3.7049 2.7525 6.9263 7.9648 12.286 13.353 17.251 4.3769 3.7569 9.6174 5.9992 15.215 7.171 0.924 0.0574 1.8467 0.20083 2.7721 0.17222 0.8944-0.0276 1.7916-0.13603 2.6628-0.34026 5.5661-1.3048 11.49-1.617 15.601-5.8196 0.5533-0.56574 0.9996-1.2271 1.4994-1.8407 1.7932-2.6322 3.3137-5.5952 3.8317-8.7741 0.3167-1.9438 0.1862-3.0473 0.1215-4.9941-0.4941-5.6596-2.7207-9.0711-6.4708-13.137-3.8118-3.2184-8.023-6.1292-13.1-6.5572-0.4812 0.0494-0.9625 0.0988-1.4439 0.14818l-9.1363 3.6631c0.4768-0.11938 0.9535-0.23877 1.4303-0.35817 5.2938-0.12706 9.0814 2.5029 13.052 5.7651 3.4972 3.7425 5.8871 7.2011 6.2645 12.479 0.05 1.7776 0.1773 2.9532-0.1524 4.7189-0.571 3.0587-2.1593 5.8548-3.9476 8.35-1.3398 1.4667-1.6107 1.9613-3.3088 3.032-0.6747 0.42542-2.9211 1.1394-2.1244 1.1014 2.2922-0.10931 4.5027-0.88902 6.7562-1.3223 0.8723-0.16774-1.7279 0.44433-2.6124 0.52556-0.9091 0.0835-1.8257-0.0228-2.7385-0.0342-0.9217-0.15298-1.8567-0.24016-2.765-0.45897-4.5092-1.0861-8.6659-3.4519-12.345-6.2052-5.469-4.7059-10.665-9.9279-13.402-16.74-0.4147-1.183-0.9323-2.3347-1.2439-3.5489-1.6713-6.5126-0.8552-13.414 1.4891-19.628 3.0736-6.5532 6.6152-12.164 13.04-15.928 3.3884-1.7026 7.1794-3.2422-2.8052-0.45941-0.8394 0.23394 1.7349-0.196 2.6063-0.20254 1.9461-0.0147 3.358 0.22716 5.2436 0.69477 0.8796 0.21815 1.7391 0.51049 2.6087 0.76575 6.8939 2.6518 13.469 6.0107 19.53 10.261 5.5865 3.9419 11.173 8.1928 15.321 13.718 1.9218 2.5601 2.8227 4.7011 4.2298 7.5406 0.5268 1.3079 1.1149 2.5928 1.5805 3.9237 2.4695 7.0602 3.3115 14.667 2.7292 22.102-0.1909 1.4336-0.3194 2.8769-0.573 4.3008-1.2629 7.0904-4.1482 13.786-7.0728 20.318-4.1767 8.0967-9.232 15.698-16.344 21.543-5.2119 4.2259-10.8 7.9618-17.188 10.182l9.9237-0.89362z" fill="#ffa16d"/>
   <path d="m1021-52.01c-0.013-3.7812 0.088-7.5644-0.038-11.343-0.097-2.9264-1.7344-6.932-2.75-9.5446-1.8521-4.7644-2.069-5.1165-4.1604-9.8824-3.6676-6.8309-8.3578-13.075-13.946-18.453-2.9834-2.8713-4.631-4.0509-7.8477-6.5953-6.7681-5.1391-14.734-7.702-23.19-8.0515-1.6956-0.0701-3.3936 0.052-5.0904 0.0779-9.371 1.2359-17.985 5.2304-25.568 10.791-1.3627 0.99908-2.6376 2.1128-3.9564 3.1693-4.492 4.2647-9.5446 8.8752-11.609 14.933-0.31612 0.92758-0.44823 1.908-0.67235 2.8621-0.0132 5.6736-1.1414 10.402 0.88081 15.445 2.0715 5.1654 6.1689 9.3835 9.8488 13.424 3.9921 4.0401 8.3751 7.8026 13.576 10.21 3.0415 1.4081 4.2046 1.5215 7.4037 2.2843 5.4181 0.85856 11.258 0.19256 15.73-3.2564 0.85558-0.65983 1.578-1.4763 2.367-2.2144 2.7673-3.5508 4.814-7.8497 4.9471-12.439 0.35274-12.154 0.91044-8.8645-0.8737-15.789-1.9846-4.4455-4.9787-9.3867-9.8651-11.1-0.81445-0.28565-1.6916-0.3435-2.5374-0.51528-0.89858 0.0857-1.8166 0.0524-2.6958 0.25706-4.8085 1.1196-8.9228 4.4448-12.361 7.8076-0.37533 0.52266-0.74978 1.046-1.1248 1.5689 0 0 0.94513 9.5761 0.94513 9.5761 0.3054-0.56832 0.61061-1.1367 0.91599-1.705 3.6901-4.1298 8.3581-7.7613 14.099-8.0418 0.76183 0.16233 1.5521 0.22461 2.2856 0.48701 4.6575 1.6662 7.3871 6.4639 9.0799 10.781 0.22284 1.0835 0.30987 4.2969 0.66862 3.2505 0.61416-1.7914 0.30648-3.7904 0.16395-5.6789-0.0845-1.1184-0.13608 2.2447-0.33996 3.3477-0.36867 1.9944-1.2132 4.4597-2.184 6.2466-0.51824 0.95413-1.203 1.8079-1.8046 2.7117-0.7296 0.72375-1.393 1.5209-2.1887 2.1711-4.2073 3.4383-9.7667 4.2141-14.991 3.4398-1.1857-0.27061-2.3934-0.45869-3.5571-0.81182-6.6693-2.0238-12.102-6.5492-16.888-11.449-3.6475-4.0752-7.6214-8.3735-9.3716-13.685-0.34973-1.0613-0.37406-4.3493-0.69612-3.2792-0.59601 1.9804-0.12244 4.1346-0.18338 6.2019 0.16299-0.95638 0.23129-1.9339 0.48918-2.8692 1.7215-6.2432 6.7303-11.052 11.118-15.494 1.2914-1.0977 2.5327-2.2573 3.8742-3.2932 7.3422-5.6698 15.836-9.4619 25.067-10.637 1.6624-0.0345 3.326-0.17449 4.9872-0.10351 8.2888 0.35413 16.074 3.0773 22.696 8.0758 9.0722 7.0983 16.238 14.328 21.383 24.84 2.039 4.8025 4.1225 9.6079 5.4621 14.667 0.2914 1.1008 0.4925 2.2248 0.6758 3.3488 0.1354 0.82968 0.2248 3.3452 0.2794 2.5064 0.1752-2.6913 0.056-5.3937 0.084-8.0906l1.4652 9.8412z" fill="#df002a" opacity=".57812"/>
   <path d="m1186.1 118.55c0.3634 5.5896 0.5858 11.24 1.8587 16.722 0.432 1.8603 1.0478 3.6731 1.5717 5.5096 3.2882 9.0808 7.9559 18.075 14.811 25.026 1.1271 1.1428 2.4095 2.1211 3.6142 3.1817 3.0973 1.9406 4.7107 3.26 8.3033 4.2595 5.0936 1.4171 12.718 2.0325 17.986 1.5511 1.9013-0.17386 3.7571-0.68207 5.6356-1.0231 7.3879-3.1506 8.2496-3.1656 16.609-9.8463 1.4601-1.1669 2.4367-2.844 3.4963-4.3838 2.8738-4.1756 4.55-8.7384 6.1305-13.499 0.1092-1.3048 0.4546-2.6113 0.3274-3.9144-0.8097-8.2964-10.587-10.416-17.116-12.069-4.1267-0.5265-5.9563-1.0176-10.091-0.55869-7.0076 0.77778-13.216 5.0637-18.895 8.7802-0.8873 0.58062-1.5366 1.4615-2.3049 2.1922-2.2458 3.1281-4.4244 7.0087-3.8495 11.04 0.085 0.59862 0.326 1.1646 0.4891 1.7469 0.9866 1.8555 2.59 2.7846 4.3293 3.816l8.0472-5.2136c-1.4988-0.88507-2.9527-1.6774-3.8615-3.2339-0.1365-0.50323-0.3417-0.99268-0.4097-1.5096-0.4958-3.763 1.6176-7.3526 3.8441-10.162 0.7469-0.6649 3.219-2.2015 2.2407-1.9947-1.7759 0.37536-3.3648 1.4505-4.8172 2.5393-1.085 0.81336 2.4159-1.2526 3.6963-1.699 4.7313-1.6496 9.5783-1.6746 14.477-0.84444 6.0159 1.5094 15.302 3.5737 16.104 11.228 0.1265 1.2104-0.1703 2.4281-0.2554 3.6422-1.4785 4.6385-3.0749 9.0594-5.954 13.064-1.0752 1.4954-3.2681 2.4029-3.5664 4.2203-0.1678 1.0218 3.8084-1.4433 3.0037-0.7917-1.4019 1.1351-3.2596 1.5457-4.8894 2.3185-1.8641 0.39356-3.6994 0.96463-5.5923 1.1808-1.9614 0.2239-3.9477 0.19403-5.921 0.13359-7.0404-0.21572-13.878-1.5272-19.74-5.617-1.2114-1.0108-2.4936-1.9425-3.6342-3.0326-6.9992-6.6887-11.802-15.456-14.767-24.582-0.4368-1.8507-0.9515-3.6847-1.3103-5.552-1.0851-5.6478-1.1763-11.437-0.7125-17.153l-8.8878 4.5285z" fill="#df002a" opacity=".40625"/>
   <path d="m1011.1 121.74c-6.3844-1.483-12.927-1.3671-19.402-0.72321-9.192 0.97858-17.697 4.5253-25.74 8.8961-4.9383 3.0387-9.9363 6.1245-14.323 9.9482-2.9196 2.5451-3.507 3.3971-6.0777 6.2973-4.6585 5.9472-8.3561 12.821-10.392 20.125-0.38553 1.3829-0.64888 2.7969-0.97333 4.1954-0.44208 3.0758-0.96151 5.6454-0.79745 8.7821 0.3652 6.983 2.5916 13.849 4.9295 20.369 2.4712 6.8999 5.6712 13.468 9.715 19.572 5.2787 7.326 10.379 8.9523 19.606 11.778 1.1456 0.35086 2.3888 0.18968 3.5831 0.28459 7.5354 0.3008 13.782-2.4347 20.042-6.2962 5.4284-4.087 10.052-9.4483 12.464-15.887 0.457-1.2203 0.7117-2.507 1.0676-3.7605 1.6485-7.2686 0.3824-14.637-1.2521-21.779-1.4838-5.574-4.5367-10.388-8.4895-14.52-0.7295-0.57008-1.4092-1.2103-2.1885-1.7102-0.75318-0.48318-1.5543-0.90136-2.3883-1.2258-5.328-2.0729-10.39-5.1668-16.157-4.027-0.77635 0.15347-1.5185 0.44642-2.2778 0.66957-2.9677 1.1561-5.8978 2.7392-8.1232 5.0675-1.3608 1.4237-1.8775 2.4075-2.9255 4.0494-2.7943 4.9465-2.8881 9.0192-2.0958 14.493 1.3226 4.8103 3.1485 9.5929 7.0927 12.818 0.42477 0.23155 0.84962 0.46308 1.2744 0.69466l9.6061 2.1479c-0.46067-0.1712-0.92131-0.34252-1.382-0.51377-4.4372-2.89-6.0726-7.2014-7.5014-12.138-0.76659-5.0645-0.78077-9.2685 1.8938-13.834 0.9646-1.494 1.5244-2.5355 2.7952-3.805 2.2012-2.1991 5.0927-3.6063 7.9789-4.6522 1.9345-0.4515 2.4377-0.70606 4.4437-0.62835 0.79704 0.0309 3.0533 0.71294 2.3748 0.29355-1.952-1.2066-4.2158-1.8141-6.3192-2.7317-0.81414-0.35514 1.6762 0.61109 2.4516 1.0445 0.79684 0.44543 1.4925 1.0516 2.2388 1.5774 0.67343 0.64756 1.3952 1.2484 2.0204 1.9427 3.1038 3.4465 5.1931 7.7489 6.6692 12.1 1.8475 6.9744 3.1782 14.22 1.5812 21.385-0.32729 1.2101-0.55196 2.4526-0.98192 3.6301-2.306 6.3158-6.883 11.545-12.332 15.343-6.2418 3.665-12.336 6.2882-19.764 5.7572-3.7573-0.51293-7.7543-1.3879 2.0532 1.9657 0.82452 0.28196-1.5415-0.81984-2.2637-1.3074-1.6131-1.0889-2.6405-2.087-3.9308-3.5393-0.60192-0.67748-1.1454-1.4047-1.718-2.1072-4.1845-6.0866-7.7062-12.576-10.3-19.51-2.3766-6.4109-4.5788-13.077-4.8735-19.979-0.13652-3.1983 0.33178-5.4734 0.77787-8.6109 0.30548-1.3765 0.54738-2.7687 0.91641-4.1296 1.9576-7.2189 5.5668-13.968 10.253-19.77 0.96853-1.0741 1.891-2.1916 2.9056-3.2222 5.0525-5.1324 11.219-9.0211 17.326-12.753 8.0246-4.3137 16.493-7.7216 25.665-8.5184 6.6884-0.53628 13.41-0.45564 19.933 1.3275l-8.6887-4.8771z" fill="#ff6d38"/>
   <path d="m1241.4-19.764c-1.6429-3.4057-3.3898-6.763-4.9307-10.216-1.1933-2.6738-1.4743-6.992-1.7045-9.7856-0.4198-5.0944-0.3789-5.506-0.5842-10.707 0.3082-7.747 1.7928-15.414 4.4637-22.696 1.4259-3.8873 2.3911-5.6691 4.1699-9.3646 3.8364-7.5829 9.8775-13.374 17.328-17.388 1.4939-0.80506 3.0741-1.4385 4.6112-2.1578 8.9667-2.9899 18.46-3.1681 27.712-1.4876 1.6626 0.3019 3.2963 0.74543 4.9444 1.1182 5.9054 1.8687 12.466 3.8029 16.974 8.3464 0.6902 0.69566 1.2381 1.5194 1.8571 2.2791 2.495 5.0956 5.5789 8.8537 5.9675 14.273 0.398 5.551-1.4402 11.137-2.9805 16.381-1.8214 5.3797-4.1156 10.681-7.7378 15.122-2.1185 2.5972-3.1148 3.2082-5.6573 5.2941-4.4959 3.1432-10.038 5.1-15.568 3.956-1.0581-0.21885-2.065-0.63676-3.0974-0.95518-4.0422-1.9816-7.7638-4.9512-9.8918-9.0189-5.6362-10.774-4.6982-7.5721-6.1246-14.579-0.1611-4.8657 0.3685-10.619 4.0121-14.298 0.6073-0.61328 1.3707-1.0492 2.056-1.5738 0.8455-0.31613 1.6564-0.74792 2.5364-0.94866 4.8136-1.0977 9.9681 0.0915 14.532 1.6102 0.5662 0.30568 1.132 0.6124 1.6981 0.91842l3.3411 9.0239c-0.5234-0.37734-1.0465-0.75482-1.5698-1.1322-5.1254-2.0983-10.912-3.3207-16.196-1.0605-0.614 0.47945-1.2973 0.88123-1.8419 1.4382-3.4586 3.5365-3.8132 9.0449-3.4459 13.668 0.2739 1.0718 1.602 3.9992 0.8215 3.2153-1.3363-1.3419-1.9345-3.274-2.6328-5.0344-0.4135-1.0426 1.1048 1.9588 1.7708 2.8612 1.2043 1.6319 3.0426 3.4789 4.6975 4.6608 0.8836 0.63112 1.8728 1.0991 2.8094 1.6484 0.9727 0.33144 1.9181 0.75783 2.9182 0.99428 5.2877 1.2502 10.626-0.4853 14.984-3.4678 0.9477-0.76228 1.9512-1.4599 2.843-2.2867 5.111-4.7385 8.015-11.185 10.174-17.686 1.4962-5.2605 3.1881-10.865 2.4374-16.406-0.15-1.1073-1.5671-4.0744-0.8092-3.2532 1.4026 1.5198 1.9195 3.6641 2.8791 5.4962-0.5651-0.7886-1.0543-1.6376-1.6956-2.3657-4.2802-4.8602-10.888-6.9917-16.778-9.0659-1.6415-0.42184-3.2651-0.92118-4.9246-1.2655-9.0831-1.8847-18.38-1.5771-27.194 1.4062-1.5098 0.69652-3.0668 1.2988-4.5295 2.0896-7.2978 3.946-13.107 9.8019-16.873 17.194-5.0507 10.353-8.3293 19.99-8.3549 31.693 0.2684 5.2105 0.4981 10.443 1.508 15.579 0.2197 1.1173 0.5308 2.216 0.8578 3.3069 0.2414 0.80524 1.262 3.1062 0.8458 2.3758-1.3354-2.3432-2.411-4.8252-3.6165-7.2378 0 0 2.9896 9.4899 2.9896 9.4899z" fill="#df002a" opacity=".45938"/>
   <path d="m1134-50.517c65.24-32.945 143.88-27.25 133.54-78.318-3.2508-25.66-22.096-28.226-50.043-17.312-44.746 22.296-71.968 75.677-83.498 95.63z" fill="#ff6d38" opacity=".47188" sodipodi:nodetypes="cccc"/>
   <path d="m950.07 81.137c-152.32 54.029-125.47 162.7-65.498 125.98 43.826-10.27 60.091-107.19 65.498-125.98z" fill="#e0002a" fill-opacity=".57647" opacity=".47188" sodipodi:nodetypes="ccc"/>
   <path d="m1229.1 93.243c77.628 81.178 54.743 132.54 122.47 91.747 99.837-79.076-58.998-78.196-122.47-91.747z" fill="#ffc372" opacity=".47188" sodipodi:nodetypes="ccc"/>
   <g fill="#f74013">
    <path d="m1063.5 139.15c-6.7443 2.1923-13.51 5.842-17.978 11.474-0.6452 0.81335-1.1737 1.7129-1.7605 2.5693-1.6936 3.1876-3.7548 6.8352-2.8002 10.602 0.6146 2.4255 1.5134 2.957 3.1536 4.7965l7.9839-4.8206c-1.3752-1.5998-2.2762-2.2196-2.7568-4.3149-0.8126-3.5428 1.3248-7.0122 2.9368-9.9592 1.6586-2.2483 1.8651-2.7676 3.9697-4.652 0.7631-0.68322 3.3658-2.283 2.4171-1.8972-2.1335 0.86762-4.0611 2.1777-6.0329 3.3677-0.5245 0.31653 1.1107-0.51915 1.6814-0.74146 0.3937-0.15327 0.8053-0.25585 1.2079-0.38379l7.9784-6.0408z"/>
    <path d="m917.28 46.381c2.4736-1.4511 5.0161-2.7908 7.4209-4.3533 0.55832-0.36273-1.2324 0.50504-1.8561 0.73773-0.73956 0.27581-1.4827 0.5428-2.2331 0.78739-3.2758 1.0677-6.4863 1.5386-9.9032 1.9162-7.1918 0.55465-13.261-1.6862-19.515-4.9222l-7.5886 4.9873c6.2566 3.1049 12.691 5.7065 19.834 5.3221 2.6776-0.20973 4.588-0.27255 7.1983-0.79349 1.5706-0.31346 3.0944-0.89285 4.615-1.3773 0.58075-0.18511 1.2081-0.25277 1.7489-0.53398 3.2497-1.6899 6.394-3.5753 9.5911-5.3629l-9.3121 3.5926z"/>
    <path d="m954.86-18.048c-4.2088-4.0346-9.3385-6.8578-14.542-9.3816-4.414-2.1258-8.8632-4.161-13.399-6.013l-7.6922 5.1691c4.6296 1.666 9.1485 3.586 13.538 5.8186 4.9215 2.4802 9.9734 5.2022 13.546 9.517l8.5498-5.1101z"/>
    <path d="m1060-57.094c2.2901-3.452 3.5186-7.3905 4.6041-11.346 1.1389-4.0812 0.7888-8.1812 0.2298-12.308l-8.1958 4.3127c0.5245 4.0636 0.7195 8.0576-0.5381 12.034-1.1888 4.0071-2.5872 8.0022-5.2936 11.269l9.1936-3.9618z"/>
    <path d="m932.93 108.6c-6.7023 1.8181-12.57 5.7584-18.241 9.6382-0.80347 0.54965-1.3877 1.3656-2.0816 2.0484-3.2426 4.1263-4.8463 9.3151-4.9368 14.549-0.0248 1.4167 0.16737 2.8289 0.25097 4.2433l7.9609-4.1103c-0.066-1.3702-0.24654-2.7396-0.19808-4.1106 0.18531-5.237 2.065-10.217 5.5594-14.125 3.7379-3.4547 2.7849-2.2216-3.5556 0.94322-0.75658 0.37768 1.4822-0.81635 2.244-1.1834 1.3665-0.65834 2.367-1.0221 3.7717-1.4994 0.41608-0.1415 0.83753-0.26638 1.2563-0.39958l7.9696-5.9938z"/>
    <path d="m1085.7 144.07c2.2507 2.9866 3.3646 6.4654 4.2874 10.04 0.9068 4.2689 1.6817 8.7747-0.5221 12.794-0.388 0.70755-0.905 1.3362-1.3575 2.0043l8.6621-3.8153c0.425-0.72074 0.9204-1.4043 1.275-2.1622 1.9775-4.227 1.097-8.8967 0.2058-13.276-0.8144-3.7712-1.9687-7.3571-3.9417-10.694l-8.609 5.109z"/>
    <path d="m1213.5 102.32c3.3752 1.5542 7.1526 2.7084 10.879 2.959 2.1063 0.14166 4.2217 0.0631 6.3325 0.0946 7.626 7e-3 15.181-0.88156 22.722-1.89l6.4436-4.8217c-7.3995 1.1091-14.816 2.1455-22.329 1.7899-5.3306-0.40503-10.929-0.79845-15.669-3.5537l-8.38 5.422z"/>
    <path d="m1261.2 48.928c-2.0902 1.237-4.2762 2.3247-6.2704 3.7111-1.0311 0.71673 2.2304-1.1553 3.3657-1.6918 1.5494-0.73221 3.1078-1.4472 4.6867-2.1135 6.3961-2.699 12.877-4.7465 19.548-6.6346 8.7216-1.5079 4.4262-1.0204 12.879-1.5261l6.7153-4.9415c-8.6582 0.53374-4.2733 0.04632-13.149 1.5108-12.96 3.5882-25.65 7.8344-36.966 15.316l9.1907-3.6302z"/>
    <path d="m1254.5-13.662c7.2781 4.4717 15.837 5.9311 24.079 7.6314 8.203 1.1776 4.131 0.64951 12.215 1.5901l6.8573-4.8662c-8.0637-0.86806-4.0297-0.34406-12.102-1.5756-7.8405-1.6066-16.182-3.134-22.71-8.0812l-8.3391 5.3016z"/>
    <path d="m1215.6-59.776c0.7509-3.4197 2.487-6.4961 4.9757-8.971 0.8028-0.79834 3.6883-2.5184 2.6099-2.1737-1.6462 0.52611-2.9322 1.8301-4.3982 2.7452 1.3713-0.49729 2.7425-0.99458 4.1138-1.4919l7.038-5.4728c-1.3648 0.42806-2.7295 0.85611-4.0943 1.2842-3.7214 2.1294-7.5439 4.0912-11.164 6.3881-3.8883 2.4668-6.5949 7.7103-8.004 11.967l8.9234-4.2747z"/>
   </g>
  </g>
 </g>
</svg>
