<?xml version="1.0" encoding="UTF-8"?>
<svg width="1000px" height="750px" inkscape:version="1.0 (4035a4fb49, 2020-05-01)" sodipodi:docname="NoPageFound.svg" version="1.1" viewBox="0 0 1816.7 1394.7" xmlns="http://www.w3.org/2000/svg" xmlns:cc="http://creativecommons.org/ns#" xmlns:dc="http://purl.org/dc/elements/1.1/" xmlns:inkscape="http://www.inkscape.org/namespaces/inkscape" xmlns:rdf="http://www.w3.org/1999/02/22-rdf-syntax-ns#" xmlns:sodipodi="http://sodipodi.sourceforge.net/DTD/sodipodi-0.dtd">
 <defs>
  <filter id="filter1463" x="-.0043386" y="-.0081882" width="1.0087" height="1.0164" color-interpolation-filters="sRGB" inkscape:collect="always">
   <feGaussianBlur inkscape:collect="always" stdDeviation="1.1738771"/>
  </filter>
  <filter id="filter1545" x="-.042653" y="-.036646" width="1.0853" height="1.0733" color-interpolation-filters="sRGB" inkscape:collect="always">
   <feGaussianBlur inkscape:collect="always" stdDeviation="1.1589897"/>
  </filter>
  <filter id="filter1806" x="-.2455" y="-.030455" width="1.491" height="1.0609" color-interpolation-filters="sRGB" inkscape:collect="always">
   <feGaussianBlur inkscape:collect="always" stdDeviation="2.8508369"/>
  </filter>
  <filter id="filter2779" x="-.018934" y="-.15647" width="1.0379" height="1.3129" color-interpolation-filters="sRGB" inkscape:collect="always">
   <feGaussianBlur inkscape:collect="always" stdDeviation="0.64792863"/>
  </filter>
  <filter id="filter3218" x="-.047054" y="-.13305" width="1.0941" height="1.2661" color-interpolation-filters="sRGB" inkscape:collect="always">
   <feGaussianBlur inkscape:collect="always" stdDeviation="0.41367064"/>
  </filter>
 </defs>
 <sodipodi:namedview id="base" bordercolor="#666666" borderopacity="1.0" inkscape:current-layer="layer1" inkscape:cx="3231.1371" inkscape:cy="2970.8836" inkscape:document-rotation="0" inkscape:document-units="mm" inkscape:pageopacity="0.0" inkscape:pageshadow="2" inkscape:snap-global="false" inkscape:window-height="1040" inkscape:window-maximized="0" inkscape:window-width="1504" inkscape:window-x="114" inkscape:window-y="7" inkscape:zoom="0.08" pagecolor="#ffffff" showgrid="false"/>
 <metadata>
  <rdf:RDF>
   <cc:Work rdf:about="">
    <dc:format>image/svg+xml</dc:format>
    <dc:type rdf:resource="http://purl.org/dc/dcmitype/StillImage"/>
    <dc:title/>
   </cc:Work>
  </rdf:RDF>
 </metadata>
 <g transform="translate(647.57 -138.38)" inkscape:groupmode="layer" inkscape:label="Layer 1">
  <g transform="matrix(1.1724 0 0 1.1724 -48.466 -144.05)">
   <g transform="matrix(18.125 0 0 16.617 -5148.3 -19096)" fill="#5f5f5f" fill-opacity=".28235" filter="url(#filter2779)" style="font-variant-caps:normal;font-variant-east-asian:normal;font-variant-ligatures:normal;font-variant-numeric:normal;mix-blend-mode:normal;shape-inside:url(#rect1598-0);white-space:pre" aria-label="Page not found ">
    <path d="m257.67 1224.1h3.8085q0.72347 0 1.1989 0.1499 0.48059 0.1447 0.82165 0.4444 0.34623 0.2997 0.53227 0.7132 0.18603 0.4082 0.18603 0.8681 0 0.925-0.71313 1.5503-0.70797 0.6253-1.9585 0.6253h-1.2299v1.3487q0 0.2533 0.0362 0.3204 0.0465 0.098 0.13952 0.1447 0.0982 0.046 0.32556 0.046h0.36691v0.9974h-3.514v-0.9974h0.24288q0.32039 0 0.42374-0.046 0.10336-0.046 0.14986-0.1447 0.0465-0.1033 0.0465-0.4185v-3.9636q0-0.3307-0.0413-0.4341-0.0413-0.1085-0.13436-0.155-0.0879-0.052-0.34106-0.052h-0.34623zm2.6458 1.1783v2.0463h0.61495q0.56327 0 0.82682-0.1136 0.26355-0.1189 0.42375-0.3566 0.16019-0.2429 0.16019-0.5736 0-0.4961-0.3824-0.7855-0.28422-0.217-0.84232-0.217z" style="font-variant-caps:normal;font-variant-east-asian:normal;font-variant-ligatures:normal;font-variant-numeric:normal"/>
    <path d="m267.75 1228.2v-0.3824q0-0.3411-0.0568-0.4703t-0.20671-0.2119q-0.14986-0.088-0.37207-0.088-0.17053 0-0.31006 0.057-0.13952 0.057-0.2222 0.1447-0.0827 0.088-0.19121 0.3411-0.13952 0.3204-0.33589 0.4599-0.1912 0.1395-0.45475 0.1395-0.33073 0-0.5426-0.2067-0.21188-0.2067-0.21188-0.5116 0-0.3462 0.21704-0.6149 0.28939-0.3566 0.863-0.584 0.5736-0.2273 1.2919-0.2273t1.2196 0.2325q0.50643 0.2326 0.7028 0.5581 0.20154 0.3204 0.20154 0.9819v1.85q0 0.341 0.0362 0.4392 0.0362 0.093 0.15503 0.1654 0.11886 0.072 0.26355 0.072t0.38757-0.083v1.0076q-0.43925 0.1396-0.84232 0.1396-0.47542 0-0.81132-0.1551-0.3359-0.155-0.56327-0.465-0.51676 0.3358-0.94051 0.4805-0.41858 0.1396-0.81132 0.1396-0.73897 0-1.1937-0.4134-0.45475-0.4186-0.45475-1.0284 0-0.3462 0.15503-0.6356 0.1602-0.2894 0.47025-0.5064 0.31523-0.2171 0.96635-0.3825 0.65629-0.1705 1.5916-0.2428zm0 0.8578q-0.67696 0.098-0.95601 0.2015-0.27905 0.098-0.39791 0.2532-0.11885 0.1499-0.11885 0.3101 0 0.2067 0.15502 0.3462 0.15503 0.1396 0.41858 0.1396 0.17053 0 0.39274-0.088 0.22738-0.088 0.50643-0.2584z" style="font-variant-caps:normal;font-variant-east-asian:normal;font-variant-ligatures:normal;font-variant-numeric:normal"/>
    <path d="m274.75 1226.5q0.27388-0.3876 0.54776-0.5478 0.27389-0.1653 0.57878-0.1653t0.48059 0.1808q0.1757 0.1757 0.1757 0.4548 0 0.2532-0.17053 0.4237-0.16537 0.1654-0.41341 0.1654l-0.17054-0.01-0.1757-0.01q-0.13952 0-0.27905 0.1033 0.28422 0.4703 0.28422 0.8992 0 0.4547-0.28422 0.8837-0.27905 0.4289-0.78031 0.6666-0.49609 0.2377-1.1937 0.2377-0.20154 0-0.40824-0.021-0.20154-0.026-0.40825-0.072-0.13952 0.088-0.21187 0.1705-0.0724 0.083-0.0724 0.155 0 0.1602 0.33073 0.2067l2.1394 0.3049q0.95601 0.1344 1.3798 0.5116 0.42374 0.3824 0.42374 0.9095 0 0.4651-0.32039 0.8579-0.32039 0.3979-1.049 0.6511-0.72347 0.2532-1.8293 0.2532-0.97151 0-1.6071-0.1912-0.63562-0.186-0.90434-0.4754-0.26354-0.2843-0.26354-0.5426 0-0.2946 0.19637-0.5323 0.20153-0.2325 0.82165-0.5374-0.38241-0.1396-0.57361-0.3411-0.25838-0.2687-0.25838-0.5529 0-0.3101 0.23771-0.6098 0.24288-0.2997 0.72347-0.5943-0.26872-0.1654-0.42375-0.3566-0.14986-0.1963-0.24804-0.4754-0.093-0.279-0.093-0.5736 0-0.7751 0.63045-1.3177 0.63562-0.5426 1.6691-0.5426 0.45992 0 0.83716 0.1085 0.3824 0.1033 0.68213 0.3152zm-1.4676 0.5633q-0.33073 0-0.54777 0.2429-0.21187 0.2428-0.21187 0.6563 0 0.3824 0.2067 0.6097 0.20671 0.2274 0.53227 0.2274 0.32039 0 0.53227-0.2325 0.21704-0.2377 0.21704-0.6098 0-0.4134-0.20671-0.6511-0.20154-0.2429-0.52193-0.2429zm-0.74931 4.625q-0.27388 0.2119-0.35139 0.3204-0.0724 0.1137-0.0724 0.2481 0 0.2532 0.41341 0.3927 0.41341 0.1447 1.0594 0.1447 0.47026 0 0.83199-0.083t0.48059-0.2015q0.0775-0.078 0.0775-0.2119 0-0.1499-0.15502-0.2532-0.15503-0.098-0.74931-0.1706z" style="font-variant-caps:normal;font-variant-east-asian:normal;font-variant-ligatures:normal;font-variant-numeric:normal"/>
    <path d="m281.58 1229.4 0.70796 0.7131q-0.60978 0.6976-1.2454 1.0128-0.63045 0.3101-1.3642 0.3101-1.1782 0-1.9844-0.7958-0.80615-0.801-0.80615-1.9327 0-0.7441 0.36174-1.3591 0.36173-0.6201 1.0025-0.9663 0.64078-0.3514 1.4521-0.3514 0.51676 0 0.94051 0.1498 0.42374 0.1499 0.73897 0.4289 0.32039 0.2791 0.51159 0.677 0.19637 0.3927 0.26872 0.8165 0.031 0.2119 0.031 0.6718h-3.4778q0.0103 0.6563 0.38241 1.0645 0.37723 0.4031 0.91983 0.4031 0.34623 0 0.75448-0.2067 0.40824-0.2119 0.80615-0.6356zm-1.0335-1.4935q-0.0362-0.31-0.14986-0.4857-0.10852-0.1809-0.29972-0.2843-0.18604-0.1085-0.39274-0.1085-0.21704 0-0.41858 0.1085-0.20154 0.1086-0.32556 0.2946-0.11885 0.186-0.15503 0.4754z" style="font-variant-caps:normal;font-variant-east-asian:normal;font-variant-ligatures:normal;font-variant-numeric:normal"/>
    <path d="m288.94 1226v0.6873q0.58394-0.3979 0.99735-0.5426 0.41858-0.1447 0.85266-0.1447 0.50126 0 0.88366 0.2118 0.38757 0.2119 0.56327 0.5323 0.1757 0.3152 0.1757 0.8992v2.1497q0 0.2739 0.0362 0.3514 0.0413 0.078 0.12402 0.1137 0.062 0.026 0.37207 0.026h0.25321v0.9974h-3.0334v-0.9974q0.34623-0.01 0.38757-0.015 0.12919-0.036 0.17053-0.1188 0.0413-0.083 0.0413-0.3566v-1.8965q0-0.3669-0.0775-0.4754-0.12403-0.1809-0.39274-0.1809-0.22221 0-0.47543 0.098-0.25321 0.098-0.68212 0.4031v2.0515q0 0.3359 0.0723 0.4134 0.0724 0.077 0.34624 0.077h0.16536v0.9974h-3.0024v-0.9974h0.14986q0.35657 0 0.43925-0.031 0.0879-0.031 0.12919-0.1085 0.0465-0.077 0.0465-0.3049v-2.4081h-0.76481v-0.9973q0.93017-0.1137 1.7415-0.4341z" style="font-variant-caps:normal;font-variant-east-asian:normal;font-variant-ligatures:normal;font-variant-numeric:normal"/>
    <path d="m296.71 1226q0.88367 0 1.54 0.3462 0.65629 0.3462 1.0077 0.9457 0.35657 0.5943 0.35657 1.3952 0 1.2093-0.78548 1.9637-0.78548 0.7545-2.0981 0.7545-1.3384 0-2.1291-0.7596-0.76481-0.7235-0.76481-1.9586 0-0.8113 0.34623-1.3952 0.3514-0.584 1.0129-0.9354 0.66145-0.3565 1.5141-0.3565zm0.0207 1.1317q-0.29455 0-0.55293 0.1757-0.25839 0.1757-0.40308 0.5167-0.13953 0.3411-0.13953 0.8682 0 0.5426 0.13953 0.8992 0.13953 0.3565 0.38241 0.5271 0.24804 0.1705 0.5426 0.1705 0.45475 0 0.78031-0.3824 0.32556-0.3876 0.32556-1.1989 0-0.7855-0.30489-1.1782-0.29972-0.3979-0.76998-0.3979z" style="font-variant-caps:normal;font-variant-east-asian:normal;font-variant-ligatures:normal;font-variant-numeric:normal"/>
    <path d="m302.73 1224.4v1.7725h1.664v1.1007h-1.664v1.7983q0 0.6098 0.062 0.7855 0.0672 0.1705 0.24288 0.2739 0.23254 0.1395 0.53226 0.1395 0.53227 0 1.0594-0.3462v1.1059q-0.44959 0.2118-0.81649 0.2997-0.36173 0.083-0.78548 0.083-0.48059 0-0.85266-0.1189-0.3669-0.124-0.63045-0.3462-0.25838-0.2274-0.36173-0.4806-0.0982-0.2532-0.0982-0.7338v-2.4598h-0.77514v-0.9922q0.41341-0.1343 0.70796-0.3824 0.29456-0.2532 0.47026-0.6046 0.18086-0.3514 0.24804-0.894z" style="font-variant-caps:normal;font-variant-east-asian:normal;font-variant-ligatures:normal;font-variant-numeric:normal"/>
    <path d="m312.17 1226.2v1.0955h-0.83715v2.527q0 0.3049 0.0258 0.3669 0.0362 0.088 0.11886 0.1292 0.0827 0.041 0.34106 0.041h0.28939v0.9974h-3.1936v-0.9974h0.25321q0.31006 0 0.37724-0.031 0.0672-0.031 0.0982-0.1085 0.0362-0.083 0.0362-0.3979v-2.527h-0.76481v-1.0955h0.76481v-0.5374q0-0.5736 0.20153-0.925 0.23771-0.429 0.76481-0.6977t1.2609-0.2687q0.77515 0 1.2144 0.3307 0.43925 0.3256 0.43925 0.7235 0 0.3152-0.20153 0.5168-0.19637 0.1963-0.52193 0.1963-0.1292 0-0.25322-0.036-0.11885-0.041-0.22737-0.1189-0.0775-0.052-0.26355-0.2584-0.1757-0.1912-0.23771-0.2273-0.0775-0.047-0.1447-0.047-0.1757 0-0.27905 0.1654-0.0982 0.1602-0.0982 0.646v0.5374z" style="font-variant-caps:normal;font-variant-east-asian:normal;font-variant-ligatures:normal;font-variant-numeric:normal"/>
    <path d="m315.78 1226q0.88366 0 1.54 0.3462t1.0077 0.9457q0.35656 0.5943 0.35656 1.3952 0 1.2093-0.78548 1.9637-0.78547 0.7545-2.098 0.7545-1.3384 0-2.1291-0.7596-0.76481-0.7235-0.76481-1.9586 0-0.8113 0.34623-1.3952 0.3514-0.584 1.0128-0.9354 0.66146-0.3565 1.5141-0.3565zm0.0207 1.1317q-0.29456 0-0.55294 0.1757t-0.40307 0.5167q-0.13953 0.3411-0.13953 0.8682 0 0.5426 0.13953 0.8992 0.13952 0.3565 0.3824 0.5271 0.24805 0.1705 0.5426 0.1705 0.45475 0 0.78031-0.3824 0.32556-0.3876 0.32556-1.1989 0-0.7855-0.30489-1.1782-0.29972-0.3979-0.76997-0.3979z" style="font-variant-caps:normal;font-variant-east-asian:normal;font-variant-ligatures:normal;font-variant-numeric:normal"/>
    <path d="m319.37 1226.2 2.4133-0.047v3.3538q0 0.3565 0.0413 0.4754 0.0465 0.1189 0.16019 0.1964 0.11886 0.072 0.29456 0.072 0.25838 0 0.54777-0.124 0.11369-0.052 0.60461-0.3669v-2.0154q0-0.2635-0.0413-0.3617-0.0413-0.098-0.11886-0.1395-0.0775-0.047-0.29972-0.047h-0.29972v-0.9973l2.4184-0.047v3.7q0 0.2894 0.031 0.3669 0.0362 0.072 0.10852 0.1085 0.0775 0.031 0.36174 0.031h0.27388v0.9974l-2.2686 0.062v-0.6098q-0.45475 0.3359-0.91467 0.5064-0.45991 0.1654-0.925 0.1654-0.37207 0-0.6873-0.124-0.31005-0.1189-0.52193-0.3204-0.21187-0.2067-0.31522-0.4806t-0.10335-0.7028v-2.1291q0-0.2945-0.0362-0.372-0.031-0.078-0.10852-0.1137-0.0775-0.041-0.33073-0.041h-0.28421z" style="font-variant-caps:normal;font-variant-east-asian:normal;font-variant-ligatures:normal;font-variant-numeric:normal"/>
    <path d="m328.77 1226v0.6873q0.58395-0.3979 0.99736-0.5426 0.41857-0.1447 0.85265-0.1447 0.50126 0 0.88367 0.2118 0.38757 0.2119 0.56327 0.5323 0.1757 0.3152 0.1757 0.8992v2.1497q0 0.2739 0.0362 0.3514 0.0413 0.078 0.12403 0.1137 0.062 0.026 0.37206 0.026h0.25322v0.9974h-3.0334v-0.9974q0.34623-0.01 0.38757-0.015 0.12919-0.036 0.17054-0.1188 0.0413-0.083 0.0413-0.3566v-1.8965q0-0.3669-0.0775-0.4754-0.12402-0.1809-0.39274-0.1809-0.22221 0-0.47542 0.098t-0.68213 0.4031v2.0515q0 0.3359 0.0724 0.4134 0.0723 0.077 0.34623 0.077h0.16537v0.9974h-3.0024v-0.9974h0.14987q0.35656 0 0.43924-0.031 0.0879-0.031 0.12919-0.1085 0.0465-0.077 0.0465-0.3049v-2.4081h-0.76481v-0.9973q0.93018-0.1137 1.7415-0.4341z" style="font-variant-caps:normal;font-variant-east-asian:normal;font-variant-ligatures:normal;font-variant-numeric:normal"/>
    <path d="m339.02 1223.7v6.01q0 0.3565 0.031 0.434 0.031 0.072 0.10335 0.1086 0.0775 0.036 0.39791 0.036h0.24288v0.9974l-2.2428 0.078v-0.5323q-0.48576 0.3256-0.85266 0.4548-0.3669 0.124-0.7338 0.124-0.59428 0-1.0955-0.3204-0.49609-0.3255-0.81648-0.9612-0.31523-0.6356-0.31523-1.4107 0-0.7855 0.32039-1.4211 0.32556-0.6408 0.84233-0.9664 0.52193-0.3255 1.1627-0.3255 0.33073 0 0.63045 0.083 0.30489 0.078 0.67179 0.279v-1.2247h-0.75447v-1.0025q0.64079-0.062 1.0387-0.1551 0.40308-0.098 0.86817-0.2842zm-1.6536 6.1081v-1.7311q0-0.3256-0.0465-0.4599-0.062-0.1912-0.28422-0.3359-0.21704-0.1447-0.48576-0.1447-0.27905 0-0.51676 0.1705-0.23771 0.1654-0.37724 0.5116t-0.13953 0.863q0 0.7183 0.31523 1.1524 0.24288 0.341 0.64595 0.341 0.1757 0 0.3359-0.057 0.1602-0.062 0.55293-0.3101z" style="font-variant-caps:normal;font-variant-east-asian:normal;font-variant-ligatures:normal;font-variant-numeric:normal"/>
   </g>
   <path transform="matrix(1.8261 0 0 1.5077 -854.86 -728.73)" d="m751.34 1037.1c34.111-10.127 48.801-46.184 68.154-63.343l-65.214-17.105z" fill="#6b1f2c" fill-opacity=".86046" filter="url(#filter1545)" sodipodi:nodetypes="cccc"/>
   <path transform="matrix(1.8261 0 0 1.5077 -854.86 -728.73)" d="m254.14 1239.3c-5.8921-88.972 289.77-210.01 294.75-184.52l204.44-32.421 61.241-57.819c308.82 500.11-263.2 321.4-560.43 274.76z" fill="#a53042" fill-opacity=".34749" filter="url(#filter1463)" sodipodi:nodetypes="ccccc"/>
   <path d="m543.51 468.15c-27.428 88.749-64.14 172.25-114.15 249.61 85.674-6.5893 131.46 45.623 180.09 93.654 54.394-105.12 59.908-204.76 121.36-245.41-45.006-49.382-97.346-91.71-187.3-97.858z" fill="#fff094" stroke="#000" stroke-linejoin="round" stroke-width="4.2628" sodipodi:nodetypes="ccccc"/>
   <g fill="#6b1f2c" fill-opacity=".86046">
    <path d="m481.32 680.3c4.2659 0.60602 8.4785 2.0703 12.569 3.5724 5.4902 2.0158 6.4487 2.5169 11.836 4.8378 5.8555 2.5641 11.472 5.5591 16.845 8.9066 1.4372 0.89545 2.891 1.7716 4.292 2.7112 1.5671 1.0509 3.0718 2.1713 4.6077 3.257 6.0727 4.3171 11.583 9.2289 17.946 13.24 4.1376 2.6084 4.6291 2.6664 9.0477 4.711 1.5665 0.5383 3.1143 1.1467 4.6996 1.615 5.1428 1.519 10.421 2.2716 15.627 3.0347 0.94025 0.13796 9.0881 1.2762 10.283 1.4434 1.3077 0.18079 2.6154 0.35926 3.9231 0.53868 0 0 7.7395-0.82891 7.7395-0.82891-1.525-0.15272-3.0499-0.30544-4.5748-0.45808-5.2885-0.65226-10.571-1.3196-15.86-2.2368-3.3006-0.57274-6.5857-1.1884-9.8496-2.1062-1.5976-0.44927-3.1663-1.0192-4.7495-1.5288-1.563-0.67776-3.1617-1.2839-4.6891-2.0332-3.441-1.6882-6.0087-3.3507-9.1336-5.4831-4.7043-3.2102-9.1706-6.6797-13.52-10.237-0.66968-0.54527-6.6758-5.4788-7.6756-6.139-1.1667-0.77048-2.46-1.3744-3.7197-2.0122-4.9053-2.4833-10.02-4.5728-15.028-6.8489-5.1162-2.3467-5.7399-2.6118-10.672-4.9518-1.7028-0.80844-4.7427-2.2949-6.6228-3.1576-1.4499-0.66535-1.1468-0.54312-2.2379-0.90504l-11.084 1.0587z"/>
    <path d="m507.89 654.56c1.8286-1.275 4.2636-1.7923 6.752-1.9844 1.063-0.082 2.155-0.0571 3.2326-0.0858-1.6207 0.0297-3.7389-0.75372-4.8621 0.0888-0.86662 0.65004 2.5544 0.37586 3.8172 0.69507 1.2706 0.32133 2.5331 0.72691 3.7556 1.2208 2.7779 1.1223 4.966 2.4254 7.3238 4.1756 1.1342 0.84191 2.1521 1.7913 3.2282 2.6869 2.6275 2.4072 4.6756 5.1463 6.9306 7.7644 0.61358 0.71238 1.2111 1.4379 1.8996 2.1048 2.0543 1.9898 2.4213 2.0148 4.9745 3.554 3.3949 1.5787 6.9625 2.7205 10.485 3.9557 1.8806 0.6594 3.8069 1.2754 5.6048 2.1583 0.7988 0.39226 1.5411 0.87691 2.3116 1.3154 0.77438 0.55714 1.5679 1.0951 2.3232 1.6715 1.2014 0.91691 4.7462 3.8785 5.8636 4.6257 5.2686 3.5231 11.187 6.1418 16.981 8.7962 5.6836 2.4711 11.479 4.6683 17.264 6.8847l6.5814-0.53161c-6.045-2.1146-12.129-4.1567-17.994-6.7642-4.5121-2.2301-6.7555-3.1481-10.841-5.8707-2.7912-1.8598-4.1959-3.1979-6.4854-5.3565-0.77363-0.72945-1.4848-1.504-2.284-2.2144-0.7117-0.63262-1.4947-1.2059-2.242-1.8088-0.83756-0.47758-1.6391-1.0151-2.5126-1.4327-2.2054-1.0542-3.8443-1.425-6.1732-2.1731-3.3851-1.0874-6.7744-2.2255-9.9819-3.7908-0.86463-0.50144-1.7742-0.94602-2.5938-1.5045-1.6129-1.099-3.0847-2.5478-4.4162-3.8671-2.623-2.5989-5.0651-5.317-7.7891-7.8495-3.3189-2.8401-6.1159-5.3284-10.32-7.2059-6.6314-2.9614-12.647-2.5084-19.642-2.6105-1.1699 0.0422-2.3525 0.0388-3.5098 0.1265-3.2813 0.24889-6.485 0.87731-9.3157 2.0347l11.636 1.1913z"/>
    <path d="m503.58 629.02c2.4906-0.36524 5.0904-0.19752 7.6385 0.0528 3.3016 0.32453 6.059 0.767 9.3528 1.4673 1.6458 0.34987 3.2825 0.78183 4.9238 1.1728 4.1837 1.2356 8.5445 2.4333 12.38 4.8943 3.7825 2.4268 6.8054 5.9235 9.8582 9.2591 1.3446 1.5544 4.2558 5.047 5.842 6.381 1.2444 1.0465 2.5882 1.9613 3.9696 2.7725 5.353 3.1432 10.963 4.5399 16.716 6.1007 6.3823 1.7256 12.929 2.7763 19.145 5.4043 2.7336 1.1567 4.0465 1.9836 6.6683 3.4488 3.7401 2.2012 7.412 4.552 11.216 6.6128 1.4919 0.80813 3.0087 1.5545 4.513 2.3318l7.4973-1.8599c-5.0276-2.8921-10.005-5.8811-14.85-9.1473-2.6538-1.5121-4.1682-2.5188-7.0212-3.5531-1.393-0.50499-2.8185-0.86262-4.238-1.2286-5.5099-1.4205-11.087-2.2195-16.583-3.755-4.2148-1.2389-6.8894-1.8362-10.911-3.7262-2.845-1.3372-5.4985-3.0407-7.945-5.1356-1.8464-1.5811-4.4666-4.5052-6.112-6.276-2.7604-3.0836-6.3178-7.4626-9.7406-9.6553-1.2503-0.80101-2.6225-1.3369-3.9678-1.9001-3.436-1.4378-5.6137-1.9609-9.1586-2.9954-4.6926-1.2453-4.5882-1.272-9.2022-2.2895-2.266-0.49973-4.5457-0.86067-6.8105-1.3712-0.55666-0.12544-1.1-0.34679-1.6568-0.47113-0.16819-0.0366-0.33777-8e-3 -0.50665-0.0121 0 0-11.019 3.478-11.019 3.478z"/>
   </g>
   <path d="m-89.512 963.22 615.39-136.14v-576.7" fill="#e5c888" stroke="#000" stroke-linecap="round" stroke-linejoin="round" stroke-width="18.938"/>
   <g>
    <path d="m377.32 858.36c0.72688-2.7929 1.321-5.6063 1.9584-8.414 1.1901-5.2894 1.6532-10.665 2.0605-16.027 0.22733-5.6224 0.19861-11.251 0.0128-16.874-0.28994-4.0891-0.53643-8.1786-0.68766-12.275-0.0577-2.3857-0.22346-4.7676-0.302-7.1528 0.0783-0.86694-0.47159-2.1155 0.25467-2.8898 0.26804-0.28586 1.1475-0.63023 1.468-0.77406-21.532 11.638-12.474 6.5761-6.9371 4.8556 2.7678-0.85986 5.6038-1.5774 8.434-2.2804 7.7354-2.0024 15.564-3.7396 23.381-5.5094 9.334-2.1963 18.643-4.4598 28.018-6.537 7.0022-1.4938 13.967-3.1038 20.951-4.653 6.164-1.4857 12.255-3.1658 18.395-4.7157 5.3743-1.3144 10.81-2.4474 16.192-3.7401 4.0633-1.1102 7.9803-2.5356 11.944-3.8577 0.30429-0.0709 1.0391-0.31363 1.4496-0.21559 0.94467 0.22554 1.2761 2.31 1.4411 2.9178 1.037 4.8705 1.9033 9.7567 2.4479 14.682 0.60174 5.7896 0.65806 11.601 0.74986 17.407 0.0245 2.9208 0.0802 5.8368 0.44928 8.7436 0.421 3.1089 0.74518 6.2237 0.83538 9.3516-0.18653 0.85759 0.36754 2.314-0.16564 3.1199-0.16782 0.25345-1.2991 0.82608-1.5362 0.95529 3.8814-2.2176 7.7627-4.4351 11.644-6.6527-0.50336 0.24726-0.98901 0.52092-1.51 0.74195-2.3196 0.98364-4.8465 1.6684-7.307 2.3594-7.5987 2.1339 2.0155-0.65013-8.101 2.3113-1.8564 0.49513-3.7161 0.98138-5.569 1.485-7.6811 2.0879-7.2602 2.0909-15.138 3.9923-7.46 1.8004-14.989 3.4141-22.514 5.016-13.243 2.7845-26.618 5.1121-39.951 7.5814-8.6943 1.8366-17.447 3.4878-26.22 5.0492-2.3718 0.32416-4.6686 0.88594-6.9627 1.4596-1.3984 0.36592-2.7914 0.73863-4.2269 0.99268-0.90986 0.0498-1.7139 0.29401-2.5505 0.57233 0 0-12.004 8.8657-12.004 8.8657 0.30329-0.0905 0.93598-0.26596 1.2285-0.39714 0.16691-0.0754 0.29093-0.21289 0.46925-0.26686 0.19779-0.0603 0.418-0.0437 0.62704-0.0648 1.548-0.20278 3.0606-0.53071 4.5203-1.0082 2.7474-0.68812 5.3787-1.6573 8.1314-2.3385 9.4165-2.6408 18.928-5.0364 28.633-6.8589 4.278-0.85051 8.5501-1.7218 12.83-2.5645 9.321-1.835 18.718-3.4106 27.942-5.5744 9.9936-2.2402 19.948-4.6198 29.982-6.736 2.0937-0.44161 4.2054-0.82321 6.3031-1.2517 1.6671-0.34044 3.3273-0.7032 4.9909-1.055 5.0789-0.96901 10.157-2.0499 15.049-3.5434 4.6169-2.6228 9.3067-5.16 13.851-7.8682 0.56767-0.33833 0.93243-1.2903 1.0081-1.8011 0.14883-1.0031-0.43177-2.0208-0.43698-3.015-0.46682-3.1091-0.67078-6.2355-0.80738-9.3655-0.14152-2.8321-0.56269-5.6375-1.05-8.4422-0.89737-5.5516-1.8052-11.108-2.1502-16.707-0.0699-1.1997-0.16727-2.3984-0.20905-3.5989-0.14263-4.0798 0.18133-8.1679-0.22119-12.24-0.24773-1.5823-0.56291-4.659-3.2185-4.7612-0.45884-0.0178-0.89872 0.15729-1.3481 0.23611-4.092 1.5504-8.1178 3.2425-12.415 4.3886-5.5396 1.4756-11.123 2.839-16.726 4.142-6.1677 1.4796-12.247 3.1936-18.393 4.7315-7.245 1.8081-14.557 3.431-21.791 5.2702-9.2899 2.236-18.562 4.541-27.945 6.4973-5.3855 1.1843-10.77 2.4081-16.193 3.4732-1.1148 0.21908-2.2429 0.3905-3.3552 0.61802-0.95484 0.19525-1.896 0.43347-2.8439 0.65013-2.7321 0.70275-5.4688 1.3848-8.2144 2.0502-0.0961 0.0241-3.65 0.86634-3.9774 1.036-4.7679 2.4703-9.3826 5.1365-14.074 7.7048-0.28077 0.26656-0.61817 0.4986-0.84222 0.79939-0.88153 1.1836-0.25429 2.6753-0.18466 3.9478 0.33731 2.2744 0.58899 4.5562 0.95796 6.8273 0.58309 3.962 1.0716 7.9276 1.3563 11.911 0.52979 5.4744 0.99631 10.968 0.50442 16.46-0.49319 5.4783-1.4391 10.909-2.9545 16.263-0.90991 3.133-1.919 6.2602-3.7819 9.1149l14.344-6.5548z"/>
    <path d="m231.78 888.47c-0.21234-0.28134-0.46238-0.54775-0.63699-0.84387-1.3969-2.3691-2.056-5.0655-2.6388-7.6003-0.85-3.6969-1.1627-6.1203-1.768-9.9182-0.56615-10.046-2.0998-20.03-3.2523-30.039-0.36222-3.9076-0.774-7.802-1.6313-11.664-0.0371-0.90177-2.0056-3.345-1.8749-4.0597 0.0382-0.20852 0.38277-0.30215 0.57409-0.45322-4.9163 3.8097-9.8328 7.6193-14.749 11.429 1.7369-0.77783 3.3822-1.6912 5.2109-2.3336 4.6463-1.6321 13.959-3.8361 18.524-4.896 13.045-3.0286 26.242-5.6164 39.442-8.2098 13.719-2.6082 27.471-5.1184 41.297-7.3734 9.8229-1.6021 19.688-3.029 29.504-4.6587 7.4071-1.2873 15.164-2.0669 21.766-5.1261 17.504-12.505 12.997-7.146 17.961-13.274 0 0-18.278 9.9368-18.278 9.9368-5.2618 4.4205-1.0876 0.87584 13.779-9.677-1.7573 1.1426-2.2679 1.5674-4.3767 2.5-6.4362 2.8463-13.723 4.384-20.597 6.4356-3.0186 0.75055-6.0193 1.5447-9.0558 2.2515-21.309 4.9598-43.098 8.6165-64.758 12.528-12.326 2.0888-24.653 4.1465-37.036 6.0298-2.8508 0.43347-12.179 1.8694-15.706 2.1883-1.3147 0.11911-2.6457 0.0784-3.9685 0.11609-3.1852 2.4402-19.309 7.5869-16.562 13.972 0.12382 0.28798 0.35579 0.54188 0.51914 0.81809 0.56161 0.94972 0.97551 1.9376 1.3159 2.9465 1.3174 3.3488 2.7202 6.6788 3.8801 10.063 2.8965 9.4839 4.2227 19.179 4.7988 28.903 0.21251 7.1754 0.21775 14.355 0.60913 21.525l17.709-11.515z"/>
    <path d="m97.756 921.67c-0.76742-1.2537-1.0558-2.6296-1.4963-3.9688-0.24288-0.73818-0.55747-1.4596-0.79543-2.1989-0.6788-2.109-0.83066-2.9978-1.3255-5.1633-1.3575-6.2625-1.8963-12.61-2.2215-18.957-0.07414-5.483-0.22728-10.964-0.38663-16.445-0.10701-3.8982-0.04511-7.7936-0.0091-11.691 0.04565-1.9591 0.10026-3.9178 0.08382-5.8774 0.08218-0.44462-0.296-2.2442 0.12783-2.5079 0.17513-0.10856 0.83709-0.14625 0.65553-0.0452-5.8843 3.2895-11.888 6.4316-17.832 9.6475 0.65204-0.29702 1.2813-0.63083 1.9561-0.89092 3.0843-1.1884 6.4002-1.921 9.6679-2.6652 9.1095-2.0742-1.7871 0.46182 8.6749-1.9899 9.038-2.1747 18.261-3.7542 27.44-5.4534 6.9968-1.2585 13.94-2.7139 20.905-4.0889 6.0404-1.2511 12.019-2.6822 18.051-3.9621 5.0324-1.0887 10.061-2.1992 15.053-3.4081 2.9865-0.66158 5.911-1.4729 8.8272-2.3163 3.8842-1.0513 7.8077-2.013 11.759-2.8781 1.6005-0.33803 3.2275-0.56932 4.8564-0.78748l17.355-11.56c-1.8202 0.29386-3.6356 0.60641-5.4304 0.9954-3.7641 0.78869-7.4886 1.6876-11.271 2.4158-3.2047 0.76804-6.2375 1.9726-9.4483 2.7394-5.0847 1.4518-10.281 2.6213-15.462 3.8139-6.0931 1.3149-12.138 2.775-18.229 4.0892-7.1536 1.6077-14.362 3.0497-21.545 4.5637-9.2528 1.8755-18.514 3.7197-27.757 5.6301-6.1528 1.116-12.285 2.3115-18.403 3.545-18.606 9.9926-20.621 4.9349-19.923 14.285 0.15029 1.8596 0.37206 3.7138 0.5845 5.5692 0.36936 3.747 0.75875 7.4904 0.97445 11.247 0.30637 5.3753 0.60959 10.75 1.1807 16.112 0.48775 6.4622 0.76908 12.949 1.8125 19.371 0.72648 3.9944 1.7634 8.103 1.2789 12.148l20.289-9.3179z"/>
    <path d="m425.8 741.16c1.2339 4.6454 1.2532 9.4508 1.3035 14.185 0.0683 4.961-0.42349 9.9021-0.79489 14.847-0.12674 2.4708-0.1817 4.9425-0.31096 7.4134 0.0146 1.7012-0.11833 3.4009-0.0747 5.1017-0.0208 1.3235 0.32237 2.6299 0.5066 3.9421l20.228-8.7959c-0.23055-1.22-0.52756-2.4403-0.44242-3.6825 0.0426-1.6801-0.0884-3.3588-0.0743-5.0392-0.1302-2.3836-0.18319-4.7681-0.31103-7.1517-0.3785-4.7218-0.87649-9.4392-0.79486-14.179 0.0535-5.1042 0.15942-10.25 1.3035-15.282l-20.538 8.64z"/>
    <path d="m425.85 741.41c6.2479-2.3048 12.501-4.6034 18.805-6.8033 8.9228-3.091 17.91-6.0482 26.93-8.9402 7.0332-2.2775 14.081-4.5108 21.193-6.617 2.5605-0.70754 5.0178-1.6743 7.6344-2.2371 1.7644-0.35105 3.564-0.5641 5.3334-0.88044 1.1454-0.25832 0.57296-0.15296 1.7166-0.31896l18.114-11.554c-1.0345 0.38022-0.48707 0.24723-1.6467 0.38613-0.55156 0.13163-1.0784 0.33713-1.6406 0.43297-1.2484 0.21274-2.5806 0.18239-3.7805 0.61799-0.74306 0.0926-1.576 0.17675-2.2989 0.34999-2.3308 0.55849-4.4072 1.672-6.6976 2.318-7.449 2.7926-15.156 5.1012-22.727 7.6535-8.9593 2.8806-17.924 5.7478-26.793 8.8153-3.6662 1.1963-7.3505 2.3558-11.017 3.5487-0.76998 0.25054-1.5119 0.55833-2.2866 0.79884-1.1532 0.35798-1.5501 0.40553-2.6129 0.59687l-18.225 11.832z"/>
    <path d="m440.92 727.43c-6.1202 0.76741-12.186 1.9502-18.22 3.0993-18.228 3.7051-36.942 5.1712-55.598 6.4948-19.812 1.3534-39.639 2.5739-59.478 3.6174-4.9952 0.36523-10.083 0.39595-15.018 1.2255-2.0987 0.35284-2.9706 0.63994-5.0167 1.1878-3.0007 1.0063-6.2136 1.7666-9.0228 3.1336-20.472 9.9618-15.843 4.554-21.134 11.194-0.38017 1.1437-0.82197 2.188-0.81684 3.3988 5e-3 0.8215 0.19071 1.6356 0.30517 2.4516 0.43452 3.0985 1.1114 6.1361 1.8442 9.1944 0.43305 1.5496 1.29 4.7531 1.8687 6.2807 0.42316 1.1169 0.97442 2.198 1.4462 3.3015 1.3079 3.059 2.5203 6.1455 3.7742 9.2197 1.6009 3.7382 3.0553 7.5166 4.2246 11.363 0.43783 2.1061 0.99693 4.1951 1.2596 6.3229 0.34162 1.7012 0.87272 3.3651 1.2985 5.0512 0.0469 0.2337 0.0939 0.46725 0.14044 0.70094 0 0 20.145-8.8956 20.145-8.8956-0.0709-0.24802-0.14153-0.49604-0.21235-0.74391-0.51914-1.6016-0.99242-3.2063-1.3485-4.8393-0.49005-2.1458-1.0298-4.2969-1.8774-6.3673-1.6215-3.7155-3.8593-7.1807-5.7382-10.807-0.71698-1.3919-2.2232-4.2788-2.8489-5.6524-1.8852-4.1384-3.0933-8.4517-4.3417-12.743-0.78713-4.2309-1.9948-9.1533 0.35378-13.225 0.24501-0.42478 0.61828-0.79047 0.92748-1.1857 5.9254-4.6087 1.1716-0.7789-16.191 7.2729-0.66117 0.30664 1.2669-0.69024 1.9277-0.99738 2.2949-1.0666 4.7582-1.8306 7.2059-2.6155 7.5068-2.3137 15.381-3.715 23.254-4.8783 6.8137-0.87788 10.55-1.4037 17.566-2.107 14.714-1.4749 29.52-2.1344 44.296-3.0262 10.307-0.57579 20.6-1.2614 30.9-1.9197 2.8324-0.18108 11.926-0.74257 15.172-1.0758 1.793-0.18398 3.5671-0.47686 5.3506-0.71529 4.9404-0.67048 9.8913-1.1994 14.887-1.4886l18.716-11.227z"/>
    <path d="m155.5 833.47c-2.7874-5.5511-4.4256-11.474-6.0018-17.324-1.848-7.1976-2.3884-14.564-2.6778-21.9-0.0705-1.7842-0.15742-3.5694-0.13696-5.3545 0.0208-1.7289 0.17184-3.4551 0.25778-5.1828 0.42578-3.9846 1.0409-7.9743 2.2194-11.861 0.46695-1.5401 1.0849-3.3305 2.1035-4.7159 0.43906-0.59719 1.0512-1.0949 1.5768-1.6423 0.70688-0.4292 1.3684-0.91466 2.1206-1.2876 0.82506-0.40903 3.4053-1.4743 2.5925-1.049-4.7302 2.4747-9.9607 4.339-14.356 7.2036-1.5234 0.99283 3.6715-1.0487 5.5466-1.4623 6.0462-1.3336 10.024-1.7606 16.328-2.6542 16.851-2.1558 33.911-1.9845 50.901-2.3432 9.6471-0.17461 19.224-1.1807 28.812-1.986l16.67-10.344c-6.1145 1.0831-12.25 2.1775-18.459 2.8292-2.0998 0.22042-4.2109 0.35991-6.3179 0.52766-2.2471 0.17895-4.4961 0.34166-6.7442 0.51243-17.308 1.0168-34.648 1.6565-51.943 2.8438-5.0601 0.33386-9.1784 0.54257-14.144 1.0834-1.547 0.16846-3.207 0.0754-4.6204 0.62132-7.2817 2.8132-14.225 6.1899-21.273 9.3823-0.90597 0.41036-1.7851 0.87419-2.5783 1.421-0.77181 0.53206-1.3927 1.1976-2.0891 1.7964-0.40385 0.644-0.89353 1.2561-1.2117 1.9321-0.80833 1.7174-0.87612 2.8685-1.0375 4.7019-0.32942 3.7414-0.2786 7.4947-0.23822 11.243-0.0305 4.461-0.11706 6.0561 0.16508 10.553 0.46678 7.4406 1.6333 14.842 2.2446 22.274 0.92679 6.3466 2.3179 12.715 1.862 19.132l20.43-8.9483z"/>
    <path d="m306.98 738.06c-0.84023-2.3726-0.94191-4.8484-1.1578-7.2939-0.67634-7.6598-0.0393 1.1734-0.61237-7.3923-0.10262-1.5404-0.17531-3.0824-0.30732-4.6212-0.55705-6.4885-0.97867-6.2618-0.49194-13.087 0.32635-4.5762 1.1565-9.2764 2.3315-13.758 0.50672-1.9326 1.1971-3.8292 1.7956-5.7439 1.5867-4.1197 3.5908-8.1365 7.7392-10.964 1.1171-0.76135 4.891-2.5645 3.6545-1.9415-14.388 7.2492-16.158 7.4437-6.1454 4.326 12.112-3.0669 24.544-5.2983 37.094-6.7253 9.0462-1.0285 13.281-1.2199 22.322-1.8407 17.239-0.8945 34.479-1.6998 51.689-2.9183 1.8764-0.19248 3.7599-0.34218 5.6291-0.57743 2.1207-0.26691 4.2233-0.62349 6.3364-0.92863 7.5274-1.0868 15.058-2.1469 22.622-3.046 6.3293-0.74136 12.641-1.5735 18.974-2.2949 5.0201-0.53218 10.067-0.8415 15.092-1.337 2.5108-0.17172 4.9765-0.53441 7.3812-1.1478 1.2038-0.32079 2.4425-0.53811 3.6744-0.76989l18.088-11.315c-1.2468 0.18349-2.4966 0.35672-3.733 0.58067-2.6485 0.66025-5.191 1.6289-7.9824 1.8617-5.1725 0.77844-10.378 1.3178-15.617 1.694-1.9082 0.21394-3.8256 0.37812-5.7248 0.64099-4.9928 0.69102-9.9092 1.7538-14.868 2.5821-11.843 1.9607-23.75 3.6012-35.649 5.3009-18.16 2.3842-36.463 3.8469-54.805 4.8895-11.023 0.81371-22.014 1.7435-33.007 2.7988-3.0559 0.29333-6.1238 0.5142-9.166 0.8923-4.0733 0.50627-9.7514 1.5962-13.839 2.3423-12.498 3.0584-6.6131 1.275-26.688 10.974-2.5583 1.236-4.6454 3.051-6.0342 5.2065-1.7652 2.7398-2.0254 4.9857-2.7896 8.0204-1.0948 6.3567-1.9042 12.733-2.6483 19.125-0.28333 2.4341-0.47208 4.8755-0.77642 7.3078-0.28443 2.2727-0.73711 4.5303-0.98967 6.8056-0.18005 1.622-0.20487 3.2532-0.30732 4.8798-0.56729 8.958 0.059-0.26001-0.61236 7.9075-0.22758 2.7691-0.38176 5.554-1.1578 8.2681 0 0 20.686-8.7024 20.686-8.7024z"/>
    <path d="m205.28 749.64c-1.8077-6.4836-1.8246-13.198-1.7031-19.814 0.57815-10.818 2.4987-21.797 7.8753-31.768 0.91338-1.694 2.0591-3.2961 3.0886-4.9441 2.6343-3.2603 3.4472-4.855 7.1697-7.2796 1.4112-0.91917 6.0856-3.1596 4.5918-2.3343-3.2765 1.8102-7.5859 2.6799-9.9416 5.29-1.4671 1.6255 4.6052-1.418 6.9615-1.9881 2.467-0.59691 4.995-1.0061 7.4925-1.5092 12.274-2.0322 24.832-2.3208 37.312-2.3058 3.4917 0.0178 6.9748 0.21037 10.455 0.41954l16.985-10.182c-4.0178 0.18142-8.0358 0.36413-12.057 0.49393-3.7114 0.12635-7.4279 0.17364-11.134 0.37578-9.3957 0.51243-18.76 1.5527-28.062 2.7206-2.6226 0.43706-11.235 1.7149-13.847 2.7443-7.3756 2.9068-14.5 6.2373-21.602 9.5752-5.2482 2.4662-8.0685 5.6897-10.603 10.115-0.77794 1.6032-1.6416 3.1798-2.3339 4.8095-1.8137 4.2693-2.7741 7.6007-3.9334 12.052-0.9089 3.4899-2.4283 10.203-3.0581 13.732-0.38165 2.139-0.63459 4.2924-0.95188 6.4386-0.69474 5.1693-1.3688 10.337-2.1492 15.497-0.25458 1.6837-0.42181 3.377-0.73473 5.0541-0.0909 0.48651-0.23872 0.96464-0.35811 1.447 0 0 20.538-8.64 20.538-8.64z"/>
    <path d="m424.24 650.72c-1.8348-5.6459-1.6943-11.626-0.88776-17.393 0.2733-1.9542 0.72337-3.8887 1.0851-5.8331 1.4498-5.7735 3.7572-11.361 6.6646-16.74 0.8448-1.5628 1.6287-3.1609 2.7098-4.6211 2.6982-3.6445 4.1525-4.2811 7.9754-7.061 1.6513-0.87501 6.6521-3.4362 4.9537-2.625-19.126 9.1352-11.987 5.5514-6.0621 3.8292 4.821-1.4012 9.7427-2.0126 14.783-2.5579 7.2317-0.87481 14.504-0.13072 21.755-0.2101 4.3597-0.30485 8.6809-0.92293 12.984-1.5627 5.0752-0.57912 9.9729-1.8216 14.916-2.885 2.9646-0.71032 1.5148-0.38302 4.3472-0.98759l17.216-10.896c-2.9288 0.64598-1.4577 0.32048-4.4132 0.97658-5.549 1.4386 1.2449-0.29435-4.6812 1.1212-3.35 0.8003-6.6342 1.8212-10.161 1.9673-4.3492 0.57734-8.7162 1.0342-13.022 1.8175-7.8286 0.7306-15.763 0.57129-23.605 1.2255-3.7151 0.34022-6.5377 0.51392-10.196 1.1888-13.178 2.4311-24.986 8.9552-35.811 15.354-3.777 3.071-5.1072 3.6754-7.6079 7.595-0.91506 1.4342-1.5091 2.994-2.1912 4.5141-2.455 5.4708-4.3778 11.096-5.9872 16.773-0.48334 2.0231-1.0072 4.0399-1.45 6.0693-1.4172 6.4951-2.2429 13.073-3.7773 19.55 0 0 20.464-8.6088 20.464-8.6088z"/>
    <path d="m430.96 598.08c-16.082 1.9646-32.395 1.9408-48.616 2.0268-17.5-0.0105-34.998-0.26068-52.491-0.66946-10.768-0.261-21.542-0.32191-32.309-0.61228-2.6799 0.095-5.4072-0.48344-8.0902-0.28924-0.58004 0.0418-1.2075 0.0485-1.7111 0.2899-6.7766 3.2481-13.617 6.4385-20.045 10.138-0.61364 0.35317-0.43382 1.182-0.65076 1.7731-0.1859 0.73484-0.39874 1.4654-0.55754 2.2046-0.20156 0.93809-0.34896 1.8836-0.52338 2.8254-0.23106 1.0864-0.45498 2.1739-0.69309 3.2593-0.75661 3.4487-1.5865 6.8746-2.2487 10.337-0.17549 1.0949-0.43455 2.1828-0.52673 3.2846-0.10354 1.2382-0.0237 2.4824-0.0595 3.7232-0.14555 5.0125-0.42825 10.022-0.73182 15.029-0.30867 4.2922-0.64545 8.5828-0.96599 12.874-0.24483 2.0697-0.1702 4.1457-0.11414 6.2203 0.0718 1.9138 0.0254 3.8278 0.0402 5.742 0 0 19.952-8.3934 19.952-8.3934 0.0146-1.9258-0.0314-3.8511 0.0369-5.7764 0.0491-2.0393 0.12363-4.0813-0.15412-6.1133-0.36001-4.013-0.72336-8.0266-0.92038-12.048-0.14756-4.9178-0.23631-9.8555 0.35235-14.76 0.15541-1.2957 0.43486-2.5794 0.6271-3.8718 0.1576-1.0597 0.2815-2.1226 0.4223-3.1839 1.148-6.378 2.4466-12.871 5.8646-18.731 5.5077-5.8607 1.5823-1.3061-16.38 6.7768-0.56214 0.25295 0.96919-0.724 1.563-0.92155 0.75489-0.25104 1.5888-0.29865 2.3943-0.39463 2.605-0.31041 4.4781-0.31925 7.1581-0.4206 11.448-0.28322 22.902-0.35638 34.351-0.6123 18.238-0.39531 36.479-0.65738 54.723-0.66944 8.2349 0.0442 11.984 0.0178 20.145 0.24267 3.8671 0.10644 11.568 0.36654 15.686 0.80566 2.0309 0.21657 3.9996 0.74091 6.028 0.97848l18.446-11.065z"/>
    <path d="m370.48 590.73c-2.4263-6.1993-2.6105-12.919-2.0906-19.37 0.183-2.2706 0.5639-4.5274 0.8458-6.7911 1.0973-6.2743 3.0952-12.419 5.6681-18.386 1.1915-2.763 1.9696-5.0327 4.6447-7.0541 0.95816-0.72399 2.2244-1.1078 3.3366-1.6616-4.2745 2.2869-9.261 3.8552-12.823 6.8608-1.4171 1.1955 3.9412-0.79319 5.9422-1.0552 5.1778-0.6779 10.884-0.91411 16.089-1.1216 5.8982-0.2352 11.801-0.39255 17.699-0.62515 17.258-0.82807 34.515-1.8398 51.687-3.5002 11.422-1.4946 23.022-1.8774 34.424-3.4504 4.1937-0.69411 8.386-1.3934 12.578-2.0961l16.853-10.628c-4.413 1.0261-8.8799 1.8865-13.363 2.68-12.509 2.3749-25.15 4.2608-37.861 5.7418-5.7654 0.48616-11.534 1.0028-17.313 1.3708-2.8319 0.18032-5.6718 0.26866-8.5033 0.45363-8.5718 0.56004-17.119 1.421-25.719 1.6869-7.738 0.27573-9.5618 0.41583-17.254 0.39574-2.6083-8e-3 -5.2153-0.10599-7.8234-0.1268-0.6265-5e-3 -10.704-0.10705-11.948 0.33737-7.4046 2.6457-14.305 6.1656-21.457 9.2484-0.94518 0.72244-2.0789 1.3068-2.8354 2.1674-1.826 2.0771-2.0018 4.3408-2.558 6.7739-1.3615 5.9545-2.6979 11.914-3.9478 17.885-1.258 6.4611-2.4647 12.929-3.321 19.438-1.1052 8.3996 0.0986 0.85658-0.87958 7.5916-0.097 0.66749-0.22621 1.3315-0.33936 1.9973 0 0 20.27-8.7617 20.27-8.7617z"/>
    <path d="m451.28 525.97c-0.43735-11.121 2.3394-22.156 4.9764-33.001 1.6394-5.5714 2.528-9.1306 4.6722-14.484 1.2001-2.9964 2.6348-6.5647 5.3144-8.9957 1.0799-0.97975 5.2416-3.0451 3.8507-2.3847-3.8676 1.8365-7.5338 3.9482-11.301 5.9222 9.4146-3.1592 19.479-4.4076 29.52-5.2705 3.1063-0.22915 6.2073-0.23611 9.2485-0.84167 2.0541-0.40275 4.0627-0.93948 6.0788-1.4523 1.2916-0.30107 2.6212-0.44339 3.9519-0.55844l18.321-11.186c-1.4378 0.0789-2.8744 0.18261-4.2928 0.40147-2.0802 0.32091-4.0437 0.97306-6.0946 1.3946-1.2323 0.31569-2.4777 0.75515-3.7354 0.98709-2.2989 0.42402-4.702 0.49826-6.979 1.0278-10.496 1.7689-21.039 3.3971-31.339 5.8672-7.1162 3.2479-14.43 6.217-21.349 9.7438-1.3634 0.69499-2.478 1.7364-3.3501 2.8463-1.8382 2.3394-2.2892 5.86-2.7989 8.4501-3.2893 16.716 1.4075-5.7022-2.7335 13.736-1.7326 6.762-2.4905 10.207-4.7071 16.892-2.1351 6.4392-2.8032 7.6509-5.3322 13.544-1.8695 4.3561-0.89806 2.3046-2.5179 5.564 0 0 20.596-8.201 20.596-8.201z"/>
    <path d="m520.14 392.5c-14.171 2.3368-28.716 2.6982-43.12 3.096-15.58 0.54943-31.177-0.40132-46.753-0.0446-3.866 0.26047-7.8099 0.37347-11.58 1.2063-1.6411 0.36255-2.6891 0.71555-4.271 1.1982-8.9647 2.7492-16.404 7.0467-24.899 11.22-0.87335 0.42901-0.99832 1.0447-1.3455 1.7574-0.12363 5.8182 0.49076 11.633 0.93413 17.437 0.1492 1.7048 0.30015 3.4095 0.44799 5.1144 0.15486 1.7878 0.26804 3.5784 0.46039 5.3638 0.8523 7.9113 0.58566 3.3697 1.573 11.559 0.60821 5.0446 0.65679 6.9868 0.96879 12.014 0.51583 4.6996-0.24609 9.4267 0.027 14.127 0.0807 1.3885 0.30694 4.2757 1.7802 5.4201 0.99662 0.77416 2.4403 1.0229 3.6604 1.5343 8.9598 1.6534 18.218 1.2946 27.309 0.79129 8.9956-0.88116 17.981-1.9356 26.835-3.5325 3.8003-0.74885 1.9545-0.33782 5.5408-1.2222l16.654-10.695c-3.8797 1.2127-1.8524 0.62582-6.0897 1.7422-8.873 2.1035-18.017 3.3852-27.201 4.123-4.5098 0.28845-9.0067 0.49853-13.533 0.47618-2.5908-0.0121-6.0956-0.0945-8.6794-0.41049-1.231-0.15062-2.4332-0.4327-3.6496-0.64905-0.84918-0.30017-1.8122-0.43876-2.5474-0.90039-1.4106-0.8858-2.23-2.91-2.6328-4.1738-1.3729-4.3077-1.3601-8.831-2.0768-13.217-0.63139-6.0374-1.1452-12.065-1.5998-18.113-0.40856-5.4361-1.0031-10.877-0.63426-16.331 0.3387-4.0837 0.58315-8.1729 1.252-12.232 0.1832-1.111 0.56117-3.3475 1.0951-4.4981 0.20195-0.43515 0.56742-0.80562 0.85113-1.2084 5.2939-3.6325 21.807-10.346-16.48 7.6506-0.46558 0.21881 0.88272-0.50372 1.3499-0.72021 1.0815-0.50108 2.469-0.96428 3.5951-1.3658 5.621-2.0012 11.492-3.3388 17.553-4.098 16.668-1.915 33.5-2.3176 50.314-2.2393 8.7524 0.0374 17.483 0.13072 26.227 0.46302 2.3634 0.0899 6.0658 0.23222 8.6069 0.46625 0.55394 0.0511 1.0997 0.15002 1.6496 0.22518l18.408-11.333z"/>
    <path d="m485.59 391.88c-0.23513-0.3385-0.50687-0.66133-0.7055-1.0154-3.2575-5.8072-3.6541-13.626-4.4998-19.883-1.2801-12.036-0.0745-24.112 2.3105-35.996 0.68163-2.4517 0.9128-3.6268 1.8593-5.9021 0.26258-0.63128 0.45939-1.3005 0.90325-1.8584 0.95889-1.2053 4.5648-2.4047 3.3227-1.7285-4.7439 2.5828-9.6209 4.995-14.431 7.4925 9.5143-2.1037 19.402-2.4855 29.192-2.811l13.552-8.2127c-2.6054 0.12167-5.2082 0.291-7.8163 0.36506-6.2852 0.17858-12.592 0.0106-18.867 0.45411-7.2572 3.0693-14.604 5.9976-21.771 9.208-1.4893 0.66708-2.2777 1.6262-2.6991 2.9227-0.72872 2.2418-0.17513 4.8652-0.37485 7.1302 0.0999 11.768-0.15486 23.535-0.16782 35.302-0.26989 7.8535-0.3185 15.714-0.27378 23.567 0 0 20.467-9.0346 20.467-9.0346z"/>
    <path d="m402.78 466.59c-12.722 3.1872-26.262 3.6026-39.438 4.3736-12.486 0.59828-24.998 0.83854-37.503 0.58489-7.5547-0.1533-15.09-0.60987-22.644-0.77254-1.426 0.0378-2.8594-0.0121-4.278 0.11308-8.5424 0.75887-19.222 7.993-23.565 10.358-0.90548 0.49292-1.3158 1.437-1.796 2.2399-1.2919 2.16-1.2522 3.4051-1.6638 5.7965-0.17585 2.2173-0.46298 5.2712-0.44979 7.4755 9e-3 1.5111 0.16782 3.0193 0.21449 4.53 0.0506 1.6332 0.0128 3.2678 0.0774 4.9006 0.073 1.8448 0.27133 3.6854 0.33479 5.5303 0.0657 1.9088 0.0349 3.819 0.0522 5.7285-0.0919 8.3538-0.61065 16.698-1.29 25.031-0.0128 2.4498 0.42146 4.9741 2.9916 6.5844 4.4478 2.7865 11.736 3.2621 16.934 3.9941 14.111 1.7296 28.268 3.2663 42.497 4.1468 5.7066 0.12273 11.489 0.48564 17.164-0.23823 2.8542-0.36406 3.6952-0.64082 6.4263-1.2927 9.8309-3.1741 19.483-7.403 27.001-13.552l-20.073 6.8266c-0.48533 0.37182-0.94567 0.76723-1.456 1.1155-0.61766 0.42155-2.6295 1.5036-1.9233 1.1909 34.615-15.326 17.797-8.176 12.844-6.0817-2.8965 0.86649-3.4627 1.115-6.5182 1.6986-6.0182 1.1497-12.227 1.3716-18.381 1.3663-14.502-0.16243-29.138-0.43095-43.293-3.3286-4.2819-1.1779-11.876-2.7758-14.46-6.3579-0.95234-1.3202-0.97653-2.3527-1.2864-3.8497-0.78524-7.925-1.4287-15.862-1.5912-23.815 0.0305-9.0383-0.10427-2.4738 0.3796-11.558 0.30787-5.7805 0.58172-11.604 2.0213-17.286 0.83052-2.14 1.1281-3.5436 2.6856-5.3676 0.55374-0.64846 2.8325-2.079 1.9608-1.745-5.225 2.0018-10.123 4.5408-15.184 6.8112 1.2696-0.42979 2.4898-0.97715 3.8088-1.2893 1.727-0.40862 3.5248-0.5753 5.2872-0.86297 2.3187-0.22851 4.6313-0.50418 6.9561-0.68556 18.786-1.466 37.71-1.3814 56.555-1.2053 10.783 0.20203 21.572 0.55562 32.355 0.49064l18.246-11.599z"/>
    <path d="m276.45 604.73c-9.5486 0.98918-19.21 1.1724-28.816 0.79989-2.3517-0.19206-4.7623-0.51721-6.1733-2.2863-2.0514-2.5722-1.4492-5.7083-1.2424-8.5744 2.0476-12.171 8.0525-23.455 14.299-34.488 4.6864-8.0976 9.2293-16.338 15.588-23.654 2.6076-2.7303 5.621-5.3186 9.1078-7.2956 0 0-20.834 6.9088-20.834 6.9088-2.7555 2.1915-5.3415 4.4944-7.2354 7.2724-4.818 7.123-7.6092 15.015-11.649 22.441-10.373 19.84 4.4827-8.5259-6.5973 12.463-1.1337 2.1476-2.3327 4.2738-3.3602 6.4576-2.587 5.4984-4.4593 11.225-6.4639 16.878-0.68009 2.9434-1.5571 5.1743-1.0289 8.1574 0.4779 2.6987 2.5383 4.7713 5.8031 5.3576 1.1264 0.20228 2.3011 0.1158 3.4517 0.17383 9.0368-0.38403 18.209-1.2613 27.175 0.17191l17.975-10.783z"/>
    <path d="m205.51 697.49c-7.225 1.001-14.536 1.3744-21.85 1.5762-7.5352 0.13283-15.056-0.37096-22.588-0.3726-3.7002 0.0428-7.3959 0-11.092-0.13193l-17.391 10.432c3.8466-0.11896 7.6922-0.17309 11.542-0.13358 8.0969-0.0223 16.174-0.58257 24.272-0.61378 6.1171 0.0351 12.218 0.29007 18.326 0.51114l18.783-11.267z"/>
    <path d="m142.89 768.45c-6.7975 0.76446-13.681 0.76841-20.523 0.55991-4.6413-0.28965-9.2961-0.18848-13.944-0.25889-4.3981-0.25425-8.7564 0.41945-13.107 0.8483-3.1851 0.38066-1.6474 0.18999-4.6135 0.56937l-17.269 10.765c3.1193-0.55363 1.5282-0.28601 4.7742-0.79984 4.1896-0.45579 8.424-0.63159 12.639-0.8392 4.9357-0.0709 9.8771 0.0196 14.807-0.25888 6.2071-0.17165 12.52-0.35656 18.656 0.55997 0 0 18.581-11.146 18.581-11.146z"/>
    <path d="m81.27 858.77c-6.1638 2.3416-12.48 4.3997-18.869 6.2816-10.161 2.9568-20.708 4.7808-31.221 6.6335-2.7207 0.42638-5.9786 1.1914-8.2174-0.58062-1.5032-1.708-3.7683-1.9686-6.1583-2.1025-3.0303-0.14022-5.9526 0.39412-8.7759 1.2506-1.2435 0.38025-1.1515 0.6919-1.3567-0.4588-0.1565-2.1346-0.29574-4.2702-0.50352-6.4039-0.80575-4.0003-0.75358-8.071-0.9441-12.111l-18.802 8.0414c0.47783 4.0576 0.7575 8.1648 0.3187 12.233-0.2384 2.3578-0.53915 4.722-0.35128 7.0907 0.32644 1.771 1.4142 3.3723 3.887 3.107 2.7367-0.90976 5.3574-2.0692 8.4192-1.9581 1.8167-0.0211 3.5835 0 4.8405 1.2182 3.4875 2.6436 7.3681 1.8706 11.586 0.82774 10.728-2.6236 21.584-4.8292 32.379-7.2497 0.41755-0.098 7.5307-1.7449 8.5013-2.005 2.4182-0.64772 4.7412-1.5447 7.2225-2.0392l18.044-11.774z"/>
    <path d="m-25.698 885.76c36.505-16.735 19.003-9.043 10.433-5.557-3.2643 1.2051-6.5064 2.4018-9.9279 3.2674-5.5773 1.3242-11.251 2.2746-16.999 2.9058l-16.567 10.257c5.4778-0.76743 10.952-1.5484 16.425-2.3403 0.40179-0.0618 3.2891-0.49815 3.85-0.62555 2.1598-0.49076 3.9776-1.689 6.1276-2.2197 4.3844-1.6724-0.65071 0.28149 3.6643-1.497 8.8079-3.6301 15.662-3.0218 24.568-11.274 0 0-21.574 7.0836-21.574 7.0836z"/>
    <path d="m239.03 606.45c-7.266 1.7037-14.354 3.9335-21.409 6.1578-1.2202 0.3859-2.4404 0.77185-3.6606 1.1577l-15.725 10.214c1.3198-0.45814 2.6396-0.91622 3.9594-1.3743 5.952-1.9545 12.042-3.8834 18.385-4.7541l18.45-11.401z"/>
    <path d="m398.94 404.17c-4.4363 0.82943-8.8399 1.7621-13.248 2.6867-2.2876 0.47626-4.6066 0.83463-6.9236 1.196l-17.25 10.77c2.3757-0.39021 4.7367-0.83482 7.1208-1.1895 3.9063-0.82769 7.801-1.8661 11.851-2.0629l18.449-11.401z"/>
    <path d="m474.93 330.13c-11.188 2.6668-22.598 4.6272-34.032 6.4162-1.5216 0.24318-3.0433 0.48639-4.5648 0.72961 0 0-15.265 9.6112-15.265 9.6112 1.7385-0.39251 3.4769-0.78501 5.2154-1.1775 9.1338-1.7991 19.042-3.8622 28.44-4.2464 0.67944-0.0277 1.3604 0.0155 2.0406 0.0223l18.165-11.355z"/>
    <path d="m519.47 258.48c-14.542 3.5524-29.425 6.0199-44.339 8.2297-2.536 0.33627-5.072 0.67251-7.6081 1.0088l-13.056 8.1539c2.8469-0.53207 5.6938-1.0641 8.5407-1.5962 3.1922-0.53842 6.3713-1.1325 9.5766-1.6152 9.3928-1.4146 18.897-2.405 28.436-2.7803l18.449-11.401z"/>
   </g>
   <g>
    <path d="m-366.48 560.9c0 1.499-8.7202-3.5797-8.7202-6.4455 0-5.1142 4.1502-17.425 8.8139-24.621 1.1443-1.7657 3.9369-5.5104 6.2058-8.3218 7.8992-9.7874 13.836-19.546 15.701-26.101 0.39094-1.3744 0.82892-4.0986 0.97323-6.0538 0.30093-4.0774-0.54319-7.9471-2.2735-10.423-2.3371-3.3436-7.6013-5.9452-15.052-7.4386-2.7569-0.55264-5.0484-0.73431-10.39-0.82373-3.7691-0.0632 1.5376 0.99146 0.83258 0.81491-3.0394-0.76128-4.8592-0.43539-11.464 2.0527-12.138 4.5725-17.352 7.1336-19.815 9.7335-2.4884 2.6262-3.0876 4.7039-3.0834 10.692 2e-3 2.917 0.22107 6.5744 0.48694 8.1275 0.45818 2.6772 1.9177 8.2984 2.5134 9.6803 0.25188 0.58421-3.3256-1.9123-4.0593-2.35-2.7077-1.6148-6.0491-6.9392-8.2584-13.16-1.2507-3.5213-1.3009-3.9216-1.0887-8.6677 0.4655-10.41 4.1006-21.823 10.411-28.576 1.9301-2.0655 2.3156-2.2313 6.7596-2.9088 5.8491-0.8918 11.509-1.2815 18.79-1.294 8.2463-0.0136 12.499 0.39872 18.569 1.8021 7.8401 1.8128 13.483 4.2625 19.379 8.4127 7.4997 5.279 12.033 11.895 13.545 19.768 1.0874 5.6625 1.3676 16.442 0.52995 20.387-1.164 5.4818-3.1972 11.649-6.5286 14.584-0.88672 0.78112-5.0259 3.9925-7.2451 4.7369-1.8658 0.62577-7.4905 4.1974-10.165 5.2773-9.6454 3.8941-8.8483 6.1184-10.339 9.8427-0.41226 1.0297-1.2174 2.5485-1.7892 3.3752-1.3696 1.9798-0.90389 5.4679-0.6055 8.7538 0.94759 10.436-2.6342 7.0294-2.6342 9.143z" fill="#ba3f4d" opacity=".28125" sodipodi:nodetypes="sssssssssssssssssssscssssssssssss"/>
    <path d="m-183.13 625.41c-83.859-13.756-152.49-8.0857-215.47 1.396l-10.214 369.15c160.87-19.848 321.23-18.389 496.7 44.571l10.307-372.51c-62.35-22.083-129.87-38.649-214.41-37.052z" fill="#6b242c" stroke="#000" stroke-linejoin="round" stroke-width="4.9766"/>
    <path d="m-167.45 616.86c-65.135-40.684-145.96-9.8521-215.27 12.889 9.4504 121.49-25.355 225.65-37.812 344.41 71.76-17.13 163.92-42.268 225.96-5.4852 21.643-3.3084 25.08-14.498 54.173 5.7542 57.004-28.155 137.38 10.316 203.25 39.306 34.186-116.24-5.9819-234.73 46.54-350.03-45-36.411-126.53-63.471-212.47-45.105-33.73 10.696-26.607 18.78-64.375-1.746z" fill="#fff094" stroke="#000" stroke-linejoin="round" stroke-width="4.9171"/>
   </g>
   <path d="m-238.14 1124.9c-17.929-35.295-49.996-111.97 16.854-168.9" fill="none" stroke="#000" stroke-linecap="round" stroke-linejoin="round" stroke-width="4.7183"/>
   <path d="m-58.895 1125c-29.119-29.791-85.274-95.402-33.378-155.82" fill="none" stroke="#000" stroke-linecap="round" stroke-linejoin="round" stroke-width="4.7183"/>
   <g>
    <path d="m-142.49 975.33c-19.443 24.701-46.968 15.204-53.109-9.7612-5.3204-12.187 61.415 0.83181 53.109 9.7612z" fill="#ba3f4d" stroke="#000" stroke-linecap="round" stroke-linejoin="round" stroke-width="4.4858"/>
    <path transform="matrix(1.8261 0 0 1.5077 -854.86 -728.73)" d="m394.06 910.49c-0.37257 3.3773-0.86487 6.7056-1.3828 10.028-1.1345 6.8441-2.2675 13.682-3.2852 20.584-0.78161 5.5602-1.8059 11.017-2.4956 16.617-0.13526 1.0983-0.24413 2.2039-0.36618 3.3059-0.79758 7.8494-1.5395 15.709-2.316 23.563-0.1238 1.2598-0.5755 5.7959-0.684 7.1181-0.0993 1.207-0.17027 2.4161-0.25698 3.624-0.28181 3.9309-0.57665 7.8585-0.88946 11.787-0.62369 7.379-1.2707 14.751-1.834 22.136-0.10423 1.2684-0.21315 2.5364-0.31259 3.8053-0.34033 4.3631-0.2673 3.9684-0.65947 8.4523-0.39717 4.541-0.44704 4.5524-0.85953 9.1014-0.14287 1.5758-0.27074 3.1535-0.4061 4.7302-0.73055 8.6458-1.5986 17.27-2.4356 25.9-0.56168 5.4948-1.0385 11.002-1.5369 16.506-0.3074 3.8018-0.74044 7.5889-1.0226 11.392-0.25117 2.8008-0.48327 5.6063-0.76582 8.402-0.17082 1.7796-0.33925 3.5598-0.48994 5.3422-0.12861 1.2502-0.23694 2.4998-0.32608 3.7545-0.0574 1.1834-0.30982 2.2907-0.51184 3.4216-0.0299 0.1803-0.0601 0.3609-0.09 0.5415l4.8256-4.4642c0.0258-0.1675 0.0519-0.335 0.0778-0.5025 0.19784-1.1933 0.4249-2.3666 0.46552-3.6079 0.10908-1.2328 0.20061-2.4641 0.26899-3.6993 0.13073-1.7359 0.24305-3.4726 0.35219-5.209 0.15746-2.7341 0.36933-5.4687 0.55908-8.2024 0.31627-3.7123 0.48293-7.4349 0.77258-11.15 0.36589-5.3511 0.75331-10.701 1.0733-16.054 0.56173-8.4821 1.1253-16.97 1.9681-25.428 1.4014-13.967-0.40326 4.0798 0.92225-9.3655 0.5629-5.7103 1.2278-11.4 1.7163-17.124 0.11771-1.2519 0.24293-2.5028 0.35294-3.7559 0.53437-6.0888 0.86049-12.194 1.3716-18.285 0.31897-3.9721 0.65373-7.9394 1.0176-11.906 0.11332-1.2363 0.24274-2.4703 0.34788-3.7077 0.19703-2.3164 0.3265-4.639 0.52586-6.9551 0.6453-7.9368 1.4116-15.866 2.5164-23.699 0.23104-1.8251 0.58265-4.6387 0.83298-6.476 0.6071-4.4556 1.3153-8.8694 1.9521-13.313 1.0734-6.9378 2.0819-13.926 3.4611-20.692 0.75865-3.7431 1.5101-7.5162 2.4894-11.065l-4.9432 4.5498z" fill="#faed9b" filter="url(#filter1806)"/>
    <path d="m-141.29 970.46c-12.33 25.018-42.447 28.936-52.903-4.5471 5.0634-8.9667 37.539-4.6626 52.903 4.5471z" fill="#ba3f4d" stroke="#000" stroke-linecap="round" stroke-linejoin="round" stroke-width="4.4858"/>
    <ellipse cx="-258.49" cy="728.55" rx="46.781" ry="38.022"/>
    <ellipse cx="-54.171" cy="742.81" rx="46.781" ry="38.022"/>
   </g>
   <g fill="#f00">
    <path d="m-386.95 505.34c-0.28137-0.23243-0.58427-0.45026-0.84414-0.69758-0.84585-0.80475-1.629-1.7689-2.2979-2.6552-1.3057-1.7301-2.1115-2.8711-3.0264-4.7899-0.50257-1.0539-0.87631-2.1426-1.3144-3.2141-0.26516-1.203-0.6807-2.3915-0.79546-3.6088-0.37596-3.9881 0.72438-7.9406 3.0104-11.512 1.5576-2.4332 2.7654-3.3586 4.9179-5.4004-2.9276 0.75533 6.9354-4.0138 5.0155-3.2286-2.1548 0.88132-4.305 1.7982-6.261 2.9268-0.60957 0.35167 1.4151-0.44413 2.1588-0.56 2.4702-0.38461 3.2365-0.0498 5.8652 0.307 1.2736 0.40482 2.5976 0.72396 3.8207 1.2144 5.2628 2.1101 10.267 5.9472 13.66 9.6916 0.85022 0.93788 1.5599 1.9488 2.3398 2.9234 0.60782 0.97132 1.28 1.9198 1.8235 2.9141 1.5231 2.7864 2.7046 6.0377 2.9714 9.069 0.25736 2.9232-0.12637 3.9734-0.63897 6.8745-0.89021 3.4247-2.446 6.7019-4.473 9.8138-2.1894 3.3613-4.8861 6.5036-7.5441 9.6438-3.2979 3.6707-6.2896 7.5016-8.5157 11.642-1.3083 2.4335-1.5049 3.1136-2.4988 5.5808-1.1027 3.2617-2.2047 6.569-2.4818 9.9481 0.0475 1.3198 0.43093 2.6092 0.83674 3.8849 0.29145 1.2392 0.94187 2.3974 1.4706 3.5805 0.36939 0.65904 0.62754 1.4161 1.2291 1.9816 0.38042 0.35787 0.6161 0.44101 1.1053 0.69707 1.1936 0.46433 2.4199 0.87998 3.686 1.208 1.6973 0.41446 3.2688 0.71578 5.0549 0.76856 1.1988-0.0617 2.4358-0.23413 3.4941-0.70924 5.5227-2.4791 8.4565-3.1123 11.872-6.0003 0.70957-0.62235 1.1721-1.3217 1.4303-2.1209l-10.135 3.7178c-0.33645 0.62146-0.76772 1.1904-1.3826 1.6749-2.841 2.16-7.2195 3.5272 6.6526-2.5322 0.34825-0.15262-0.67507 0.33476-1.0338 0.471-0.33492 0.12695-0.68404 0.23398-1.0409 0.31744-0.32546 0.0755-0.66571 0.10614-0.99856 0.15951-0.3059 0.0178-0.61154 0.0463-0.91773 0.0376-1.291-0.0342-2.5662-0.36902-3.767-0.70618-1.2242-0.23598-2.3813-0.62766-3.5298-1.0287-1.2389-0.46518-1.5301-1.1722-2.0386-2.1243-0.57076-1.1386-1.0514-2.2983-1.4086-3.4897-0.35352-1.1998-0.67648-2.409-0.89443-3.6285-0.23539-3.1027 0.36574-6.2129 1.2572-9.23 0.85888-2.3596 1.025-3.0622 2.2524-5.383 2.1481-4.0616 5.157-7.7849 8.2502-11.44 2.575-3.1806 5.1741-6.3604 7.415-9.6955 0.76609-1.1401 1.5461-2.2791 2.1738-3.4696 1.2357-2.3437 1.6072-4.1173 2.3214-6.5818 0.43421-2.5139 0.94693-4.5967 0.7778-7.1499-0.0714-1.0781-0.3316-2.1461-0.61127-3.2033-0.84133-3.1805-2.3996-6.1808-4.5657-8.9515-0.83294-0.97802-1.6024-1.9908-2.4988-2.9342-1.7944-1.8885-4.1953-3.9494-6.3513-5.5827-2.4484-1.8545-4.3293-3.1122-7.2092-4.5248-1.1431-0.56063-2.3721-1.0071-3.5582-1.5107-1.0431-0.29824-2.0423-0.71508-3.1291-0.89469-1.2652-0.20893-3.719-0.0532-4.8989 0.42606-3.2023 1.2992-9.2971 3.6129-12.717 6.1591-0.78504 0.58448-1.4834 1.2358-2.225 1.8538-1.9918 2.1521-2.8775 2.8744-4.2634 5.3996-2.0155 3.6722-3.0696 7.8441-2.882 11.84 0.0595 1.2624 0.43166 2.5038 0.64751 3.7555 0.32535 1.1494 0.5731 2.3139 0.97601 3.4484 0.33451 0.94201 0.81245 1.8496 1.2325 2.7705 0.9794 2.1473 2.0701 4.2493 3.3655 6.2931l9.6646-4.438z" opacity=".75962"/>
    <path d="m-346.05 588.57c-2.262 0.0547-4.5404-0.66177-6.4317-1.5875-0.65679-0.32136-1.2477-0.718-1.8716-1.0771-0.55171-0.43997-1.1539-0.84449-1.6551-1.32-1.929-1.8293-3.3285-4.3031-3.1677-6.7106 0.0343-0.51266 0.23473-1.0104 0.35212-1.5157 0.40845-0.7653 0.86594-1.8922 1.7228-2.4755 0.48811-0.33218 2.2493-1.0013 1.7086-0.7228-2.1607 1.1126-4.6026 1.918-6.5732 3.2275-0.65221 0.43345 1.6429-0.39115 2.486-0.5113 0.85372-0.12167 1.7263-0.14037 2.5894-0.21166 3.087 0.0177 6.1542 0.53372 8.6024 2.0832 1.6101 1.0188 1.8591 1.4915 3.0521 2.8108 1.7218 2.3723 3.4492 5.5533 1.3835 8.1625-0.29265 0.36973-0.74196 0.64842-1.113 0.97271-4.9128 2.4606 4.175-1.7592 6.0949-2.8379 0.49994-0.28074-1.1835 0.27596-1.7906 0.35841-1.7534 0.23789-3.5267 0.14399-5.2866 0.0463-1.4285-0.10976-2.4329-0.35719-3.6921-0.8472l-9.0487 4.6466c0.38837 0.1473 0.75948 0.32752 1.165 0.44426 1.027 0.29583 1.9638 0.36713 3.0412 0.50168 1.8904 0.15435 3.6033 0.20688 5.5071 0.0978 0.62277-0.036 1.3013 0.0529 1.8617-0.16278 9.4255-3.6132 7.8632-2.6097 11.791-5.5017 0.29859-0.39439 0.6808-0.75708 0.8958-1.1834 1.0516-2.0846 0.14079-5.0042-0.96786-6.9603-0.33463-0.5903-0.80694-1.1271-1.2104-1.6907-1.1106-1.3102-1.597-2.0765-3.12-3.1243-2.5412-1.7479-5.8819-2.2957-9.1672-2.4208-1.1033 0.0427-4.0453 0.0617-5.123 0.45798-3.7452 1.3739-7.3578 2.9623-10.947 4.57-2.0786 0.93123-2.5256 2.1418-3.098 3.8282-0.0477 0.54624-0.17531 1.0918-0.14372 1.6389 0.1419 2.4659 1.6655 5.1889 3.6067 7.107 0.51688 0.51076 1.1306 0.95707 1.6958 1.4358 2.0782 1.3486 1.4905 1.0328 3.6295 2.1769 0.4773 0.25523 0.93948 0.53135 1.4466 0.74886 0.80889 0.34707 1.7654 0.48316 2.6269 0.72604l9.1484-5.1817z" opacity=".75962"/>
    <path d="m-387.09 515.25c-3.4241-0.17172-6.6873-1.0826-9.8021-2.1483-2.5432-0.91372-5.0909-1.9483-7.1201-3.4859-1.6243-1.231-2.0129-1.8172-3.353-3.297-2.6359-3.6796-4.3653-7.726-5.5695-11.824-0.84994-2.8929-1.0942-4.5431-1.6523-7.4577-0.70635-4.2502-1.0326-8.5429-0.6882-12.825 0.1764-2.1913 0.35553-2.9307 0.73066-5.0566 0.63232-2.5324 1.5222-5.1036 3.4063-7.2688 1.1426-1.3131 1.8696-1.7162 3.3608-2.8015 0.73656-0.41189 3.0199-1.5524 2.2096-1.2356-1.917 0.74918-3.8292 1.5393-5.547 2.54-0.95746 0.55772 2.1398-0.83352 3.2406-1.1964 2.3708-0.7819 5.0325-1.4708 7.5185-1.9788 1.3765-0.28128 2.7755-0.49088 4.1633-0.73632 6.9756-1.0077 14.044-1.3947 21.128-1.1683 3.2706 0.21597 6.5496 0.47116 9.7539 1.0488 1.6069 0.28966 2.9082 0.62629 4.4815 1.0042 2.8916 0.75347 5.7032 1.6835 8.325 2.9032 1.2389 0.57623 2.5877 1.3163 3.7772 1.9503 2.6779 1.3985 5.0184 3.122 7.1658 4.9862 0.6592 0.57232 1.3347 1.1352 1.9438 1.7402 0.6223 0.61822 1.1636 1.2836 1.7454 1.9253 2.2905 2.7369 4.111 5.6683 5.4021 8.7722 1.3918 3.1424 1.7389 6.4568 2.1876 9.737 0.28621 2.6454 0.34765 5.3022 0.37383 7.9556 0.26547 2.8858 0.12838 5.7804-0.30334 8.651-0.55223 3.3001-1.7992 6.4674-3.3316 9.5613-1.0593 2.1795-2.5453 4.1946-4.3457 6.0475-0.31892 0.26395-0.61605 0.54486-0.95678 0.79167-0.34722 0.25145-0.73535 0.46621-1.1028 0.69965-1.7228 1.0947-3.4905 2.1125-5.307 3.1109-2.5778 1.2925-5.1623 2.5604-7.6342 3.9751-2.234 1.1691-4.2134 2.5876-6.2043 3.9903-1.0905 0.86624-2.2738 1.6667-3.2508 2.6171-0.95188 0.92591-1.667 1.9474-2.3624 2.9962-1.3182 2.2703-1.5192 4.7896-1.7594 7.2418-0.20445 1.6777 0.0225 3.3613 0.82456 4.9279 0.37358 0.74986 1.0486 1.3751 1.664 2.0117 0.51174 0.48828 1.0208 0.97713 1.55 1.4545 0.50968 0.38495 0.91313 0.83968 1.3467 1.275 0.41903 0.45113 0.64184 0.97782 0.98012 1.4636 0.29916 0.45475 0.49751 0.94527 0.7075 1.4286l9.9026-4.2639c-0.23665-0.52054-0.45276-1.0497-0.78885-1.538-0.33982-0.54453-0.58612-1.1257-1.05-1.6201-0.44478-0.44459-0.84785-0.92332-1.3947-1.2966-0.51262-0.47868-1.0535-0.93412-1.549-1.4241-0.6036-0.55242-1.218-1.1136-1.6478-1.762-0.91056-1.4051-1.2017-2.8005-1.0187-4.3801 0.16308-2.3786 0.47672-4.7681 1.9404-6.9088 0.66501-0.89691 0.77837-1.1077 1.5673-1.9409 1.2041-1.2716 2.6922-2.3521 4.1889-3.4093 2.0494-1.3923 4.1245-2.759 6.3716-3.9569 2.3827-1.3465 4.8831-2.5509 7.3003-3.8586 2.6695-1.4728 5.453-2.9244 7.5094-4.9375 1.7034-1.8824 3.0472-3.9134 3.8631-6.1392 1.319-3.1894 2.7325-6.3956 3.2548-9.7356 0.21613-1.5267 0.40051-3.0543 0.45437-4.5908 0.0188-0.56974-0.0128-2.2716 1e-3 -2.8471 0.0128-0.47356 0.0416-0.9468 0.0623-1.4202-0.11359-2.6324-0.35975-5.2556-0.76702-7.8715-0.42122-3.3575-1.1356-6.6804-2.0746-9.9742-0.48594-1.2046-0.49715-1.4111-1.2282-2.5281-1.4156-2.163-3.3962-4.0759-5.0375-6.1302-0.79143-0.90654-2.5942-3.0089-3.4823-3.8798-2.0349-1.9956-4.5255-3.7055-7.1543-5.2059-1.1608-0.62166-2.6369-1.4296-3.838-2.0023-2.66-1.2682-5.5114-2.2585-8.4643-3.033-4.7408-1.1462-9.6398-2.0122-14.621-2.0981-0.96144-0.0178-1.9228-0.0549-2.8844-0.0446-6.3835 0.065-12.774 0.81004-19.085 1.48-1.3654 0.21168-2.7407 0.38772-4.0961 0.6352-8.6905 1.5872-16.837 4.8062-23.817 9.1493-1.5462 1.2173-2.2427 1.6247-3.4007 3.0819-1.7627 2.218-2.4343 4.8297-2.8256 7.3792-0.0756 0.78673-0.17914 1.5719-0.22675 2.36-0.3094 5.1233 0.0541 10.271 1.2244 15.32 1.0389 4.552 0.60146 2.8123 1.8246 7.438 0.12071 0.45681 1.8115 6.8289 2.0236 7.4346 0.72089 2.058 1.4792 3.1775 2.5855 5.0873 1.1302 1.5006 1.6485 2.3746 3.1186 3.6552 1.9538 1.702 4.6026 2.7534 7.199 3.7266 2.974 1.1045 6.0344 2.053 9.2122 2.7424l9.1519-5.0191z" opacity=".75962"/>
    <path d="m-389.43 515.97c-1.6439-1.9456-2.8753-4.0792-3.9711-6.2396-1.3052-2.8224-2.403-5.7136-3.1629-8.6572-0.41413-1.6041-0.62058-2.9844-0.90102-4.601-0.44061-3.6585-0.92485-7.3508-0.70022-11.031 0.044-0.71919 0.15194-1.4351 0.22765-2.1528 0.43707-2.7518 1.4962-5.141 3.9322-7.2164 1.7385-1.4811 2.3868-1.6806 4.5302-2.8226-1.8062 0.83918-3.7645 1.5056-5.4186 2.5175-0.84569 0.51745 1.9467-0.71593 2.9536-1.0096 3.3143-0.96599 6.8344-1.4761 10.34-1.7784 1.2454-0.10811 2.4981-0.1559 3.7471-0.23313 4.689-0.15948 9.3955 0 13.928 1.0224 2.927 0.66162 3.1978 0.87879 5.8429 1.908 2.9821 1.3712 5.2611 3.3172 6.6395 5.8003 0.87177 1.5705 0.9827 2.3087 1.48 3.9893 0.13824 0.7891 0.33267 1.5734 0.41428 2.3674 0.40138 3.9029-0.21677 7.9577-1.5216 11.728-0.39138 1.1309-0.91235 2.2321-1.3685 3.3481-1.8797 4.0409-4.2603 7.9289-6.9614 11.673-0.46906 0.65012-2.6771 3.5473-3.2244 4.2673-2.5012 3.3851-5.3146 6.6266-7.6606 10.079-2.7163 4.3432-4.6038 8.9589-6.3942 13.573-1.0068 3.5255-2.3095 7.0071-2.9493 10.591-0.29954 1.6784-0.29552 2.19-0.41077 3.8205 0.0656 1.5896-0.10373 3.5423 1.0014 4.976 0.12874 0.16641 0.30542 0.30886 0.45814 0.46329 1.235 0.91389 2.8119 1.5196 4.2955 2.1555 2.4266 0.79717 4.7124 1.8329 7.1362 2.6322 4.2786 0.97215 1.3314 0.42298 10.81-4.2151 0.25159-0.12333 0.0767-0.45934 0.10135-0.69004 0.0971-0.91597 0.0577-1.8367 0.042-2.7541-0.11541-3.1298-0.2053-6.26-0.3059-9.3903-0.15759-4.003-0.38276-8.0388 0.50884-12.006 0.19653-0.87483 0.4954-1.7337 0.7431-2.6005 0.50876-1.2601 1.2537-3.3908 2.1602-4.5609 1.0418-1.3444 2.7215-2.5163 4.3484-3.403 0.90051-0.4909 3.7593-1.7742 2.8379-1.3074-1.6669 0.84431-3.3838 1.6272-5.0757 2.4409 4.553-1.7822 9.618-2.8543 13.992-4.9169 3.548-1.6728 7.0504-3.404 10.576-5.106 0.63557-0.50768 1.3764-0.94663 1.9067-1.523 0.99901-1.0863 3.22-4.7048 3.8219-5.7494 1.2933-2.245 2.6478-4.9172 3.596-7.263 0.50767-1.2559 0.90004-2.5382 1.3501-3.8075 1.9262-6.5712 2.7109-13.381 1.757-20.1-0.19051-1.3419-0.52535-2.669-0.78802-4.0035-2.2844-6.0101-5.7281-11.72-10.762-16.638-3.2051-3.1313-4.2565-3.6527-8.0336-6.3028-5.455-3.3886-11.688-5.9666-18.536-7.1394-4.4599-0.76392-6.2519-0.67242-10.846-0.84038-1.9139 0.0514-3.8321 0.0413-5.7417 0.15263-3.6781 0.21561-7.6739 0.70875-11.274 1.3347-3.1402 0.54608-6.9478 1.3688-9.9423 2.3475-1.4223 0.46486-2.7632 1.0687-4.1447 1.6031-3.703 1.8372-7.5677 3.49-11.109 5.5117-1.2642 0.72176-2.2276 1.7246-3.2214 2.669-2.105 2.0004-3.8995 4.3071-5.389 6.6107-0.80652 1.2473-1.605 2.5053-2.2048 3.8215-0.68095 1.4944-1.0841 3.0569-1.6261 4.5854-1.5033 5.1644-2.3506 10.429-2.8547 15.706-0.33086 3.4622-0.47513 5.94-0.2597 9.3813 0.0835 1.3354 0.29947 2.6637 0.44918 3.9957 0.66461 3.0521 1.4997 6.1247 3.0899 8.9792 0.36592 0.65682 0.74912 1.3164 1.2667 1.908 1.0055 1.1492 2.1508 1.795 3.478 2.6711 1.9481 1.1096 4.0868 2.0856 6.5027 2.3622 0.69708 0.0428 1.3702-0.0823 2.0448-0.19572l8.8386-5.3142c-0.60931 0.18067-1.2249 0.31555-1.86 0.43228-2.4479 0.17589-4.8125-0.62768-6.9188-1.5165-1.6391-0.88954-2.197-1.0716-3.5225-2.3099-3.0459-2.8452-4.3582-6.5529-5.4456-10.073-0.24963-1.2721-0.57394-2.5367-0.74892-3.8165-0.42538-3.1114-0.46875-5.9525-0.27359-9.0854 0.2084-3.347 0.72383-7.1939 1.5518-10.479 0.44184-1.7529 1.0866-3.471 1.63-5.2064 0.71322-1.5609 1.329-3.151 2.1396-4.6826 1.9676-3.7173 4.6965-7.3359 8.104-10.365 1.0323-0.91784 3.6734-1.3962 3.3254-2.5864-0.29918-1.0231-2.4849 0.80764-3.7274 1.2114 1.4158-0.59045 2.7858-1.2532 4.2475-1.7714 3.2046-1.1362 6.7408-1.9685 10.153-2.6042 3.5126-0.65423 7.6077-1.1965 11.209-1.4206 1.8686-0.11654 3.747-0.10116 5.6205-0.1509 4.4457 0.19418 6.1758 0.13207 10.503 0.85168 6.7968 1.1309 13.1 3.476 18.616 6.7536 3.7303 2.5131 4.9318 3.1136 8.1102 6.1064 3.8237 3.6004 6.8424 7.69 8.7178 12.138 0.60867 1.4437 0.96095 2.9456 1.4414 4.4185 0.26718 1.3114 0.61194 2.6145 0.80162 3.9339 0.96014 6.6786-0.0482 13.428-1.9919 19.942-0.45981 1.255-0.85952 2.5244-1.3795 3.765-1.9512 4.6557-4.678 9.4629-8.8836 13.162-0.61196 0.5382-1.3566 0.97491-2.0349 1.4626 2.1433-0.88375 4.2598-1.8078 6.4297-2.6509 0.79337-0.3082-1.5154 0.71867-2.2968 1.045-3.8838 1.6216-8.0537 2.7667-12.076 4.1513-3.7212 1.6137-7.4723 3.1863-11.164 4.8415-2.8434 1.2749-5.5816 2.9121-7.1561 5.2212-0.68744 1.0082-1.4732 3.5427-1.8322 4.5805-0.50666 2.0229-0.88712 3.3306-1.1846 5.3929-0.45763 3.1729-0.38437 6.379-0.51448 9.5646-0.0709 3.1976-0.071 6.3985-0.304 9.5922-0.0836 0.7113-0.0915 1.9731-0.62354 2.607-0.10299 0.12333-0.6189 0.33114-0.45261 0.26255 9.8751-4.0659 12.821-4.5371 8.8-3.8359-2.5673-0.33441-4.8905-1.3755-7.1189-2.377-1.3068-0.66126-2.624-1.3169-3.8698-2.0458-1.5502-1.1532-1.7027-2.9756-1.9138-4.5424-0.0188-0.54626-0.0679-1.0924-0.0581-1.6387 0.0732-4.1638 1.2619-8.2878 2.7349-12.268 1.945-4.7018 4.1778-9.3363 7.1823-13.698 2.3388-3.3688 5.0911-6.5509 7.3551-9.9541 3.4905-5.0888 6.7996-10.267 9.1862-15.744 0.95431-2.2918 1.9607-4.4841 2.5777-6.8524 0.26249-1.0076 0.38195-2.0348 0.53758-3.0559 0.41937-2.7501 0.6432-5.4946 0.0975-8.2488-0.43456-1.6735-0.57879-2.6764-1.4316-4.2493-1.4522-2.6788-4.0479-4.6821-7.2938-6.0591-0.97131-0.35445-1.9168-0.75535-2.914-1.063-3.0871-0.9528-7.0891-1.7356-10.389-1.997-2.2013-0.17413-4.8694-0.0599-7.0656-0.0178-4.725 0.21886-9.4932 0.48815-14.018 1.6687-5.0505 1.3177-9.4854 3.841-14.025 5.8752-2.1425 1.2377-2.918 1.5296-4.6264 3.1135-2.451 2.2724-3.3753 4.6869-3.6562 7.5981-0.30955 4.4377-0.15577 8.8922 0.65209 13.298 0.95219 4.5601 2.1612 9.09 3.8354 13.525 0.93656 2.2964 1.9796 4.5633 3.0026 6.8366l9.8188-4.4149z" opacity=".75962"/>
    <path d="m-353.27 586.18c-1.8279-0.3102-3.6881-0.93517-4.8304-2.1482-0.26006-0.27629-0.44382-0.59147-0.66572-0.88712-0.31475-0.83576-0.69941-1.5713-0.54947-2.4783 0.36158-2.1872 2.4279-3.9986 4.4517-5.4015 0.78569-0.54452 1.6747-0.99134 2.512-1.4869-1.8956 0.89916-3.9819 1.5904-5.6866 2.6978-0.64739 0.42062 1.5885-0.45969 2.4182-0.57473 2.4763-0.3433 4.9286 0.13026 7.0378 1.1673 0.75724 0.37226 1.4074 0.86299 2.111 1.2944 0.59564 0.52743 1.2651 1.0094 1.7869 1.5824 2.0342 2.2336 3.5449 5.6356 1.7886 8.2732-0.38685 0.58103-1.0632 1.0137-1.5948 1.5205-0.91297 0.3596-3.4326 1.6646-2.739 1.0786 1.268-1.0713 4.033-1.1794 4.5232-2.5859 0.34673-0.99465-2.5575 0.54057-3.8644 0.69604-2.4025 0.2859-4.8953 0.32463-7.2724-0.14398-1.1011-0.21683-2.116-0.64392-3.1739-0.96583-0.88641-0.50443-1.7729-1.0089-2.6592-1.5131l-7.9814 3.9441c0.94852 0.54659 1.8971 1.0932 2.8456 1.6398 1.1231 0.35924 2.1977 0.82973 3.3694 1.0774 2.523 0.5334 5.0344 0.50545 7.6037 0.26157 1.2963-0.12333 2.6434-0.18115 3.8474-0.57522 8.5254-2.7898 9.1559-3.2357 14.627-6.0024 0.47411-0.59974 1.1051-1.1393 1.4223-1.7988 1.2611-2.6221-0.44719-6.6523-2.315-8.8692-0.52343-0.62115-1.2419-1.1281-1.8629-1.6922-0.71577-0.4876-1.3753-1.0306-2.1474-1.4628-1.4737-0.8255-3.0502-1.4118-4.8606-1.6172-6.0039-0.68081-11.687 3.3904-16.148 5.3591-0.80312 0.52501-1.658 1.0054-2.4094 1.575-2.2184 1.6816-4.3408 3.7891-4.8609 6.2405-0.22312 1.0517 0.19633 1.9258 0.52421 2.9086 0.2412 0.35702 0.43607 0.73546 0.7235 1.0709 1.1168 1.3035 2.9748 2.0282 4.6824 2.7595l9.3461-4.9435z" opacity=".75962"/>
   </g>
   <path d="m-123.94 704.29c6.6086-3.8625 14.82-6.0053 22.798-7.4185 3.2564-0.5768 6.5685-0.94174 9.8528-1.4126 3.7839-0.33677 7.5467-0.88259 11.352-1.0103 0.28585-0.0105-0.54364 0.61402-0.25922 0.63792 6.0584 0.51088 12.179 0.43432 18.246 0.87872 11.201 0.82045 22.54 2.238 33.541 4.085 4.847 0.81379 9.6292 1.847 14.444 2.7706 14.255 3.126 28.065 7.4819 40.733 13.491 2.0373 0.96651 3.975 2.0554 5.9626 3.083l19.989-2.4141v0c-6.2221-2.683-9.0547-4-15.726-6.4342-11.491-4.1929-23.435-7.5401-35.751-9.9419-5.0929-0.90308-10.158-1.9066-15.279-2.7093-11.182-1.7529-22.92-3.1406-34.252-4.0973-5.7011-0.48122-11.408-1.0579-17.141-1.1338-25.787-0.3416-25.359-0.09-44.194 1.5257-3.6291 0.48907-7.2822 0.88004-10.887 1.4671-9.626 1.5676-18.919 4.0908-27.658 7.6008l24.228 1.032z" fill="#ba3f4d" stroke="#6b242c" stroke-linecap="round" stroke-linejoin="round" stroke-width="3.8824"/>
   <path d="m78.648 858.45c178.83 88.667 65.854 188.55-48.678 97.95" fill="none" stroke="#000" stroke-linecap="round" stroke-linejoin="round" stroke-width="4.7183" sodipodi:nodetypes="cc"/>
   <g transform="matrix(2.1301 .42442 -.54442 1.6606 -525.16 -1294.7)">
    <path d="m425.23 1202.1c-3.4371-2.1072-7.1811-4.5039-10.738-6.7025-0.0351-0.036-8.7594-20.008-8.759-20.057 0-0.07 4.6212-2.1435 4.6643-2.0988 0.0206 0.021 1.8343 4.4117 4.0308 9.7567 1.058 1.5889 3.2282 8.755 5.0025 8.9078 0.36394 0.028 0.69855 0.2385 13.088-3.6452 7.3859-2.3151 14.178-3.2591 14.196-3.2409 0.054 0.056 0.50006 5.9174 0.45378 5.9622-0.0239 0.023-4.0088 2.0344-9.917 3.4896-3.7144-0.6114-12.326 3.4569-11.6 2.7862 6.7405-1.2519 12.612-0.5998 19.294-3.5344 0.038 0.04-1.0542 6.2081-1.1076 6.2651-6.1596 0.5346-11.06 0.7477-17.616 1.3149-0.35823 0.035-0.40592 1.1539-0.99211 0.7961z" fill="#e5c83f" sodipodi:nodetypes="ccccccssscccccc"/>
    <path d="m370.78 1249.8c-38.169-12.913-13.837-36.753 43.527-54.016l-8.6592-20.243 5.2786-3.0068 8.3522 19.578 27.662-8.3522 0.66817 8.2854-21.916 5.2117 19.644-3.9422-1.2695 7.4167-18.976 1.3364-10.785-6.2834" fill="none" stroke="#000" stroke-linecap="round" stroke-linejoin="round" stroke-width="2.4306"/>
    <path d="m419.48 1198.9-5.4185-3.1727-4.3234-10.15-4.3235-10.15 1.5631-0.86c0.85969-0.4731 1.6183-0.7967 1.6859-0.7192 0.0676 0.077 1.9796 4.5072 4.249 9.8439 2.2694 5.3367 4.2756 9.8683 4.4584 10.07 0.18271 0.2019 0.57406 0.3671 0.86965 0.3671 0.29562 0 6.8832-1.9163 14.639-4.2584l14.102-4.2585 0.24298 2.9761c0.13362 1.6368 0.22566 2.9891 0.20447 3.005-0.0212 0.016-4.7771 1.1487-10.569 2.5174-13.038 3.081-12.547 2.9432-12.848 3.604-0.4834 1.0609 0.12164 1.9352 1.3393 1.9352 0.32021 0 4.7198-0.8296 9.7769-1.8435s9.2922-1.819 9.4112-1.7891c0.14376 0.036 0.075 0.8431-0.20465 2.4035l-0.42109 2.3492-7.7697 0.542c-4.2734 0.2981-8.5518 0.5914-9.5077 0.6516l-1.738 0.1096z" fill="#ba3f4d"/>
   </g>
   <path d="m15.77 949.51-43.106-3.6289 0.08309 15.085 44.46-0.7623-36.661 10.582 15.395 11.163 27.059-14.629 1.7841 15.425 12.867-5.4935-6.9316-22.18z" fill="#e5c83f" stroke="#000" stroke-linecap="round" stroke-linejoin="bevel" stroke-width="1.9196"/>
   <g fill="#ba3f4d">
    <path d="m26.403 978.81c-0.03451-0.0769-0.49598-3.0376-1.0262-6.5814l-0.96404-6.4438-0.88271-0.30532-0.88269-0.30561-12.568 6.9111c-6.9124 3.8013-12.631 6.9222-12.708 6.9357-0.1618 0.0287-13.311-8.6415-13.248-8.735 0.02392-0.0332 7.5355-2.3153 16.694-5.0688 9.1584-2.754 16.735-5.0482 16.838-5.0982 0.15358-0.0754-0.78302-0.55862-0.95968-1.203-12.369-0.22238-31.095-0.57399-43.006-0.55966-0.78563-5.162 0.70982-6.9803-0.08418-11.768 14.275 0.91805 27.225 2.6308 41.799 3.514l7.0531 2.3616 7.0531 2.3611 3.5326 9.8561c1.9428 5.421 3.5093 9.8715 3.4809 9.8896-0.07505 0.0498-9.0452 3.9653-9.5967 4.1897-0.36147 0.14474-0.47778 0.16087-0.52622 0.0513z" sodipodi:nodetypes="cscccscsccccccccssccc"/>
    <path d="m-326.35 681.53c0.63786-6.355 3.3025-12.132 6.2857-17.271 4.2277-7.2824 6.0376-9.1232 11.164-15.735 5.6565-5.8619 8.999-9.9216 15.602-14.311 1.0138-0.67413 2.2581-0.5971 3.3609-1.0118 3.7868-1.4239 7.4656-3.2887 11.301-4.5019 9.6282-3.0454 12.345-2.7179 22.082-3.5 3.4422 0.30995 6.9122 0.31075 10.326 0.92953 10.358 1.8779 19.311 6.5991 27.567 14.488 7.4919 7.1588 9.0023 10.367 15.062 19.289 5.8188 9.5686 10.281 20.133 13.707 31.269 0.78058 2.5374 1.3993 5.145 2.099 7.7174l10.202-7.0655v0c-6.2494-12.422-12.544-24.823-19.376-36.782-5.3995-8.3292-7.9257-13.118-14.625-19.958-5.4856-5.601-11.037-9.5625-17.864-12.205-8.0834-3.1283-12.449-2.7523-20.863-3.3139-10.162 0.99232-12.643 0.73159-22.665 3.7722-3.7526 1.1386-7.5307 2.3098-11.09 4.1581-9.3656 4.8632-17.666 10.133-25.681 17.488-2.7062 2.4833-5.1984 5.2983-7.7976 7.9471-2.2135 2.7646-4.4912 5.4542-6.6404 8.2937-5.3146 7.0217-10.357 14.539-14.503 22.677-1.0646 2.0897-1.9179 4.4148-2.7796 6.6443 0 0 15.125-9.0191 15.125-9.0191z" stroke="#6b242c" stroke-linecap="round" stroke-linejoin="round" stroke-width="4.8334"/>
    <path d="m-253.45 841.55c7.3584-2.3734 15.59-2.7033 23.446-2.8764 10.966-0.24199 18.877 0.11459 30.072 0.40226 34.449 1.4703 68.957 5.9079 100.85 16.532 5.0482 1.6814 9.8586 3.7672 14.788 5.6508 9.0505 4.2991 11.861 5.2705 19.661 10.192 2.0127 1.2702 3.8317 2.7162 5.7476 4.0742 0 0 25.047-9.5219 25.047-9.5219v0c-10.569-4.4689-21.312-8.6652-32.642-11.873-5.657-1.6265-11.271-3.3467-16.971-4.8794-31.708-8.5251-64.402-14.733-97.631-18.322-11.15-1.2434-14.654-1.6935-25.216-2.6718-4.6295-0.4297-8.6596-0.80316-13.244-0.91865-1.8425-0.0467-2.6842 0.0226-4.2954 0.11308l-29.616 14.099z" stroke="#6b242c" stroke-linecap="round" stroke-linejoin="round" stroke-width="3.8824"/>
   </g>
   <g fill="#fff">
    <ellipse cx="-263.25" cy="723.45" rx="36.913" ry="29.519"/>
    <ellipse cx="-224.37" cy="742.32" rx="7.3436" ry="5.8726"/>
    <ellipse transform="matrix(.98902 .14779 -.23876 .97108 0 0)" cx="119.74" cy="742.41" rx="36.656" ry="29.855"/>
    <ellipse transform="matrix(.98902 .14779 -.23876 .97108 0 0)" cx="158.36" cy="761.49" rx="7.2924" ry="5.9394"/>
   </g>
   <path d="m662.54 640.16c19.996 54.668-120.61 47.238-120.61 47.238" fill="none" stroke="#000" stroke-linecap="round" stroke-linejoin="round" stroke-width="5.2263"/>
   <g fill="#6b1f2c" fill-opacity=".86046">
    <path d="m573.65 521.65c2.3817 1.1118 4.3794 2.5889 5.9057 4.2696 0.43545 0.47886 0.79826 0.985 1.1972 1.4775 2.0871 2.8611 3.1478 5.8132 2.2324 8.8744-0.1638 0.54768-0.46481 1.0647-0.69724 1.5971-0.405 0.45492-0.73555 0.94796-1.2151 1.3648-1.0318 0.89707-2.4795 1.6669-3.9346 2.2088-0.86419 0.32162-3.6023 1.1006-2.7101 0.81387 7.9606-2.5562 10.236-2.7839 4.3465-1.825-4.4599 0.49899-9.0837 0.27427-13.5-0.83947-2.6724-0.67393-3.1594-0.99168-5.5976-2.0176-3.598-1.8524-6.11-4.3114-7.5209-7.2095-0.90433-1.8585-1.0423-2.9198-1.507-4.8412-0.33951-3.3161 0.0723-6.5335 3.4179-8.9498 2.038-1.472 2.9472-1.4736 5.6893-2.2091-1.9918 0.78467-4.8446 0.97355-5.9752 2.3543-0.65319 0.79766 2.7201-0.10524 4.0884-0.0501 2.2653 0.0912 4.8663 0.4669 7.0516 1.0191 0.94342 0.23838 1.8332 0.58322 2.7498 0.87482l10.001-3.6261c-1.0477-0.28847-2.0736-0.62829-3.143-0.86553-2.4061-0.53392-5.1596-0.88052-7.6272-1.0294-1.3643-0.0822-2.793-0.32286-4.0903-0.0962-4.6962 0.82013-9.1352 2.136-13.703 3.2039-2.8828 0.9573-3.7659 0.96233-5.745 2.667-3.098 2.6687-3.1016 6.0213-2.8202 9.403 0.1607 0.87996 0.24949 1.764 0.48287 2.6396 0.84547 3.1724 2.6957 6.2601 6.0553 8.665 0.78119 0.5592 1.68 1.0328 2.52 1.5491 0.93648 0.41608 1.8332 0.88331 2.8095 1.2484 4.1033 1.5339 8.9394 2.1726 13.424 2.2373 1.1314 0.0164 2.2524-0.0577 3.3786-0.0865 7.5982-0.96102 3.0714-0.24069 16.255-4.086 2.7302-0.79665 5.3429-1.8849 7.013-3.6121 0.45891-0.4746 0.72052-1.0338 1.0808-1.5508 0.17166-0.56853 0.41545-1.1253 0.51518-1.7055 0.3302-1.9201-0.063-3.9508-0.6132-5.8757-0.19129-0.66642-0.34527-1.3421-0.66792-1.9903-0.26545-0.53042-0.7214-1.014-1.0816-1.5214-1.7035-2.2449-3.5111-4.4448-5.7476-6.4776l-12.318 3.9971z"/>
    <path d="m650.24 525.16c1.6783 1.7987 2.6921 3.7383 3.8897 5.627 1.0102 1.5932 1.5925 2.4511 2.6452 4.0349 1.7425 2.4479 3.5205 5.6016 6.6486 7.6488 0.60612 0.39668 1.3195 0.72355 1.9792 1.0853 0.90537 0.34364 1.7816 0.72881 2.7164 1.0307 6.1849 1.9971 13.271 2.6371 19.746 3.2846l15.683-1.2397c-6.9813-0.51047-14.349-1.1645-20.807-3.7276-0.5926-0.29489-1.2153-0.56624-1.7778-0.88429-3.5221-1.9913-5.6726-4.6651-7.539-7.2361-2.1065-3.1087-4.0503-6.3129-4.0698-9.5268l-19.114-0.0968z"/>
    <path d="m544.03 505.25c0.46323 0.12409 0.94749 0.30735 1.3903 0.37298 1.326 0.19614 3.6142 0.12077 4.7165 0.093 3.3021-0.0817 6.5469-0.29391 9.8023-0.48148 4.2523-0.17961 8.5057-0.39506 13.368 0.9872 1.8594 0.6128 3.8538 1.7037 5.6261 2.0237 0.69036 0.12499 1.3832 0.23239 1.9713 0.11594 11.006-2.1445 8.4791-0.34412 12.562-3.8258 1.3756-1.9257 0.73787-0.93648 1.9223-2.9555l-10.921-0.0175c-1.0554 1.8403-0.45106 0.97485-1.837 2.5628-3.5494 2.1531-2.587 1.3322 6.523-0.69141 0.5363-0.12152-1.085 0.22688-1.6974 0.17714-1.6982-0.136-3.7329-1.4349-5.5665-2.0158-1.7143-0.5386-2.3636-0.81905-3.9852-1.0043-3.7939-0.43341-7.0841 0.35918-10.733 0.2681-4.2726 0.27658-8.5547 0.58697-13.315-0.32166l-9.8273 4.7111z"/>
    <path d="m662.65 559.1c2.3817 1.1118 4.3794 2.5889 5.9057 4.2696 0.43544 0.47886 0.79826 0.985 1.1972 1.4775 2.0871 2.8611 3.1478 5.8132 2.2324 8.8744-0.16381 0.54768-0.46481 1.0647-0.69724 1.5971-0.40501 0.45493-0.73556 0.94797-1.2151 1.3648-1.0318 0.89707-2.4795 1.6669-3.9346 2.2088-0.86419 0.32163-3.6023 1.1006-2.7101 0.81388 7.9606-2.5562 10.236-2.7839 4.3465-1.825-4.4599 0.49898-9.0837 0.27425-13.5-0.83947-2.6723-0.67393-3.1594-0.99168-5.5976-2.0176-3.598-1.8524-6.1099-4.3114-7.5209-7.2095-0.90433-1.8585-1.0423-2.9198-1.507-4.8412-0.33952-3.3161 0.0723-6.5335 3.4179-8.9498 2.0381-1.472 2.9472-1.4736 5.6893-2.2091-1.9918 0.78467-4.8446 0.97355-5.9752 2.3542-0.6532 0.79768 2.7201-0.10524 4.0884-0.0501 2.2653 0.0912 4.8663 0.4669 7.0515 1.0191 0.94343 0.23839 1.8332 0.58321 2.7498 0.87483l10.001-3.6262c-1.0477-0.28847-2.0736-0.62828-3.143-0.86552-2.4061-0.53393-5.1596-0.88053-7.6272-1.0294-1.3643-0.0822-2.793-0.32287-4.0903-0.0962-4.6963 0.82013-9.1352 2.136-13.703 3.2039-2.8828 0.95731-3.7659 0.96235-5.745 2.667-3.098 2.6686-3.1016 6.0213-2.8202 9.403 0.1607 0.87997 0.24948 1.764 0.48287 2.6396 0.84547 3.1724 2.6957 6.2601 6.0553 8.665 0.78119 0.55922 1.68 1.0328 2.52 1.5491 0.93649 0.41609 1.8332 0.88332 2.8095 1.2484 4.1033 1.5339 8.9394 2.1726 13.424 2.2373 1.1314 0.0164 2.2524-0.0577 3.3786-0.0865 7.5982-0.96101 3.0715-0.24068 16.255-4.086 2.7302-0.79667 5.3429-1.8849 7.0131-3.6121 0.4589-0.4746 0.72053-1.0339 1.0808-1.5508 0.17166-0.56853 0.41545-1.1253 0.51517-1.7055 0.33023-1.9201-0.063-3.9508-0.6132-5.8757-0.19129-0.6664-0.34527-1.342-0.66791-1.9903-0.26545-0.53042-0.72139-1.014-1.0816-1.5214-1.7035-2.2449-3.5111-4.4448-5.7476-6.4776l-12.318 3.9971z"/>
    <path d="m536 615.2c4.2918-2.0944 8.601-4.1648 12.876-6.2831 0.48663-0.24118 0.92821-0.53998 1.4052-0.794 0.72783-0.38766 2.9673-1.4753 2.2084-1.1306-2.2 0.99921-8.6908 4.1563-6.5337 3.0951 25.319-12.456 5.4541-2.4669 17.518-8.5518 8.575-4.1991 16.979-8.6296 25.314-13.144 0.45051-0.25954 3.8271-2.2167 4.5361-2.5839 0.48674-0.25203 1.9997-0.93498 1.5058-0.69272-3.6408 1.7704-7.2816 3.5409-10.922 5.3113 0.042-0.0199 0.0942-0.09 0.12674-0.06 0.11413 0.10554 0.14846 0.25511 0.22253 0.38263 0.16892 0.46646 0.38534 0.92303 0.5069 1.3994 0.40998 1.6064 0.61668 3.6346 0.75055 5.2343 0.30652 3.6618 0.31403 7.3126 0.26961 10.98-0.0552 5.6149-0.45697 11.214-1.0598 16.804-0.16892 1.185-0.28097 2.3726-0.34089 3.5643l12.185-5.1945c-0.21481-1.0495-0.29933-2.105-0.44065-3.1631-0.58632-5.3178-0.90217-10.646-0.8756-15.988 5e-3 -6.3828 0.37567-12.749 1.0433-19.108-0.13988-0.40539-0.15212-0.85713-0.41954-1.2162-0.20747-0.27857-0.57549-0.73912-0.93628-0.60412-8.1496 3.0482-11.188 4.6894-16.923 8.4253-7.7006 4.5347-15.682 8.7306-23.881 12.626-1.5872 0.76695-6.3893 3.0076-4.7617 2.3007 1.8018-0.7825 7.06-3.3509 5.2848-2.5279-4.4633 2.0692-8.901 4.1758-13.349 6.2668-0.99403 0.46726-1.9896 0.93241-2.9778 1.4081-0.69909 0.33657-2.7854 1.3615-2.0838 1.0285 3.6112-1.7143 7.2087-3.4482 10.813-5.1724l-11.06 7.3879z"/>
   </g>
   <text transform="matrix(18.125 0 0 16.617 -5175.4 -19118)" fill="#ffffff" fill-opacity=".28235" font-family="'Bookman Old Style'" font-size="10.583px" font-weight="600" stroke="#e30000" stroke-linejoin="round" stroke-width=".67062" style="font-variant-caps:normal;font-variant-east-asian:normal;font-variant-ligatures:normal;font-variant-numeric:normal;line-height:1.25;mix-blend-mode:normal;shape-inside:url(#rect1598);white-space:pre" xml:space="preserve"><tspan x="257.24609" y="1231.3156"><tspan fill="#ffffff" fill-opacity=".28235" font-family="'Bookman Old Style'" font-size="10.583px" font-weight="600" stroke="#e30000" stroke-linejoin="round" stroke-width=".67062" style="font-variant-caps:normal;font-variant-east-asian:normal;font-variant-ligatures:normal;font-variant-numeric:normal">Page not found
</tspan></tspan></text>
   <g transform="matrix(1.3485 -.0462 .03996 1.1663 -1249.1 -56.011)" fill="#fff">
    <g transform="matrix(19.994 0 0 19.994 -15976 -20677)" filter="url(#filter3218)" opacity=".40447" style="font-variant-caps:normal;font-variant-east-asian:normal;font-variant-ligatures:normal;font-variant-numeric:normal;shape-inside:url(#rect2951);white-space:pre" aria-label="404">
     <path d="m852.14 1082h1.6123l-0.894 3.9584h1.3591l-0.28422 1.2403h-1.3539l-0.43925 2.0102h-1.6381l0.45992-2.0102h-3.4571l0.35657-1.5606zm-0.90433 3.9584 0.50643-2.2065-2.6097 2.2065z" style="font-variant-caps:normal;font-variant-east-asian:normal;font-variant-ligatures:normal;font-variant-numeric:normal"/>
     <path d="m858.97 1081.9q1.1782 0 1.881 0.7132 0.7028 0.7079 0.7028 1.9016 0 1.3436-0.58394 2.5528-0.58395 1.2041-1.4159 1.7519-0.83199 0.5426-1.9224 0.5426-0.82682 0-1.3901-0.3204t-0.894-0.9199q-0.32556-0.5994-0.32556-1.4314 0-0.9818 0.33589-1.912 0.3359-0.9302 0.894-1.5865 0.56327-0.6614 1.2454-0.9767 0.68213-0.3152 1.4728-0.3152zm-0.0982 1.1059q-0.26872 0-0.56327 0.1395-0.29456 0.1344-0.52193 0.3876-0.22221 0.2532-0.47026 0.8423-0.24287 0.584-0.40307 1.3384-0.1602 0.7493-0.1602 1.3229 0 0.3979 0.12403 0.6718 0.12402 0.2687 0.34623 0.4134 0.22737 0.1447 0.49092 0.1447 0.33073 0 0.68213-0.2118 0.3514-0.2119 0.58911-0.6046 0.31522-0.5323 0.57877-1.4728 0.26355-0.9457 0.26355-1.6795 0-0.4289-0.12402-0.7131-0.12403-0.2894-0.34623-0.4341-0.21704-0.1447-0.48576-0.1447z" style="font-variant-caps:normal;font-variant-east-asian:normal;font-variant-ligatures:normal;font-variant-numeric:normal"/>
     <path d="m866.53 1082h1.6123l-0.89399 3.9584h1.3591l-0.28422 1.2403h-1.3539l-0.43924 2.0102h-1.6381l0.45992-2.0102h-3.4572l0.35657-1.5606zm-0.90434 3.9584 0.50643-2.2065-2.6096 2.2065z" style="font-variant-caps:normal;font-variant-east-asian:normal;font-variant-ligatures:normal;font-variant-numeric:normal"/>
    </g>
    <g transform="matrix(19.994 0 0 19.994 -15980 -20695)" stroke="#e30000" stroke-width=".41483" style="font-variant-caps:normal;font-variant-east-asian:normal;font-variant-ligatures:normal;font-variant-numeric:normal;shape-inside:url(#rect2951);white-space:pre" aria-label="404">
     <path d="m852.14 1082h1.6123l-0.894 3.9584h1.3591l-0.28422 1.2403h-1.3539l-0.43925 2.0102h-1.6381l0.45992-2.0102h-3.4571l0.35657-1.5606zm-0.90433 3.9584 0.50643-2.2065-2.6097 2.2065z" style="font-variant-caps:normal;font-variant-east-asian:normal;font-variant-ligatures:normal;font-variant-numeric:normal"/>
     <path d="m858.97 1081.9q1.1782 0 1.881 0.7132 0.7028 0.7079 0.7028 1.9016 0 1.3436-0.58394 2.5528-0.58395 1.2041-1.4159 1.7519-0.83199 0.5426-1.9224 0.5426-0.82682 0-1.3901-0.3204t-0.894-0.9199q-0.32556-0.5994-0.32556-1.4314 0-0.9818 0.33589-1.912 0.3359-0.9302 0.894-1.5865 0.56327-0.6614 1.2454-0.9767 0.68213-0.3152 1.4728-0.3152zm-0.0982 1.1059q-0.26872 0-0.56327 0.1395-0.29456 0.1344-0.52193 0.3876-0.22221 0.2532-0.47026 0.8423-0.24287 0.584-0.40307 1.3384-0.1602 0.7493-0.1602 1.3229 0 0.3979 0.12403 0.6718 0.12402 0.2687 0.34623 0.4134 0.22737 0.1447 0.49092 0.1447 0.33073 0 0.68213-0.2118 0.3514-0.2119 0.58911-0.6046 0.31522-0.5323 0.57877-1.4728 0.26355-0.9457 0.26355-1.6795 0-0.4289-0.12402-0.7131-0.12403-0.2894-0.34623-0.4341-0.21704-0.1447-0.48576-0.1447z" style="font-variant-caps:normal;font-variant-east-asian:normal;font-variant-ligatures:normal;font-variant-numeric:normal"/>
     <path d="m866.53 1082h1.6123l-0.89399 3.9584h1.3591l-0.28422 1.2403h-1.3539l-0.43924 2.0102h-1.6381l0.45992-2.0102h-3.4572l0.35657-1.5606zm-0.90434 3.9584 0.50643-2.2065-2.6096 2.2065z" style="font-variant-caps:normal;font-variant-east-asian:normal;font-variant-ligatures:normal;font-variant-numeric:normal"/>
    </g>
   </g>
  </g>
 </g>
</svg>
